<svg width="88" height="89" viewBox="0 0 88 89" fill="none" xmlns="http://www.w3.org/2000/svg">
<rect x="0.354839" y="1.10484" width="87.2903" height="87.2903" rx="43.6452" fill="#DFDFDF"/>
<path fill-rule="evenodd" clip-rule="evenodd" d="M44.1097 29.3174C42.8377 29.5504 41.9049 29.8876 41.0329 30.4294C37.2859 32.7577 36.1983 37.7337 38.6358 41.3969C39.1305 42.1406 40.0091 43.0285 40.7219 43.5053C41.0332 43.7135 41.2205 43.8813 41.1641 43.9013C41.1104 43.9205 40.7696 44.0398 40.4069 44.1664C36.1034 45.6684 32.7314 49.3533 31.5301 53.8669C31.2739 54.8294 31.1431 55.7939 31.2049 56.2659C31.2335 56.4844 31.232 56.8446 31.2017 57.0664C31.0469 58.1991 31.6253 59.4541 32.582 60.0614C33.3375 60.5412 32.5577 60.5131 45.1364 60.5131C57.715 60.5131 56.9352 60.5412 57.6908 60.0614C58.6425 59.4572 59.2395 58.1695 59.0675 57.0912C59.0344 56.8831 59.0328 56.5244 59.064 56.2942C59.2095 55.2222 58.5631 52.7996 57.6599 51.032C55.988 47.7595 52.9854 45.1614 49.628 44.0819C49.3356 43.9879 49.0963 43.8903 49.0963 43.865C49.0963 43.8397 49.3291 43.66 49.6136 43.4656C50.6998 42.7235 51.7589 41.4378 52.2847 40.2233C54.2131 35.7689 51.7014 30.6577 47.0064 29.4822C46.4366 29.3396 44.5686 29.2333 44.1097 29.3174Z" fill="#858585"/>
<rect x="0.354839" y="1.10484" width="87.2903" height="87.2903" rx="43.6452" stroke="#DFDFDF" stroke-width="0.709677"/>
</svg>
