<svg width="41" height="37" viewBox="0 0 41 37" fill="none" xmlns="http://www.w3.org/2000/svg">
<g filter="url(#filter0_d_1598_86766)">
<path fill-rule="evenodd" clip-rule="evenodd" d="M4.58302 13.5595C5.10533 14.8382 6.28122 15.8527 7.71584 16.2623C9.16182 16.6753 10.6251 16.4116 11.8065 15.5253L12.1017 15.3038L17.6857 19.2214L23.2698 23.139L23.0681 23.5892C22.5236 24.805 22.5583 26.2479 23.1605 27.4244C23.9368 28.9408 25.3959 29.9508 26.9892 30.0744C27.5225 30.1159 28.6686 29.9129 29.2067 29.6818C29.7435 29.4512 30.5016 28.8954 30.9118 28.4315C31.5617 27.6968 31.9813 26.641 32.02 25.6429L32.0402 25.1215L32.362 25.0648C32.939 24.963 33.6445 24.6425 34.2298 24.2163C35.2029 23.5076 35.8239 22.5023 36.0521 21.2661C36.148 20.7468 36.1471 20.5663 36.0453 19.8343C35.9458 19.1193 35.8943 18.924 35.6934 18.4991C35.0036 17.0408 33.7383 16.1011 32.1191 15.8446C31.6292 15.767 31.4529 15.7736 30.7305 15.8965C29.8225 16.0511 29.4894 16.1862 28.7341 16.7064L28.3161 16.9943L22.7596 13.0805C19.7035 10.928 17.1972 9.13293 17.1899 9.09153C17.1826 9.05012 17.2326 8.90776 17.301 8.77513C17.6647 8.06984 17.797 6.99371 17.6329 6.07586C17.4996 5.32993 17.2695 4.78569 16.84 4.20052C15.7074 2.65723 14.1039 1.98471 12.3108 2.30089C10.1214 2.68694 8.49205 4.48376 8.38797 6.6269L8.36274 7.14579L7.83857 7.2788C6.84542 7.53076 6.01222 8.03596 5.37006 8.77546C4.27469 10.0369 3.95009 12.0101 4.58302 13.5595Z" fill="white"/>
</g>
<defs>
<filter id="filter0_d_1598_86766" x="0.262146" y="0.224609" width="39.8607" height="35.8552" filterUnits="userSpaceOnUse" color-interpolation-filters="sRGB">
<feFlood flood-opacity="0" result="BackgroundImageFix"/>
<feColorMatrix in="SourceAlpha" type="matrix" values="0 0 0 0 0 0 0 0 0 0 0 0 0 0 0 0 0 0 127 0" result="hardAlpha"/>
<feOffset dy="2"/>
<feGaussianBlur stdDeviation="2"/>
<feComposite in2="hardAlpha" operator="out"/>
<feColorMatrix type="matrix" values="0 0 0 0 0 0 0 0 0 0 0 0 0 0 0 0 0 0 0.12 0"/>
<feBlend mode="normal" in2="BackgroundImageFix" result="effect1_dropShadow_1598_86766"/>
<feBlend mode="normal" in="SourceGraphic" in2="effect1_dropShadow_1598_86766" result="shape"/>
</filter>
</defs>
</svg>
