<svg width="40" height="40" viewBox="0 0 40 40" fill="none" xmlns="http://www.w3.org/2000/svg">
<g clip-path="url(#clip0_294_76005)">
<path d="M17.3334 10.6667C17.3334 9.95942 17.6143 9.28115 18.1144 8.78105C18.6145 8.28095 19.2928 8 20 8C20.7073 8 21.3856 8.28095 21.8857 8.78105C22.3858 9.28115 22.6667 9.95942 22.6667 10.6667C24.1979 11.3907 25.5032 12.5178 26.4428 13.9271C27.3823 15.3364 27.9206 16.9748 28 18.6667V22.6667C28.1004 23.4956 28.394 24.2894 28.8571 24.9842C29.3203 25.6789 29.9401 26.2552 30.6667 26.6667H9.33337C10.06 26.2552 10.6798 25.6789 11.143 24.9842C11.6061 24.2894 11.8997 23.4956 12 22.6667V18.6667C12.0795 16.9748 12.6178 15.3364 13.5573 13.9271C14.4968 12.5178 15.8022 11.3907 17.3334 10.6667" stroke="#CCCCCC" stroke-width="2.5" stroke-linecap="round" stroke-linejoin="round"/>
<path d="M16 26.6667V28C16 29.0609 16.4214 30.0783 17.1716 30.8284C17.9217 31.5786 18.9391 32 20 32C21.0609 32 22.0783 31.5786 22.8284 30.8284C23.5786 30.0783 24 29.0609 24 28V26.6667" stroke="#CCCCCC" stroke-width="2.5" stroke-linecap="round" stroke-linejoin="round"/>
</g>
<defs>
<clipPath id="clip0_294_76005">
<rect width="32" height="32" fill="white" transform="translate(4 4)"/>
</clipPath>
</defs>
</svg>
