<svg width="117" height="25" viewBox="0 0 117 25" fill="none" xmlns="http://www.w3.org/2000/svg">
<g clip-path="url(#clip0_2524_566266)">
<mask id="mask0_2524_566266" style="mask-type:alpha" maskUnits="userSpaceOnUse" x="0" y="0" width="117" height="25">
<rect width="117" height="24.7" fill="#D9D9D9"/>
</mask>
<g mask="url(#mask0_2524_566266)">
<mask id="mask1_2524_566266" style="mask-type:luminance" maskUnits="userSpaceOnUse" x="-21" y="-126" width="317" height="210">
<path d="M-20.1172 -125.243H295.832V83.9801H-20.1172V-125.243Z" fill="white"/>
</mask>
<g mask="url(#mask1_2524_566266)">
<path d="M137.857 83.9801H-20.1172V-125.243H137.857V83.9801Z" fill="#A167C9"/>
<path d="M11.4682 4.42163C11.4878 4.83465 11.2928 5.31645 11.0394 5.61478C10.7667 5.93598 10.4353 6.05066 10.0455 6.09658C9.24623 6.21126 8.44714 6.28004 7.62847 6.349V6.37186C7.55047 11.0759 7.49205 15.7799 7.41421 20.4838C7.39463 21.4245 6.79038 22.1359 5.99129 22.1589C5.25062 22.2049 4.56853 21.3786 4.58795 20.4838C4.64636 15.8487 4.70495 11.2365 4.80236 6.57857C3.82786 6.64734 2.87277 6.6702 1.91768 6.69325C1.11859 6.71611 0.533757 5.91312 0.494922 5.04116C0.455922 4.10024 1.17701 3.36602 1.91768 3.34297C4.62695 3.29725 7.33621 3.09054 10.0455 2.76954C10.8446 2.67771 11.4488 3.59558 11.4682 4.42163Z" fill="white"/>
<path d="M13.9229 5.3853C13.9033 4.46742 14.605 3.71034 15.3262 3.71034C16.1253 3.71034 16.7102 4.46742 16.7296 5.3853C16.7686 6.28011 16.0669 7.03739 15.3262 7.03739C14.5466 7.03739 13.9617 6.28011 13.9229 5.3853ZM15.0144 20.0709C14.2543 20.1168 13.5721 19.2677 13.5915 18.3957C13.6693 15.6882 13.7669 12.9574 13.8253 10.2269C13.8449 9.28615 14.4491 8.59785 15.2288 8.57479C15.9695 8.52888 16.6516 9.35492 16.6322 10.2269C16.5542 12.9574 16.4956 15.6882 16.4177 18.3957C16.3982 19.3364 15.7941 20.0021 15.0144 20.0709Z" fill="white"/>
<path d="M19.4775 19.6807C18.9902 16.17 18.6784 12.6363 18.6004 9.05663C18.5808 8.06999 19.5359 7.06029 20.3936 7.45045C21.7383 8.1159 22.752 9.26314 24.0385 10.7777C25.3637 12.2692 26.7868 13.6229 28.3265 15.1144C28.385 14.0131 28.4435 12.9346 28.4824 11.6496C28.5604 9.92878 28.5994 8.18467 28.6382 6.44095C28.6382 5.52308 29.262 4.83477 30.0221 4.78886C30.8018 4.7658 31.4645 5.59185 31.4451 6.44095C31.4255 8.55198 31.3281 10.663 31.2501 12.774C31.2111 13.6919 31.1722 14.6098 31.1138 15.5734C31.0748 16.5831 31.0552 17.6844 30.3924 18.4417C29.5349 19.4514 28.3265 19.153 27.4299 18.4186C25.3833 16.7208 23.4147 14.7704 21.5631 12.5445C21.7189 14.6098 21.8749 16.6518 22.2063 18.8088C22.3427 19.7266 22.0113 20.5298 21.2122 20.851C20.5496 21.1035 19.6139 20.5298 19.4775 19.6807Z" fill="white"/>
<path d="M40.5459 12.6592C40.7213 11.7413 40.5849 10.7776 39.8636 10.1352C38.9085 9.30893 37.2518 8.96487 36.4137 9.03384C36.4917 11.5348 36.4722 14.036 36.3552 16.5599C38.129 16.1011 40.0586 14.9998 40.5459 12.6592ZM34.9325 5.68355C37.5442 5.68355 41.5009 6.00494 42.8847 9.35484C43.528 10.8694 43.5865 12.6592 43.0601 14.2883C42.495 16.0093 41.4814 17.3402 40.1366 18.304C38.9085 19.1759 37.5052 19.7037 36.1018 20.0479C35.0882 20.2773 33.3146 20.0479 33.49 17.9597C33.6654 14.7702 33.7044 11.5807 33.5874 8.41411C33.1003 7.33564 33.8214 5.72946 34.9325 5.68355Z" fill="white"/>
<path d="M49.1793 17.6386C49.1989 17.6614 49.2379 17.6614 49.2183 17.6614C49.2183 17.6614 49.1989 17.6614 49.1793 17.6386ZM49.0429 17.6155C49.0623 17.6155 49.0819 17.6386 49.1013 17.6386C49.1013 17.6386 49.0819 17.6155 49.0429 17.6155ZM49.0039 17.5467C48.9649 17.5467 48.9455 17.5237 48.9455 17.5237C48.9455 17.5237 48.9649 17.5237 49.0039 17.5467ZM48.7311 16.4452C48.7895 16.6058 48.7701 16.6976 48.7505 16.6058C48.7505 16.5599 48.7311 16.4911 48.7311 16.4452ZM45.7684 14.3342C45.6904 12.4068 45.7294 10.5023 45.9244 8.57473C46.0024 7.58809 46.0218 6.39493 46.509 5.52297C47.0353 4.51327 48.0098 4.07739 49.0039 4.19208C49.8226 4.26085 50.6217 4.49041 51.4207 4.69693C52.2394 4.88058 53.0191 5.06404 53.8183 5.22463C54.5784 5.43115 54.9487 6.4637 54.8123 7.28975C54.637 8.18457 53.7793 8.59778 53.0775 8.43718C52.2784 8.25353 51.4987 8.07008 50.6801 7.88642C50.3098 7.7946 49.9396 7.72582 49.5497 7.634C48.7311 7.4734 48.8285 7.35871 48.7311 8.43718C48.6921 8.82735 48.6726 9.26304 48.6336 9.6532C48.5946 10.3646 48.5556 11.0988 48.5556 11.8332C49.1793 11.7644 49.7836 11.7185 50.4072 11.6955C51.1871 11.6495 51.7717 12.4756 51.8107 13.3475C51.8497 14.2654 51.1285 14.9768 50.4072 15.0227C49.8226 15.0457 49.2183 15.0686 48.6336 15.1374C48.6531 15.3898 48.6726 15.6651 48.6921 15.8946C48.6921 16.0783 48.7116 16.2387 48.7311 16.4452V16.5599C48.7311 16.583 48.7505 16.6058 48.7505 16.6058V16.6289C48.7895 16.9043 48.8675 17.2025 48.9259 17.4549C48.9455 17.5008 48.9649 17.5237 49.0039 17.5696C49.0235 17.5696 49.0235 17.5927 49.0429 17.5927V17.6155C49.0623 17.6155 49.1013 17.6386 49.1403 17.6386H49.5301C49.5497 17.6386 49.7446 17.5927 49.7446 17.5927C50.4268 17.4549 51.1091 17.2943 51.7912 17.1109C52.5512 16.9043 53.2529 17.3631 53.5259 18.2581C53.7403 19.0841 53.2529 20.1398 52.5318 20.3002C50.7387 20.7362 48.4386 21.7 46.9573 19.8643C46.4116 19.176 46.1386 18.2581 46.0218 17.3631C45.905 16.3305 45.8074 15.3439 45.7684 14.3342Z" fill="white"/>
<path d="M61.5941 8.39141C61.0679 8.02411 60.3662 7.88656 59.6255 7.74883H59.6059C59.6839 9.76822 59.7619 11.7646 59.8204 13.7838C60.5026 13.5313 61.1653 13.0953 61.6525 12.4529C62.4712 11.3973 62.9195 9.30909 61.5941 8.39141ZM59.9374 19.2447C59.9569 20.1856 59.2747 20.8741 58.534 20.897C57.7738 20.9429 57.1501 20.1168 57.1307 19.2447C57.0721 14.7474 56.8967 10.25 56.6824 5.75268C56.6434 4.83481 57.3645 4.14631 58.0858 4.10039C58.4562 4.07753 58.7484 4.23813 58.9823 4.4675C60.0154 4.37587 61.2237 4.58238 62.2762 5.08704C64.128 5.959 65.3755 8.09308 65.2975 10.4565C65.2391 12.5676 64.167 14.4031 62.7052 15.7111C63.0949 15.8489 63.4847 15.9636 63.894 16.0782C64.6542 16.3307 65.0245 17.2714 64.8686 18.1205C64.7126 19.0155 63.8745 19.4971 63.1339 19.2906C62.0618 18.9465 60.9899 18.5794 59.9179 18.0976C59.9179 18.4646 59.9374 18.8547 59.9374 19.2447Z" fill="white"/>
<path d="M78.8762 13.0382C79.0661 17.3789 74.9954 21.4856 73.7402 20.8148C72.7185 20.2689 73.3105 16.4222 71.9862 15.8734C71.5011 15.6723 70.9937 15.7212 70.9937 15.7212C70.4143 15.7769 70.3386 16.0476 69.7408 16.0931C69.2715 16.1289 68.8871 15.9945 68.6065 15.8972C68.2034 15.7574 68.0018 15.6874 67.9531 15.5633C67.6825 14.8736 70.1325 13.0656 69.9424 12.6837C69.8785 12.5553 69.5879 12.7324 69.0928 12.7612C68.1723 12.8147 67.2177 12.3174 66.6225 11.5342C66.4923 11.3629 65.6832 10.2984 65.9897 9.46401C66.1958 8.90298 66.815 8.69454 67.1178 8.59264C67.855 8.34447 68.1514 8.65288 68.6852 8.38845C69.1117 8.17729 69.1479 7.84795 69.6294 7.20905C69.8576 6.90606 70.4384 6.13542 71.2022 5.74758C72.2 5.24099 73.2353 5.52674 74.3216 5.82662C74.9365 5.99652 75.2821 6.0403 75.6185 6.30881C75.836 6.48258 75.927 6.62341 76.5084 7.33632C76.9601 7.89019 77.1765 8.13796 77.2624 8.2449C77.8423 8.96672 78.791 11.09 78.8762 13.0382Z" fill="#EDB506"/>
<path d="M103.601 19.9811C102.237 20.6925 100.814 20.6925 99.4693 19.9583C97.2472 18.7649 95.9997 15.805 95.9217 13.0516C95.8439 10.2292 96.9744 7.54436 98.9624 5.96123C100.834 4.46955 103.367 4.21712 105.492 5.3415C106.213 5.70881 106.33 6.8791 106.018 7.59027C105.862 7.95757 105.492 8.25572 105.18 8.3704C104.771 8.48509 104.439 8.43937 104.089 8.18694C103.679 7.88861 103.017 7.79678 102.295 7.91166C99.3523 8.41632 97.8905 12.4549 99.4107 15.5295C100.346 17.48 102.49 18.0079 103.484 15.6673C103.621 15.3461 103.699 14.933 103.718 14.52C103.718 13.1893 102.685 13.9464 101.906 13.8546C101.106 13.7858 100.522 13.1663 100.483 12.1796C100.444 11.5599 100.834 11.0322 101.36 10.7569C102.822 9.99963 105.044 10.2749 105.999 11.996C106.72 13.3269 106.681 15.1626 106.213 16.5851C105.726 18.0538 104.849 19.3388 103.601 19.9811Z" fill="white"/>
<path d="M108.668 16.4246C108.863 15.5296 109.701 15.0707 110.402 15.2772C111.143 15.5067 112.488 15.8969 113.092 15.0935C113.599 14.3364 112.858 13.6481 112.391 13.2351C111.201 12.2024 109.467 10.9633 108.999 9.33426C107.81 5.2269 112.157 2.51939 115.041 2.61102C115.821 2.63407 116.406 3.39115 116.445 4.28616C116.464 5.18098 115.762 5.86929 115.041 5.93806C112.858 6.14477 110.246 7.65931 112.585 9.2653C113.618 10.1373 115.568 11.56 116.113 13.2808C116.425 14.2218 116.328 15.2313 115.977 16.1263C114.905 18.8568 112.118 19.1321 109.662 18.4667C108.902 18.2602 108.512 17.2507 108.668 16.4246Z" fill="white"/>
<path d="M91.3219 11.916C90.9244 14.1064 89.7021 18.5615 88.0286 19.1266C86.3532 19.6923 83.2355 16.6946 83.3249 13.5892C83.3575 12.4563 84.9324 10.989 88.0286 8.05172C88.6562 7.45621 89.5236 6.66542 90.6992 6.59238C91.2743 6.55674 91.8649 6.69641 92.3753 6.8173C93.1545 7.00153 93.5791 7.10207 94.0229 7.45814C94.7525 8.04377 95.3038 9.13619 95.082 9.48432C94.7896 9.94364 93.4527 8.63716 92.4147 9.24429C91.6561 9.68773 91.5094 10.8822 91.3219 11.916Z" fill="#EDB506"/>
<path fill-rule="evenodd" clip-rule="evenodd" d="M89.314 19.293C92.0922 17.8224 92.6536 14.2215 92.7445 13.6382C93.0499 11.6796 92.6645 10.0599 92.4147 9.24428C92.5854 9.24098 92.8273 9.24486 93.1146 9.27934C94.3356 9.42619 94.838 9.93995 95.1082 9.67105C95.367 9.4134 95.2752 8.592 95.0048 8.19622C93.519 6.02262 91.1068 5.85466 89.1216 7.12046C88.8599 6.96703 88.4726 6.7766 87.9847 6.66676C85.8492 6.18632 84.1066 7.77274 83.8637 8.00095C81.8367 9.90527 81.7712 12.8445 81.7774 13.5498C81.7932 15.3495 82.4009 16.6324 82.5243 16.8852C82.707 17.2595 83.2015 18.2477 84.1469 18.9774C85.7082 20.1824 87.7711 20.1098 89.314 19.293ZM90.0966 13.2466C90.055 13.5593 89.7859 15.3172 88.4482 16.0665C87.6092 16.5365 86.4299 16.5652 85.5892 15.7633C84.8982 15.1043 84.7465 14.1804 84.7103 13.9404C84.5216 12.6918 85.0559 11.709 85.3575 11.1544C85.8905 10.1742 86.5724 9.67435 86.877 9.45641C87.5173 8.99863 87.8195 9.19565 88.4224 8.72877C89.0665 8.23012 89.0862 7.80141 89.5042 7.36417C90.7863 6.02378 93.7338 6.78009 94.7292 8.45756C94.823 8.61544 95.0177 8.95117 94.9179 9.1571C94.7016 9.60344 93.4641 8.69332 92.0283 9.09259C91.9564 9.11254 90.4127 9.56702 90.0046 10.9062C89.7418 11.7689 90.2501 12.0942 90.0966 13.2466Z" fill="white"/>
<path d="M69.9424 12.6836C69.7343 12.9384 69.3943 13.2877 68.9049 13.5132C68.455 13.7205 68.2129 13.6705 67.9516 13.908C67.7346 14.1054 67.4971 14.5111 67.4927 15.446C67.5457 15.5979 67.5987 15.7499 67.6515 15.9018C67.7259 15.9098 67.8366 15.9078 67.9414 15.8388C68.054 15.7648 68.107 15.6486 68.13 15.6021C68.2019 15.4568 68.5231 15.2154 69.1626 14.7385C69.3632 14.5887 69.4912 14.4963 69.6378 14.5339C69.714 14.5537 69.7677 14.6015 69.8537 14.581C69.961 14.5552 70.0091 14.4494 70.0723 14.3704C70.2426 14.1575 70.508 14.1598 70.6482 14.1368C71.2375 14.0395 72.1179 12.9717 71.9824 12.6521C71.928 12.5236 71.5589 12.5465 70.823 12.5978C70.4504 12.624 70.1453 12.6583 69.9424 12.6836Z" fill="#EA86B4"/>
<path d="M76.5903 3.29841C74.7389 2.33288 72.7303 2.15117 70.7435 2.28813C70.5526 2.30131 70.2427 2.31738 69.9908 2.56923C69.1371 3.42278 69.9342 5.93657 70.0813 6.38678C70.3627 6.14075 70.7737 5.83273 71.3115 5.58805C71.3115 5.58805 71.8812 5.32904 72.4753 5.23392C73.4252 5.08185 74.9918 5.29359 76.0833 6.31607C78.5143 8.59332 77.524 13.0812 77.4195 13.5271C76.5518 17.2331 73.6872 18.8011 73.2365 19.0374C73.2352 18.8305 73.2202 18.5866 73.1769 18.3172C73.1136 17.922 73.0092 17.5965 72.912 17.3518C72.871 17.1426 72.7748 16.7858 72.531 16.44C72.4265 16.2916 72.1878 15.9613 71.7808 15.8061C71.5248 15.7087 71.2979 15.7168 71.1277 15.723C70.9169 15.7307 70.7416 15.7693 70.6158 15.8061C70.5072 17.5016 70.4441 18.8034 70.4295 19.4249C70.4255 19.595 70.4216 19.8631 70.4454 20.2079C70.4644 20.4832 70.5007 20.8003 70.5675 21.1502C70.8789 22.7785 71.2307 23.1227 72.9062 22.7562C76.2574 21.609 78.929 18.4191 80.0009 14.5634C81.1704 10.4333 80.2149 5.20409 76.5903 3.29841Z" fill="white"/>
<path d="M75.2637 9.50651C75.1901 9.65006 75.136 9.80833 75.1409 9.979C75.2645 9.86858 75.3006 9.67795 75.2637 9.50651Z" fill="#1C3A8C"/>
<path d="M75.4593 9.49045C75.4568 9.44434 75.4201 9.57898 75.413 9.59642C75.3688 9.7359 75.3821 9.89204 75.4328 10.0265C75.5062 9.8593 75.5055 9.66732 75.4593 9.49045Z" fill="#1C3A8C"/>
<path d="M75.7681 9.92593C75.749 9.85154 75.7184 9.78218 75.6904 9.71244C75.6616 9.85173 75.6529 10.0021 75.7088 10.1338C75.7271 10.1816 75.7508 10.2272 75.7781 10.2684C75.7949 10.1557 75.798 10.036 75.7681 9.92593Z" fill="#1C3A8C"/>
<path d="M75.8864 9.73779C75.8747 9.71629 75.8693 9.66941 75.8653 9.72133C75.8653 9.72055 75.8655 9.71997 75.8656 9.7192C75.8648 9.72481 75.864 9.73043 75.8632 9.73605C75.8632 9.73566 75.8632 9.73528 75.8632 9.73528C75.8253 9.92183 75.8466 10.119 75.9332 10.2833C75.9872 10.1024 75.9634 9.90459 75.8864 9.73779Z" fill="#1C3A8C"/>
<path d="M69.3373 7.72394C69.359 7.73673 69.3848 7.69159 69.3891 7.67822C69.5209 7.4936 69.5443 7.23556 69.4814 7.01084C69.4128 7.23614 69.3371 7.46125 69.3279 7.70379C69.328 7.70302 69.328 7.70205 69.3282 7.70108C69.3276 7.71038 69.3297 7.7189 69.3373 7.72394Z" fill="#1C3A8C"/>
<path d="M69.6293 7.20898C69.6502 7.11948 69.7161 7.05768 69.7582 6.98213C69.8322 6.86357 69.8433 6.7115 69.8587 6.57066C69.7746 6.74017 69.5444 7.00209 69.6293 7.20898Z" fill="#1C3A8C"/>
<path d="M71.9902 5.66366C72.0782 5.64216 72.1552 5.58152 72.2125 5.50093C72.2233 5.47865 72.3063 5.38644 72.2528 5.41783C72.2525 5.41802 72.2521 5.41802 72.2521 5.41802C72.1628 5.44863 72.0706 5.4773 71.9943 5.54297C71.947 5.58055 71.9038 5.62434 71.8628 5.67102C71.9048 5.678 71.9487 5.67471 71.9902 5.66366Z" fill="#1C3A8C"/>
<path d="M72.2066 5.55802C72.1717 5.58495 72.1402 5.62079 72.1165 5.66089C72.1847 5.65798 72.254 5.64617 72.3174 5.61498C72.3776 5.58379 72.4288 5.53458 72.4796 5.48634C72.3858 5.48557 72.2853 5.48964 72.2066 5.55802Z" fill="#1C3A8C"/>
<path d="M72.321 5.6461C72.4779 5.6955 72.627 5.60717 72.7579 5.51379C72.6029 5.47311 72.4407 5.52309 72.321 5.6461Z" fill="#1C3A8C"/>
<path d="M72.6248 5.65225C72.6381 5.65089 72.6514 5.65011 72.6649 5.64953C72.6644 5.64953 72.6639 5.64953 72.6634 5.64973C72.6644 5.64953 72.6654 5.64953 72.6664 5.64953C72.6659 5.64953 72.6654 5.64953 72.6649 5.64953C72.9878 5.65554 73.3118 5.71153 73.6343 5.66154C73.7701 5.63791 73.9048 5.59432 74.0269 5.51974C73.8946 5.53078 73.7609 5.53117 73.6279 5.52807C73.2975 5.55286 72.9139 5.40796 72.6248 5.65225Z" fill="#1C3A8C"/>
<path d="M73.9737 5.60082C73.9008 5.61148 73.8263 5.64228 73.7739 5.70427C73.8432 5.70582 73.9122 5.72093 73.9801 5.73624C74.1304 5.7744 74.3227 5.78505 74.4552 5.72887H74.4555C74.2984 5.67095 74.1438 5.56983 73.9737 5.60082Z" fill="#1C3A8C"/>
<path d="M74.2505 5.85012C74.2038 5.84722 74.1559 5.85032 74.1113 5.86678C74.1758 5.91735 74.2428 5.9683 74.3172 5.99619C74.5518 6.19747 74.771 6.31138 75.0791 6.24106C75.2135 6.21801 75.3521 6.19244 75.485 6.23932C75.6269 6.28814 75.7413 6.40379 75.8609 6.49988C75.6136 5.93439 75.3625 6.04152 74.9068 6.07562C74.7732 6.07581 74.6427 6.04055 74.5117 6.01401C74.5288 6.01053 74.6117 5.98999 74.5966 5.97992L74.5973 5.98011C74.4821 5.93536 74.3756 5.85206 74.2505 5.85012Z" fill="#1C3A8C"/>
<path d="M73.3246 10.9227C73.3226 10.4439 73.4256 9.97582 73.5285 9.51591C73.5765 9.2908 73.6371 9.06976 73.708 8.85318C73.9094 8.14414 74.3676 7.37544 74.1982 6.60751C74.1614 6.73828 74.1271 6.87098 74.0959 7.00407C73.9797 7.67533 73.7561 8.3059 73.5597 8.94772C73.3815 9.65423 73.1865 10.3842 73.2114 11.1287C73.2237 11.3852 73.3065 11.651 73.4822 11.8131C73.3726 11.5367 73.331 11.2263 73.3246 10.9227Z" fill="#1C3A8C"/>
<path d="M73.8747 6.79089C73.8937 6.86083 73.916 6.92999 73.9362 6.99915C73.9689 6.85153 74.0009 6.68957 73.9505 6.54215C73.9188 6.44335 73.8574 6.35133 73.772 6.31278C73.822 6.46718 73.8276 6.63533 73.8747 6.79089Z" fill="#1C3A8C"/>
<path d="M72.2468 8.66839C72.1656 8.60852 72.0635 8.59477 71.9756 8.64165C72.0547 8.70926 72.1584 8.70829 72.2468 8.66839Z" fill="#1C3A8C"/>
<path d="M75.843 6.54618C75.939 7.2742 76.5964 7.57195 77.0262 7.99892C77.2243 8.18548 77.3922 8.29862 77.3176 8.63531C77.3044 8.73857 77.2941 8.84628 77.3207 8.94779C77.3337 8.99874 77.3569 9.04582 77.3859 9.0863C77.381 9.04891 77.3783 9.01056 77.3798 8.97239C77.3867 8.84357 77.4414 8.72849 77.473 8.60683C77.5651 8.299 77.3576 8.06111 77.1649 7.89392C76.9353 7.67327 76.6867 7.48148 76.4596 7.25695C76.2426 7.03475 76.0439 6.78814 75.843 6.54618Z" fill="#1C3A8C"/>
<path d="M77.3892 9.36107C77.4022 9.33899 77.3665 9.25627 77.371 9.30295C77.3675 9.40757 77.1893 9.33376 77.1282 9.37328C76.6861 9.5577 76.3795 10.0143 76.0153 10.3427C75.7231 10.6114 75.4071 10.8433 75.0981 11.0843C74.757 11.3198 74.2872 11.7259 73.8865 11.6999C73.7637 11.6906 73.6446 11.649 73.5295 11.6002C73.7472 11.9244 74.081 11.937 74.3764 11.7567C74.7277 11.5612 75.0589 11.3204 75.3833 11.0695C75.589 10.9072 75.7985 10.7509 76.0002 10.5819C76.2801 10.3392 76.5288 10.0502 76.8095 9.80877C76.9355 9.7028 77.066 9.6042 77.1949 9.50327C77.2612 9.46239 77.3588 9.4529 77.3892 9.36107Z" fill="#1C3A8C"/>
<path d="M70.9179 7.98678L70.9203 7.98581C70.7408 8.08151 70.6575 7.98775 70.7503 7.77872C70.7434 7.78046 70.7363 7.78298 70.7294 7.78608C70.7447 7.76632 70.7674 7.77252 70.7862 7.7824C70.7855 7.7793 70.7847 7.7764 70.7837 7.77349C70.8468 7.83955 70.895 7.90542 70.9514 7.97361C70.9402 7.97632 70.929 7.98136 70.9179 7.98678ZM71.3752 8.33781C71.3972 8.31941 71.4163 8.3012 71.4334 8.28241C71.4903 8.28492 71.5489 8.27233 71.6008 8.24599C71.4489 8.21673 71.3261 8.08403 71.2027 7.96818C71.077 7.85873 70.9251 7.75295 70.7719 7.74927C70.6733 7.64699 70.5552 7.83258 70.5519 7.94804C70.519 7.99259 70.5111 8.06292 70.5221 8.1191C70.0212 8.12394 70.3078 8.47109 70.6251 8.32871C70.6164 8.32503 70.6078 8.32135 70.5994 8.31786C70.6078 8.32135 70.6164 8.32522 70.6251 8.32871C70.5608 8.30197 70.4921 8.27136 70.4332 8.23766C70.4696 8.21286 70.504 8.18535 70.5334 8.15862C70.5527 8.21247 70.5961 8.25528 70.6437 8.2764C70.6253 8.28919 70.6378 8.31011 70.6407 8.32754C70.6452 8.32193 70.646 8.31553 70.648 8.30895C70.8389 8.52573 71.1639 8.52418 71.3752 8.33781Z" fill="#1C3A8C"/>
<path d="M70.7429 7.45485C70.9445 7.82487 71.2942 8.08679 71.671 8.10693C71.357 7.89926 71.0855 7.60092 70.7429 7.45485Z" fill="#1C3A8C"/>
<path d="M70.4364 7.81511C70.4141 7.8864 70.4163 7.96776 70.4401 8.03809C70.4974 7.90751 70.5545 7.77636 70.606 7.64211C70.5285 7.65683 70.4637 7.73006 70.4364 7.81511Z" fill="#1C3A8C"/>
<path d="M71.4374 8.38005C71.5225 8.37889 71.5952 8.43933 71.6745 8.46684C71.7344 8.4895 71.7963 8.50888 71.8587 8.51953C71.8072 8.43797 71.7438 8.35874 71.6612 8.32212C71.5829 8.28939 71.4759 8.29326 71.4246 8.38082C71.4287 8.38082 71.4331 8.38005 71.4374 8.38005Z" fill="#1C3A8C"/>
<path d="M69.8755 6.83533C70.0348 6.82545 70.0656 6.59995 70.1105 6.45892C69.9797 6.54125 69.9558 6.70824 69.8755 6.83533Z" fill="#1C3A8C"/>
<path d="M70.0697 6.63449C70.0659 6.65173 70.0632 6.66975 70.0632 6.68738C70.0958 6.662 70.1277 6.63507 70.1559 6.60311C70.1972 6.55623 70.2238 6.49598 70.2464 6.43457C70.1684 6.47079 70.0894 6.53182 70.0697 6.63449Z" fill="#1C3A8C"/>
<path d="M70.2332 6.57336C70.5183 6.39959 70.7583 6.14194 71.0424 5.9672C71.1074 5.92671 71.1744 5.89009 71.2445 5.86355C71.3941 5.81241 71.5606 5.81454 71.6939 5.70935C71.7361 5.67738 71.7747 5.63728 71.8093 5.59505C71.6232 5.72659 71.4027 5.67797 71.2024 5.74751C70.8308 5.91392 70.4235 6.13903 70.2332 6.57336Z" fill="#1C3A8C"/>
<path d="M70.8908 9.62722C70.8446 9.59526 70.7966 9.56581 70.7515 9.53172C70.7582 9.62703 70.8156 9.7115 70.8877 9.75179C70.9407 9.78182 71.0014 9.78918 71.0594 9.7853C71.006 9.72932 70.9527 9.67043 70.8908 9.62722Z" fill="#1C3A8C"/>
<path d="M71.2404 9.66153C71.2377 9.6594 71.2343 9.65766 71.2315 9.65553L71.2318 9.65572C71.1234 9.57474 71.0152 9.46452 70.8787 9.47381C70.9614 9.60438 71.0967 9.71868 71.2404 9.66153Z" fill="#1C3A8C"/>
<path d="M71.3176 9.59962C71.2409 9.49637 71.1323 9.42333 71.0132 9.42992C71.0811 9.54673 71.1988 9.60776 71.3176 9.59962Z" fill="#1C3A8C"/>
<path d="M70.708 6.74612C70.5989 6.90052 70.5209 7.08844 70.5188 7.29224C70.6692 7.17523 70.7508 6.95438 70.708 6.74612Z" fill="#1C3A8C"/>
<path d="M70.9974 6.71679C70.8126 6.85899 70.6889 7.08933 70.665 7.34814C70.8291 7.18425 70.977 6.9789 70.9974 6.71679Z" fill="#1C3A8C"/>
<path d="M66.9277 9.80954C66.8362 9.98176 66.7289 10.1424 66.6016 10.2799C66.7444 10.2406 66.8754 10.1429 66.9822 10.0261C67.1364 9.84712 67.2521 9.59179 67.2307 9.33123C67.2197 9.18439 67.151 9.04433 67.0465 8.96277C67.1002 9.11775 67.1053 9.29307 67.066 9.45328C66.8644 9.5391 66.5871 9.89556 66.4056 9.59606C66.3875 9.5083 66.3786 9.41415 66.3483 9.32852C66.3274 9.21926 66.1823 9.23611 66.1785 9.3477C66.1742 9.46529 66.1963 9.58579 66.2466 9.68788C66.2647 9.80141 66.3162 9.925 66.4215 9.94883C66.4984 9.96898 66.578 9.95484 66.6532 9.93256C66.6404 9.92771 66.6264 9.92365 66.6133 9.91861C66.79 9.9064 66.9249 9.74871 67.0265 9.5916C67.0024 9.66948 66.9654 9.73999 66.9277 9.80954Z" fill="#1C3A8C"/>
<path d="M67.2886 8.70812C67.5461 8.69185 67.7992 8.62443 68.0558 8.5946C68.3281 8.56418 68.5987 8.51691 68.859 8.41405C69.0097 8.38053 69.142 8.27611 69.25 8.15116C69.4621 7.91346 69.635 7.62733 69.7445 7.3071C69.3941 7.66762 69.1257 8.17344 68.6852 8.38828C68.2932 8.34857 67.9008 8.42644 67.5111 8.47178C67.3064 8.50122 67.1069 8.58104 66.9272 8.69998C67.047 8.712 67.1682 8.7151 67.2886 8.70812Z" fill="#1C3A8C"/>
<path d="M70.1857 13.8071C70.2028 13.7112 70.2372 13.6198 70.2686 13.5291C70.2969 13.466 70.3289 13.3112 70.4083 13.3897C70.4503 13.4249 70.4854 13.4704 70.5283 13.5041C70.5217 13.4766 70.5163 13.4482 70.5097 13.4205C70.4668 13.18 70.2546 13.1434 70.1681 13.3707C70.1207 13.5074 70.1194 13.6787 70.1857 13.8071Z" fill="#1C3A8C"/>
<path d="M67.599 15.4575C67.6615 14.9612 67.7787 14.2956 68.0842 13.9265C68.2116 13.7959 68.3809 13.7543 68.5361 13.6898C68.7357 13.6001 68.9297 13.4941 69.1269 13.3971C68.7375 13.6485 68.3072 13.8998 68.0941 14.3837C68.2547 14.2308 68.4311 14.1014 68.6008 13.9623C68.8697 13.751 69.167 13.5985 69.4543 13.4265C69.6123 13.3232 69.7557 13.1872 69.8708 13.0232C69.7789 13.0544 69.687 13.0894 69.5972 13.1289C69.7321 13.0261 69.8356 12.8786 69.951 12.749C69.6498 12.8259 69.3977 13.0606 69.119 13.2068C68.8991 13.3271 68.6813 13.4569 68.4515 13.5495C68.1354 13.6485 67.905 13.744 67.7606 14.1193C67.5909 14.5073 67.4974 14.9358 67.4489 15.3667C67.4073 15.5703 67.4086 15.8194 67.6274 15.8581C67.7428 15.8744 67.8562 15.8293 67.9664 15.7969C67.782 15.7313 67.5188 15.7919 67.599 15.4575Z" fill="#1C3A8C"/>
<path d="M71.1059 15.571C70.7644 15.5627 70.4449 15.7305 70.1238 15.845C69.7071 15.999 69.2393 16.0292 68.8319 15.8227C68.6801 15.7564 68.5246 15.691 68.3621 15.679C68.5014 15.8078 68.639 15.9465 68.8034 16.0298C69.1776 16.2016 69.5997 16.1563 69.9826 16.0478C70.3216 15.9478 70.642 15.7562 70.9938 15.7212C71.1817 15.6993 71.3733 15.7111 71.5594 15.6708C71.41 15.6282 71.2602 15.579 71.1059 15.571Z" fill="#1C3A8C"/>
<path d="M68.9238 14.5228C69.0599 14.3759 69.235 14.3045 69.4102 14.2494C69.4026 14.2659 69.3967 14.283 69.391 14.3C69.301 14.2632 69.2072 14.3969 69.3393 14.4236C69.3024 14.4614 69.2674 14.5022 69.2404 14.5507C69.1267 14.554 68.802 14.5753 68.794 14.7504C68.7558 14.7777 68.7199 14.8089 68.6857 14.8426C68.7546 14.726 68.8331 14.6169 68.9238 14.5228ZM71.2068 14.6845C71.2333 14.6712 71.2595 14.6568 71.2855 14.6419C71.2939 14.6483 71.3016 14.6547 71.3102 14.6601C71.276 14.6694 71.2414 14.677 71.2068 14.6845ZM69.1876 14.6964C69.1858 14.7057 69.1843 14.7148 69.1831 14.7241C69.1695 14.7272 69.1558 14.7303 69.1423 14.7339C69.1576 14.7219 69.1728 14.7093 69.1876 14.6964ZM70.8221 14.0859C70.7912 14.1028 70.7591 14.1169 70.7258 14.1255C70.7644 14.1084 70.8027 14.0912 70.8412 14.0739C70.8348 14.078 70.8285 14.0821 70.8221 14.0859ZM70.8736 14.3393C70.7927 14.3965 70.6928 14.342 70.6074 14.325C70.7181 14.3428 70.8308 14.3192 70.9279 14.2531C70.9102 14.282 70.8945 14.3132 70.8736 14.3393ZM69.2766 14.7202C69.2796 14.7163 69.2825 14.7124 69.2856 14.7086C69.2917 14.7105 69.2977 14.7126 69.3037 14.7148C69.2968 14.7177 69.2901 14.7208 69.2833 14.7239C69.2812 14.7225 69.2789 14.7214 69.2766 14.7202ZM68.3778 15.4926C68.4619 15.5207 68.5618 15.4362 68.6403 15.4042C68.5725 15.466 68.5621 15.5929 68.6676 15.5987C68.8176 15.536 68.9551 15.4314 69.0995 15.3513C69.153 15.3211 69.207 15.2926 69.2623 15.2671C69.1795 15.2586 69.0962 15.2649 69.0146 15.2812C69.0493 15.2431 69.0806 15.2012 69.105 15.1526C69.2021 15.1272 69.3003 15.1065 69.399 15.0916C69.6681 15.0598 69.957 15.1051 70.2006 14.937C70.9623 14.9207 71.9915 14.8694 72.4952 14.0939C72.6935 13.7432 72.7251 13.1624 72.3946 12.9073C72.251 12.6402 71.9533 12.5855 71.7076 12.5392C71.3187 12.4927 70.9274 12.4445 70.5363 12.4672C70.191 12.4985 69.8484 12.5135 69.5001 12.5015C68.7316 12.4739 67.957 12.1932 67.297 11.7481C66.9419 11.5001 66.7128 11.2709 66.4043 10.9844C66.4194 11.0499 66.4431 11.1159 66.4735 11.1777C66.4696 11.1921 66.4666 11.2074 66.4645 11.2229C66.3389 10.9575 66.2575 10.6706 66.1706 10.386C66.3078 10.5818 66.4768 10.4954 66.6208 10.3641C66.2933 10.4226 66.3235 10.3523 66.1856 10.0336C66.1153 9.84625 66.0403 9.66008 65.9897 9.46384C65.928 9.69592 65.9646 9.95415 66.0516 10.1709C66.0152 10.5435 66.141 10.9079 66.3159 11.2112C66.3373 11.2459 66.3602 11.2792 66.3843 11.3114C66.4281 11.3732 66.4841 11.4139 66.5043 11.4947C66.7205 11.9331 67.0928 12.1706 67.4735 12.3965C67.9723 12.6849 68.5335 12.843 69.0928 12.761C69.2932 12.7884 69.4979 12.7376 69.6944 12.682C69.9014 12.7612 70.1204 12.7233 70.3312 12.6901C70.5058 12.6653 70.6814 12.6483 70.8573 12.6485C70.8368 12.7428 70.8843 12.8362 70.9245 12.9145C70.8674 12.7905 70.7344 12.7281 70.6455 12.8463C70.5366 13.0144 70.638 13.2283 70.673 13.406C70.7318 13.2787 70.7081 13.1218 70.7545 12.9902C70.9495 13.1659 70.9235 13.151 71.1723 13.1146C71.0898 13.0522 70.9737 13.047 70.9317 12.9275C70.9605 12.971 70.9584 12.7035 70.9612 12.6735C71.0877 12.6357 71.2207 12.6789 71.3495 12.6808C71.6788 12.7211 72.1145 12.7087 72.3252 13.0609C72.3324 13.2787 72.2215 13.4606 72.1216 13.6318C71.9599 13.9032 71.9771 13.8393 71.73 13.8941C71.6668 13.9172 71.6168 13.9697 71.5707 14.0234C71.4445 14.1595 71.2607 14.0677 71.1101 14.1167C71.2452 14.0015 71.4107 13.9372 71.5207 13.7829C71.6433 13.7237 71.7705 13.638 71.8346 13.4958C71.8758 13.3717 71.9033 13.2256 71.8903 13.0946C71.8572 13.1514 71.8229 13.2155 71.79 13.2754C71.8016 13.2304 71.8666 13.0445 71.8085 13.0315C71.7935 13.0272 71.7769 13.0381 71.7723 13.0551C71.7724 13.0545 71.7726 13.054 71.7728 13.0534C71.5044 13.6721 70.9062 13.8825 70.3957 14.1231C70.1594 14.1315 69.9766 14.3453 69.8182 14.5286C69.8371 14.4329 69.8307 14.2428 69.7079 14.2928C69.6965 14.2095 69.61 14.1911 69.5608 14.2428C69.5509 14.2256 69.5368 14.212 69.5201 14.2041C69.7551 14.1001 69.9101 13.8442 70.0141 13.5861C69.8391 13.7215 69.6812 13.8905 69.4968 14.0092C69.3975 14.0642 69.2906 14.0943 69.1881 14.139C68.7964 14.3052 68.5292 14.7208 68.3459 15.1437C68.2661 15.3335 68.2136 15.5687 68.0362 15.6646C68.1658 15.688 68.2917 15.6051 68.3715 15.4885C68.3735 15.4901 68.3756 15.4914 68.3778 15.4926Z" fill="#1C3A8C"/>
<path d="M74.0846 18.2275C73.8369 17.5295 73.361 16.9844 72.9129 16.4579C72.6509 16.1785 72.057 15.4912 71.6855 15.6607C71.6335 15.6872 71.5932 15.7457 71.5874 15.8126C71.6244 15.7595 71.6838 15.7382 71.7403 15.7521C72.1969 15.936 72.5805 16.3157 72.9305 16.6971C73.3646 17.1543 73.7077 17.7087 74.0846 18.2275Z" fill="#1C3A8C"/>
<path d="M73.3424 17.9837C73.267 17.6565 73.1304 17.3314 72.9045 17.1131C72.8604 17.071 72.8125 17.0334 72.762 17.0036C72.8579 17.2097 72.9468 17.4205 73.0473 17.6239C73.1653 17.8858 73.2802 18.1522 73.3738 18.4275C73.3861 18.2789 73.3718 18.1284 73.3424 17.9837Z" fill="#1C3A8C"/>
<path d="M73.3603 18.749C73.387 18.657 73.381 18.5565 73.3605 18.4639C73.2991 18.5543 73.2678 18.6725 73.2823 18.7878C73.2856 18.8234 73.2915 18.8593 73.2993 18.8936C73.3244 18.8484 73.3455 18.8002 73.3603 18.749Z" fill="#1C3A8C"/>
<path d="M74.0577 16.4563C73.9552 16.1331 73.7765 15.7716 73.4671 15.6971C73.4237 15.6879 73.3791 15.6848 73.3354 15.692C73.3884 15.7236 73.4378 15.7633 73.4837 15.8079C73.5502 15.8743 73.6086 15.951 73.6637 16.0305C73.8559 16.3015 73.9917 16.6196 74.1518 16.9167C74.1332 16.7608 74.1013 16.6054 74.0577 16.4563Z" fill="#1C3A8C"/>
<path d="M74.2532 16.4947C74.1999 16.3775 74.128 16.2729 74.0482 16.1791C74.047 16.2806 74.0617 16.3837 74.0881 16.4805C74.1321 16.6624 74.2384 16.8077 74.3304 16.9583C74.3304 16.9583 74.3302 16.9579 74.33 16.9575C74.3505 16.8502 74.3098 16.6239 74.2532 16.4947Z" fill="#1C3A8C"/>
<path d="M74.5138 16.8605C74.4646 16.7468 74.3862 16.6478 74.2891 16.5899C74.3253 16.7299 74.3587 16.8725 74.4123 17.0052C74.4577 17.1114 74.5138 17.2111 74.5634 17.3142C74.5741 17.1617 74.5731 17.0002 74.5138 16.8605Z" fill="#1C3A8C"/>
<path d="M72.6532 14.5549C72.5095 14.5779 72.3741 14.6651 72.2847 14.8001C72.2655 14.8286 72.248 14.8594 72.2334 14.891C72.2854 14.8666 72.3379 14.8439 72.3914 14.824C72.5724 14.7579 72.7623 14.736 72.9497 14.7087C73.0223 14.6973 73.096 14.6926 73.1679 14.6761C73.1218 14.6488 73.0712 14.6302 73.0221 14.6107C72.9035 14.5659 72.7779 14.5367 72.6532 14.5549Z" fill="#1C3A8C"/>
<path d="M71.7892 15.0687C71.6682 15.0881 71.5535 15.1563 71.4648 15.2543C71.5907 15.2603 71.7181 15.2601 71.8437 15.2439C71.9518 15.2264 72.0589 15.1972 72.1682 15.1902C72.0596 15.0999 71.9223 15.0503 71.7892 15.0687Z" fill="#1C3A8C"/>
</g>
</g>
</g>
<defs>
<clipPath id="clip0_2524_566266">
<rect width="117" height="24.7" rx="2" fill="white"/>
</clipPath>
</defs>
</svg>
