<svg width="280" height="49" viewBox="0 0 280 49" fill="none" xmlns="http://www.w3.org/2000/svg">
<g clip-path="url(#clip0_2596_216590)">
<mask id="mask0_2596_216590" style="mask-type:alpha" maskUnits="userSpaceOnUse" x="0" y="0" width="280" height="49">
<rect width="280" height="48.3951" fill="#D9D9D9"/>
</mask>
<g mask="url(#mask0_2596_216590)">
<mask id="mask1_2596_216590" style="mask-type:luminance" maskUnits="userSpaceOnUse" x="-408" y="-83" width="738" height="415">
<path d="M-407.901 -82.9622H329.547V331.853H-407.901V-82.9622Z" fill="white"/>
</mask>
<g mask="url(#mask1_2596_216590)">
<path d="M28.7502 8.67344C28.7959 9.49231 28.3408 10.4475 27.7493 11.039C27.1128 11.6759 26.3393 11.9032 25.4294 11.9943C23.5639 12.2216 21.6987 12.358 19.7879 12.4947V12.54C19.6062 21.8665 19.4695 31.1929 19.2878 40.5189C19.2421 42.3841 17.8317 43.7944 15.9666 43.8401C14.2378 43.9312 12.6458 42.293 12.6911 40.5189C12.8275 31.3292 12.9642 22.1849 13.1916 12.9499C10.917 13.0862 8.68777 13.1315 6.45853 13.1773C4.5934 13.2226 3.22835 11.6305 3.13732 9.90175C3.04629 8.03624 4.72975 6.58054 6.45853 6.53484C12.7821 6.44419 19.1058 6.03475 25.4294 5.39794C27.2945 5.21588 28.7049 7.03569 28.7502 8.67344Z" fill="#A167C9"/>
<path d="M34.4801 10.5844C34.4344 8.76461 36.0721 7.26359 37.7556 7.26359C39.6207 7.26359 40.9857 8.76461 41.0311 10.5844C41.1221 12.3585 39.4843 13.8599 37.7556 13.8599C35.9358 13.8599 34.5707 12.3585 34.4801 10.5844ZM37.0277 39.7006C35.2536 39.7916 33.6612 38.1081 33.7065 36.3794C33.8882 31.0114 34.1159 25.5976 34.2523 20.1835C34.298 18.3184 35.7084 16.9537 37.5282 16.908C39.257 16.817 40.849 18.4548 40.8037 20.1835C40.6216 25.5976 40.4849 31.0114 40.3032 36.3794C40.2575 38.2445 38.8475 39.5642 37.0277 39.7006Z" fill="#A167C9"/>
<path d="M47.4449 38.926C46.3076 31.9656 45.5797 24.9595 45.3977 17.8623C45.352 15.9061 47.5812 13.9043 49.5831 14.6778C52.7222 15.9972 55.0878 18.2717 58.0906 21.2745C61.1837 24.2316 64.5053 26.9156 68.0992 29.8727C68.2355 27.6892 68.3723 25.5509 68.4629 23.0033C68.645 19.5914 68.736 16.1335 68.827 12.6763C68.827 10.8565 70.2827 9.49185 72.0568 9.40082C73.8766 9.35512 75.4233 10.9929 75.378 12.6763C75.3323 16.8617 75.1049 21.0471 74.9233 25.2325C74.8322 27.0523 74.7412 28.8722 74.6048 30.7826C74.5138 32.7845 74.4681 34.968 72.9214 36.4694C70.9195 38.4713 68.0992 37.8798 66.0063 36.4237C61.2294 33.0576 56.6345 29.1906 52.3128 24.7774C52.6765 28.8722 53.0406 32.9208 53.8142 37.1973C54.1326 39.0171 53.359 40.6095 51.4939 41.2463C49.9472 41.7468 47.7633 40.6095 47.4449 38.926Z" fill="#A167C9"/>
<path d="M96.6194 25.0051C97.0288 23.1853 96.7104 21.2744 95.027 20.0008C92.7977 18.3627 88.9307 17.6805 86.9746 17.8173C87.1566 22.7758 87.1113 27.7348 86.8382 32.7387C90.9783 31.8292 95.4821 29.6456 96.6194 25.0051ZM83.517 11.1748C89.6133 11.1748 98.8487 11.812 102.078 18.4537C103.58 21.4565 103.717 25.0051 102.488 28.2349C101.169 31.6471 98.8029 34.2858 95.6638 36.1966C92.7977 37.9254 89.5222 38.9717 86.2467 39.6542C83.8808 40.1089 79.7411 39.6542 80.1505 35.5141C80.5599 29.1905 80.651 22.8669 80.3779 16.5886C79.241 14.4503 80.924 11.2659 83.517 11.1748Z" fill="#A167C9"/>
<path d="M116.771 34.876C116.817 34.9214 116.908 34.9214 116.862 34.9214C116.862 34.9214 116.817 34.9214 116.771 34.876ZM116.453 34.8303C116.498 34.8303 116.544 34.876 116.589 34.876C116.589 34.876 116.544 34.8303 116.453 34.8303ZM116.362 34.694C116.27 34.694 116.225 34.6483 116.225 34.6483C116.225 34.6483 116.27 34.6483 116.362 34.694ZM115.725 32.5101C115.861 32.8285 115.815 33.0105 115.77 32.8285C115.77 32.7374 115.725 32.6011 115.725 32.5101ZM108.81 28.3247C108.628 24.5034 108.719 20.7274 109.174 16.9057C109.356 14.9496 109.401 12.584 110.538 10.8552C111.767 8.85332 114.041 7.98912 116.362 8.2165C118.272 8.35285 120.137 8.808 122.003 9.21744C123.913 9.58155 125.733 9.94528 127.599 10.2637C129.373 10.6731 130.237 12.7203 129.919 14.3581C129.51 16.1322 127.508 16.9514 125.87 16.633C124.004 16.2689 122.185 15.9048 120.274 15.5411C119.41 15.359 118.545 15.2226 117.635 15.0406C115.725 14.7222 115.952 14.4948 115.725 16.633C115.634 17.4066 115.588 18.2704 115.497 19.0439C115.406 20.4543 115.315 21.91 115.315 23.3661C116.771 23.2297 118.181 23.1387 119.637 23.093C121.457 23.002 122.822 24.6397 122.913 26.3685C123.004 28.1883 121.32 29.5987 119.637 29.6897C118.272 29.7354 116.862 29.7807 115.497 29.9171C115.543 30.4175 115.588 30.9633 115.634 31.4185C115.634 31.7826 115.679 32.1006 115.725 32.5101V32.7374C115.725 32.7831 115.77 32.8285 115.77 32.8285V32.8742C115.861 33.4203 116.043 34.0115 116.179 34.5119C116.225 34.6029 116.27 34.6483 116.362 34.7393C116.407 34.7393 116.407 34.785 116.453 34.785V34.8303C116.498 34.8303 116.589 34.876 116.68 34.876H117.59C117.635 34.876 118.09 34.785 118.09 34.785C119.683 34.5119 121.275 34.1935 122.867 33.8298C124.641 33.4203 126.279 34.3299 126.916 36.1043C127.417 37.7421 126.279 39.835 124.596 40.153C120.411 41.0176 115.042 42.9284 111.585 39.2888C110.311 37.9242 109.674 36.1043 109.401 34.3299C109.128 32.2827 108.901 30.3265 108.81 28.3247Z" fill="#A167C9"/>
<path d="M145.748 16.5432C144.52 15.815 142.882 15.5422 141.153 15.2692H141.108C141.29 19.2729 141.472 23.2309 141.608 27.2343C143.2 26.7338 144.748 25.8692 145.884 24.5956C147.795 22.5027 148.842 18.3626 145.748 16.5432ZM141.881 38.0613C141.927 39.9268 140.334 41.2919 138.606 41.3372C136.831 41.4282 135.375 39.7905 135.33 38.0613C135.193 29.1447 134.784 20.2281 134.284 11.3115C134.193 9.49171 135.876 8.12667 137.559 8.03564C138.424 7.99032 139.106 8.30873 139.652 8.76349C142.063 8.58181 144.884 8.99125 147.34 9.9918C151.662 11.7206 154.574 15.9517 154.392 20.6376C154.256 24.823 151.753 28.4622 148.341 31.0556C149.251 31.3286 150.161 31.556 151.116 31.7834C152.891 32.2839 153.755 34.149 153.391 35.8324C153.027 37.6069 151.071 38.5618 149.342 38.1523C146.84 37.4702 144.338 36.7424 141.836 35.7871C141.836 36.5146 141.881 37.2881 141.881 38.0613Z" fill="#A167C9"/>
<path d="M186.085 25.7569C186.528 34.3628 177.027 42.5051 174.097 41.175C171.713 40.0926 173.095 32.4662 170.004 31.3781C168.871 30.9794 167.687 31.0762 167.687 31.0762C166.335 31.1868 166.158 31.7234 164.763 31.8136C163.667 31.8847 162.77 31.6181 162.115 31.4253C161.174 31.148 160.704 31.0093 160.59 30.7631C159.958 29.3958 165.677 25.8111 165.233 25.0541C165.084 24.7994 164.406 25.1505 163.25 25.2077C161.102 25.3137 158.873 24.3278 157.484 22.7749C157.18 22.4354 155.292 20.3248 156.007 18.6705C156.488 17.5582 157.934 17.1449 158.64 16.9429C160.361 16.4509 161.053 17.0624 162.299 16.5381C163.294 16.1194 163.379 15.4665 164.503 14.1997C165.035 13.599 166.391 12.0711 168.174 11.3022C170.502 10.2978 172.919 10.8643 175.454 11.4589C176.89 11.7957 177.696 11.8825 178.481 12.4149C178.99 12.7594 179.202 13.0386 180.559 14.4521C181.613 15.5502 182.118 16.0414 182.319 16.2535C183.672 17.6846 185.886 21.8942 186.085 25.7569Z" fill="#EDB506"/>
<path d="M244.666 41.9644C241.481 43.3748 238.16 43.3748 235.021 41.9191C229.834 39.5531 226.923 33.6846 226.741 28.2256C226.559 22.6298 229.198 17.3068 233.838 14.168C238.205 11.2105 244.12 10.7104 249.079 12.9393C250.762 13.6675 251.034 15.9878 250.307 17.3978C249.943 18.126 249.079 18.7171 248.35 18.9445C247.395 19.1719 246.622 19.0812 245.803 18.5808C244.848 17.9893 243.301 17.8072 241.617 18.035C234.748 19.0355 231.336 27.0426 234.884 33.1385C237.068 37.0055 242.072 38.0521 244.392 33.4116C244.711 32.7747 244.893 31.9559 244.938 31.137C244.938 28.4987 242.527 29.9997 240.707 29.8176C238.842 29.6813 237.478 28.453 237.386 26.4968C237.295 25.2681 238.205 24.2219 239.434 23.6761C242.846 22.1747 248.032 22.7209 250.261 26.1327C251.945 28.7714 251.854 32.411 250.762 35.2314C249.625 38.1431 247.577 40.6908 244.666 41.9644Z" fill="#A167C9"/>
<path d="M256.491 34.9146C256.946 33.1401 258.902 32.2302 260.54 32.6397C262.268 33.0948 265.408 33.8684 266.818 32.276C268.001 30.7746 266.272 29.4099 265.18 28.591C262.405 26.5434 258.356 24.0868 257.264 20.857C254.489 12.7136 264.634 7.34558 271.367 7.52726C273.187 7.57296 274.551 9.07398 274.643 10.8485C274.689 12.6226 273.05 13.9872 271.367 14.124C266.272 14.5334 260.175 17.5362 265.635 20.7203C268.046 22.4491 272.596 25.2698 273.869 28.6817C274.597 30.5472 274.369 32.5487 273.551 34.3231C271.049 39.7369 264.543 40.2826 258.811 38.9633C257.037 38.5539 256.127 36.5524 256.491 34.9146Z" fill="#A167C9"/>
<path d="M215.135 26.7483C214.207 31.0912 211.354 39.9241 207.448 41.0445C203.538 42.166 196.261 36.2226 196.469 30.0657C196.545 27.8196 200.221 24.9105 207.448 19.0869C208.913 17.9063 210.937 16.3384 213.681 16.1936C215.024 16.1229 216.402 16.3999 217.594 16.6395C219.412 17.0048 220.404 17.2041 221.439 17.9101C223.142 19.0712 224.429 21.2371 223.911 21.9273C223.229 22.8379 220.108 20.2477 217.685 21.4514C215.915 22.3306 215.573 24.6988 215.135 26.7483Z" fill="#EDB506"/>
<path fill-rule="evenodd" clip-rule="evenodd" d="M210.448 41.3755C216.933 38.4599 218.243 31.3205 218.455 30.164C219.168 26.2809 218.268 23.0695 217.685 21.4525C218.084 21.446 218.648 21.4537 219.319 21.5221C222.169 21.8132 223.341 22.8318 223.972 22.2987C224.576 21.7878 224.362 20.1593 223.731 19.3746C220.263 15.0652 214.633 14.7321 209.999 17.2418C209.388 16.9376 208.484 16.56 207.345 16.3422C202.361 15.3897 198.294 18.535 197.727 18.9875C192.995 22.763 192.843 28.5904 192.857 29.9889C192.894 33.5571 194.312 36.1005 194.601 36.6017C195.027 37.3438 196.181 39.303 198.388 40.7499C202.032 43.1389 206.847 42.9949 210.448 41.3755ZM212.275 29.3878C212.178 30.0077 211.55 33.4929 208.427 34.9786C206.469 35.9104 203.717 35.9672 201.754 34.3775C200.141 33.0708 199.787 31.2391 199.703 30.7632C199.262 28.2874 200.509 26.3393 201.213 25.2396C202.457 23.2962 204.049 22.3052 204.76 21.8731C206.255 20.9655 206.96 21.3561 208.367 20.4305C209.87 19.4418 209.916 18.5918 210.892 17.725C213.884 15.0675 220.764 16.5669 223.088 19.8928C223.307 20.2058 223.761 20.8714 223.528 21.2797C223.023 22.1646 220.135 20.3602 216.784 21.1518C216.616 21.1914 213.013 22.0924 212.06 24.7476C211.447 26.458 212.633 27.1028 212.275 29.3878Z" fill="#A167C9"/>
<path d="M165.234 25.0536C164.748 25.5587 163.954 26.2512 162.812 26.6982C161.762 27.1092 161.197 27.0101 160.587 27.481C160.08 27.8724 159.526 28.6767 159.516 30.5303C159.639 30.8314 159.763 31.1329 159.886 31.434C160.06 31.4498 160.318 31.4459 160.563 31.3092C160.826 31.1625 160.949 30.932 161.003 30.8399C161.171 30.5518 161.921 30.0732 163.413 29.1276C163.882 28.8307 164.18 28.6475 164.523 28.722C164.7 28.7612 164.826 28.856 165.027 28.8153C165.277 28.7642 165.389 28.5545 165.537 28.3978C165.934 27.9757 166.554 27.9803 166.881 27.9346C168.256 27.7418 170.311 25.6247 169.995 24.991C169.868 24.7363 169.006 24.7816 167.289 24.8834C166.419 24.9353 165.707 25.0033 165.234 25.0536Z" fill="#EA86B4"/>
<path d="M180.75 6.44622C176.428 4.53192 171.74 4.17165 167.103 4.4432C166.657 4.46932 165.934 4.5012 165.346 5.00051C163.353 6.6928 165.214 11.6767 165.557 12.5693C166.214 12.0816 167.173 11.4709 168.428 10.9857C168.428 10.9857 169.758 10.4722 171.145 10.2836C173.362 9.98213 177.019 10.4019 179.566 12.4291C185.24 16.9441 182.929 25.8419 182.685 26.726C180.66 34.0736 173.973 37.1825 172.921 37.651C172.918 37.2408 172.883 36.7573 172.782 36.223C172.635 35.4395 172.391 34.7942 172.164 34.3091C172.068 33.8943 171.844 33.1868 171.275 32.5012C171.031 32.207 170.474 31.5521 169.524 31.2445C168.926 31.0513 168.397 31.0674 167.999 31.0797C167.507 31.095 167.098 31.1715 166.804 31.2445C166.551 34.606 166.404 37.1871 166.37 38.4192C166.36 38.7564 166.351 39.288 166.407 39.9717C166.451 40.5175 166.536 41.1462 166.692 41.8399C167.419 45.0682 168.24 45.7507 172.151 45.024C179.973 42.7494 186.208 36.4254 188.71 28.7805C191.44 20.5922 189.209 10.2245 180.75 6.44622Z" fill="#A167C9"/>
<path d="M177.654 18.7556C177.482 19.0402 177.356 19.354 177.367 19.6924C177.656 19.4735 177.74 19.0955 177.654 18.7556Z" fill="#A167C9"/>
<path d="M178.11 18.7224C178.104 18.631 178.019 18.8979 178.002 18.9325C177.899 19.209 177.93 19.5186 178.048 19.7852C178.219 19.4537 178.218 19.0731 178.11 18.7224Z" fill="#A167C9"/>
<path d="M178.831 19.5846C178.786 19.4371 178.715 19.2996 178.65 19.1613C178.582 19.4375 178.562 19.7356 178.693 19.9967C178.735 20.0916 178.791 20.1819 178.854 20.2637C178.894 20.0401 178.901 19.8028 178.831 19.5846Z" fill="#A167C9"/>
<path d="M179.107 19.2124C179.079 19.1697 179.067 19.0768 179.057 19.1797C179.057 19.1782 179.058 19.177 179.058 19.1755C179.056 19.1866 179.054 19.1978 179.052 19.2089C179.052 19.2081 179.052 19.2074 179.052 19.2074C178.965 19.5776 179.014 19.9682 179.215 20.2939C179.341 19.9352 179.286 19.5431 179.107 19.2124Z" fill="#A167C9"/>
<path d="M163.82 15.2211C163.871 15.2465 163.931 15.157 163.941 15.1305C164.249 14.7644 164.303 14.2528 164.157 13.8073C163.997 14.254 163.82 14.7003 163.798 15.1812C163.799 15.1792 163.799 15.1777 163.799 15.1758C163.798 15.1942 163.803 15.2111 163.82 15.2211Z" fill="#A167C9"/>
<path d="M164.503 14.2002C164.552 14.0227 164.706 13.9002 164.804 13.7504C164.977 13.5154 165.002 13.2139 165.039 12.9346C164.842 13.2707 164.305 13.79 164.503 14.2002Z" fill="#A167C9"/>
<path d="M170.014 11.1364C170.219 11.0937 170.399 10.9735 170.532 10.8137C170.558 10.7696 170.751 10.5867 170.627 10.6489L170.625 10.6493H170.625C170.417 10.71 170.201 10.7669 170.023 10.8971C169.913 10.9716 169.812 11.0584 169.716 11.151C169.814 11.1648 169.917 11.1582 170.014 11.1364Z" fill="#A167C9"/>
<path d="M170.518 10.9259C170.437 10.9793 170.363 11.0504 170.308 11.1299C170.467 11.1241 170.629 11.1007 170.777 11.0389C170.917 10.977 171.037 10.8795 171.155 10.7838C170.936 10.7823 170.702 10.7903 170.518 10.9259Z" fill="#A167C9"/>
<path d="M170.785 11.1018C171.151 11.1997 171.499 11.0246 171.805 10.8394C171.443 10.7588 171.064 10.8579 170.785 11.1018Z" fill="#A167C9"/>
<path d="M171.494 11.1126C171.525 11.1099 171.556 11.1084 171.588 11.1072C171.587 11.1072 171.586 11.1076 171.584 11.1076C171.587 11.1072 171.589 11.1072 171.591 11.1072C171.59 11.1072 171.589 11.1072 171.588 11.1072C172.341 11.1192 173.098 11.2302 173.851 11.1311C174.167 11.0842 174.482 10.9978 174.767 10.8499C174.458 10.8718 174.146 10.8726 173.836 10.8664C173.064 10.9156 172.169 10.6283 171.494 11.1126Z" fill="#A167C9"/>
<path d="M174.643 11.0114C174.473 11.0326 174.299 11.0936 174.177 11.2165C174.338 11.2196 174.499 11.2496 174.658 11.2799C175.009 11.3556 175.458 11.3767 175.767 11.2653H175.768C175.401 11.1505 175.04 10.95 174.643 11.0114Z" fill="#A167C9"/>
<path d="M175.289 11.5057C175.18 11.5 175.068 11.5061 174.964 11.5387C175.114 11.639 175.271 11.74 175.444 11.7953C175.992 12.1944 176.504 12.4202 177.223 12.2808C177.536 12.2351 177.86 12.1844 178.17 12.2777C178.501 12.3741 178.768 12.6034 179.047 12.7939C178.47 11.6728 177.884 11.8852 176.821 11.9528C176.509 11.9532 176.204 11.8833 175.898 11.8307C175.938 11.8237 176.132 11.783 176.097 11.7631L176.098 11.7634C175.829 11.6747 175.581 11.5096 175.289 11.5057Z" fill="#A167C9"/>
<path d="M173.127 21.5619C173.123 20.6124 173.363 19.6845 173.603 18.7726C173.715 18.3263 173.857 17.8881 174.022 17.4587C174.492 16.0529 175.562 14.5289 175.166 13.0063C175.08 13.2656 175.001 13.5287 174.928 13.7926C174.656 15.1234 174.134 16.3736 173.676 17.6461C173.26 19.0469 172.805 20.4941 172.863 21.9702C172.892 22.4787 173.085 23.0057 173.495 23.3271C173.24 22.7791 173.142 22.1637 173.127 21.5619Z" fill="#A167C9"/>
<path d="M174.412 13.3703C174.456 13.509 174.508 13.6461 174.555 13.7832C174.632 13.4905 174.706 13.1694 174.589 12.8771C174.514 12.6813 174.371 12.4988 174.172 12.4224C174.289 12.7285 174.302 13.0619 174.412 13.3703Z" fill="#A167C9"/>
<path d="M170.612 17.0929C170.423 16.9738 170.184 16.9469 169.979 17.0399C170.164 17.1739 170.406 17.172 170.612 17.0929Z" fill="#A167C9"/>
<path d="M179.005 12.8847C179.229 14.3281 180.764 14.9185 181.767 15.765C182.229 16.1349 182.621 16.3592 182.447 17.0267C182.416 17.2315 182.392 17.445 182.454 17.6463C182.485 17.7473 182.539 17.8406 182.607 17.9209C182.595 17.8468 182.589 17.7707 182.592 17.6951C182.608 17.4396 182.736 17.2115 182.81 16.9703C183.025 16.36 182.541 15.8883 182.091 15.5568C181.555 15.1194 180.975 14.7391 180.445 14.294C179.938 13.8534 179.475 13.3645 179.005 12.8847Z" fill="#A167C9"/>
<path d="M182.614 18.4669C182.645 18.4231 182.561 18.2591 182.572 18.3517C182.564 18.5591 182.148 18.4128 182.005 18.4911C180.973 18.8568 180.258 19.7621 179.408 20.4131C178.725 20.9458 177.988 21.4056 177.267 21.8834C176.47 22.3504 175.374 23.1555 174.439 23.104C174.152 23.0856 173.874 23.003 173.606 22.9062C174.114 23.5492 174.893 23.5741 175.582 23.2166C176.402 22.829 177.175 22.3516 177.932 21.8542C178.412 21.5323 178.901 21.2224 179.372 20.8874C180.026 20.4062 180.606 19.8331 181.261 19.3546C181.555 19.1445 181.86 18.949 182.161 18.7488C182.316 18.6678 182.543 18.649 182.614 18.4669Z" fill="#A167C9"/>
<path d="M167.509 15.7416L167.515 15.7396C167.096 15.9294 166.902 15.7435 167.118 15.329C167.102 15.3325 167.086 15.3375 167.07 15.3436C167.105 15.3045 167.158 15.3168 167.202 15.3363C167.201 15.3302 167.199 15.3244 167.196 15.3187C167.343 15.4496 167.456 15.5802 167.588 15.7154C167.562 15.7208 167.535 15.7308 167.509 15.7416ZM168.577 16.4375C168.628 16.401 168.673 16.3649 168.713 16.3277C168.846 16.3327 168.982 16.3077 169.103 16.2555C168.749 16.1975 168.462 15.9344 168.174 15.7047C167.881 15.4877 167.526 15.278 167.169 15.2707C166.939 15.0679 166.663 15.4358 166.655 15.6647C166.578 15.7531 166.56 15.8925 166.586 16.0039C165.416 16.0135 166.086 16.7018 166.826 16.4195C166.806 16.4122 166.786 16.4049 166.766 16.398C166.786 16.4049 166.806 16.4122 166.826 16.4191C166.676 16.3661 166.516 16.3058 166.378 16.2389C166.463 16.1898 166.543 16.1352 166.612 16.0822C166.657 16.189 166.758 16.2739 166.869 16.3158C166.826 16.3411 166.856 16.3826 166.863 16.4172C166.873 16.406 166.875 16.3934 166.879 16.3803C167.325 16.8101 168.084 16.807 168.577 16.4375Z" fill="#A167C9"/>
<path d="M167.102 14.6867C167.573 15.4203 168.389 15.9399 169.268 15.9795C168.535 15.5678 167.902 14.9763 167.102 14.6867Z" fill="#A167C9"/>
<path d="M166.386 15.4007C166.334 15.542 166.339 15.7033 166.395 15.8428C166.529 15.5839 166.662 15.3239 166.782 15.0577C166.602 15.0869 166.45 15.2321 166.386 15.4007Z" fill="#A167C9"/>
<path d="M168.722 16.5213C168.921 16.519 169.091 16.6388 169.276 16.6934C169.416 16.7383 169.56 16.7767 169.706 16.7979C169.585 16.6362 169.438 16.4791 169.244 16.4065C169.062 16.3416 168.812 16.3492 168.692 16.5228C168.702 16.5228 168.712 16.5213 168.722 16.5213Z" fill="#A167C9"/>
<path d="M165.077 13.458C165.449 13.4384 165.521 12.9913 165.626 12.7117C165.32 12.875 165.265 13.206 165.077 13.458Z" fill="#A167C9"/>
<path d="M165.53 13.0602C165.522 13.0944 165.515 13.1301 165.515 13.165C165.591 13.1147 165.666 13.0613 165.731 12.998C165.828 12.905 165.89 12.7856 165.943 12.6638C165.761 12.7356 165.576 12.8566 165.53 13.0602Z" fill="#A167C9"/>
<path d="M165.912 12.9385C166.577 12.5939 167.137 12.0831 167.801 11.7367C167.952 11.6564 168.109 11.5838 168.272 11.5312C168.621 11.4298 169.01 11.434 169.321 11.2254C169.419 11.1621 169.51 11.0826 169.59 10.9988C169.156 11.2596 168.641 11.1632 168.174 11.3011C167.307 11.631 166.356 12.0774 165.912 12.9385Z" fill="#A167C9"/>
<path d="M167.447 18.9945C167.339 18.9311 167.227 18.8724 167.122 18.8051C167.137 18.9941 167.271 19.1616 167.44 19.2415C167.564 19.301 167.705 19.3156 167.841 19.3075C167.716 19.1969 167.591 19.0801 167.447 18.9945Z" fill="#A167C9"/>
<path d="M168.263 19.0609C168.257 19.0567 168.248 19.0532 168.242 19.049L168.243 19.0494C167.99 18.8888 167.737 18.6703 167.418 18.6887C167.612 18.9476 167.927 19.1742 168.263 19.0609Z" fill="#A167C9"/>
<path d="M168.443 18.939C168.264 18.7343 168.011 18.5895 167.732 18.6025C167.891 18.8341 168.166 18.9551 168.443 18.939Z" fill="#A167C9"/>
<path d="M167.021 13.2805C166.766 13.5867 166.584 13.9592 166.579 14.3633C166.93 14.1313 167.121 13.6934 167.021 13.2805Z" fill="#A167C9"/>
<path d="M167.695 13.2238C167.264 13.5058 166.975 13.9624 166.919 14.4756C167.302 14.1506 167.648 13.7431 167.695 13.2238Z" fill="#A167C9"/>
<path d="M158.197 19.3549C157.983 19.6964 157.733 20.0148 157.435 20.2871C157.769 20.2095 158.075 20.0159 158.324 19.7843C158.684 19.4294 158.954 18.9232 158.904 18.4066C158.878 18.1155 158.718 17.8378 158.474 17.6761C158.599 17.9834 158.611 18.331 158.519 18.6486C158.049 18.8187 157.402 19.5255 156.978 18.9317C156.936 18.7577 156.915 18.571 156.844 18.4012C156.796 18.1846 156.457 18.218 156.448 18.4393C156.438 18.6724 156.489 18.9113 156.607 19.1137C156.649 19.3388 156.769 19.5838 157.016 19.6311C157.195 19.671 157.381 19.643 157.556 19.5988C157.526 19.5892 157.493 19.5812 157.463 19.5712C157.875 19.547 158.19 19.2343 158.427 18.9228C158.371 19.0772 158.285 19.217 158.197 19.3549Z" fill="#A167C9"/>
<path d="M162.447 16.4761C162.444 16.4772 162.441 16.4784 162.439 16.4795C162.442 16.4784 162.444 16.4772 162.447 16.4761ZM159.039 17.1724C159.64 17.1401 160.231 17.0065 160.829 16.9473C161.465 16.887 162.096 16.7933 162.704 16.5894C163.056 16.5229 163.365 16.3159 163.617 16.0682C164.112 15.5969 164.515 15.0296 164.771 14.3947C163.953 15.1095 163.327 16.1123 162.299 16.5383C161.384 16.4595 160.468 16.6139 159.558 16.7038C159.08 16.7622 158.615 16.9204 158.195 17.1563C158.475 17.1801 158.758 17.1862 159.039 17.1724Z" fill="#A167C9"/>
<path d="M165.801 27.2812C165.841 27.0911 165.921 26.9098 165.995 26.7301C166.061 26.6049 166.135 26.298 166.321 26.4535C166.419 26.5234 166.501 26.6137 166.601 26.6805C166.586 26.626 166.573 26.5695 166.558 26.5146C166.457 26.038 165.962 25.9654 165.76 26.4159C165.65 26.6871 165.646 27.0266 165.801 27.2812Z" fill="#A167C9"/>
<path d="M159.763 30.5524C159.909 29.5684 160.183 28.2487 160.896 27.517C161.193 27.2581 161.589 27.1755 161.951 27.0476C162.417 26.8698 162.87 26.6597 163.33 26.4673C162.421 26.9658 161.417 27.464 160.919 28.4234C161.294 28.1204 161.706 27.8638 162.102 27.588C162.729 27.169 163.423 26.8667 164.094 26.5256C164.463 26.3209 164.797 26.0513 165.066 25.726C164.851 25.7878 164.637 25.8573 164.427 25.9357C164.743 25.7317 164.984 25.4394 165.253 25.1825C164.55 25.335 163.962 25.8001 163.311 26.0901C162.798 26.3286 162.29 26.5859 161.753 26.7695C161.016 26.9658 160.478 27.1552 160.141 27.8991C159.745 28.6685 159.526 29.5181 159.413 30.3723C159.316 30.776 159.319 31.2699 159.83 31.3467C160.099 31.379 160.364 31.2895 160.621 31.2253C160.191 31.0951 159.576 31.2154 159.763 30.5524Z" fill="#A167C9"/>
<path d="M167.949 30.7788C167.152 30.7622 166.406 31.0949 165.657 31.3219C164.684 31.6272 163.592 31.6871 162.641 31.2777C162.287 31.1463 161.924 31.0165 161.545 30.9927C161.87 31.2481 162.191 31.5231 162.575 31.6883C163.448 32.029 164.434 31.9391 165.327 31.724C166.119 31.5258 166.867 31.1459 167.688 31.0764C168.126 31.033 168.573 31.0564 169.008 30.9766C168.659 30.8921 168.309 30.7945 167.949 30.7788Z" fill="#A167C9"/>
<path d="M162.856 28.7C163.174 28.4088 163.582 28.2671 163.991 28.158C163.973 28.1907 163.959 28.2245 163.946 28.2583C163.736 28.1853 163.517 28.4503 163.825 28.5033C163.739 28.5782 163.658 28.6593 163.595 28.7553C163.329 28.7618 162.571 28.8041 162.553 29.1513C162.463 29.2054 162.38 29.2673 162.3 29.3341C162.461 29.1029 162.644 28.8866 162.856 28.7ZM168.184 29.0207C168.246 28.9942 168.307 28.9658 168.368 28.9362C168.388 28.9489 168.406 28.9615 168.426 28.9723C168.346 28.9907 168.265 29.0057 168.184 29.0207ZM163.471 29.0441C163.467 29.0626 163.464 29.0806 163.461 29.099C163.429 29.1052 163.397 29.1113 163.366 29.1186C163.401 29.0948 163.437 29.0699 163.471 29.0441ZM167.286 27.8339C167.214 27.8673 167.139 27.8953 167.062 27.9122C167.152 27.878 167.241 27.8442 167.331 27.81C167.316 27.8181 167.301 27.8262 167.286 27.8339ZM167.407 28.3362C167.218 28.4496 166.985 28.3416 166.785 28.3078C167.044 28.3432 167.307 28.2963 167.533 28.1653C167.492 28.2226 167.455 28.2844 167.407 28.3362ZM163.679 29.0914C163.686 29.0837 163.693 29.076 163.7 29.0683C163.714 29.0722 163.728 29.0764 163.742 29.0806C163.726 29.0864 163.711 29.0925 163.695 29.0987C163.69 29.096 163.684 29.0937 163.679 29.0914ZM161.581 30.6227C161.777 30.6784 162.011 30.511 162.194 30.4476C162.036 30.5701 162.011 30.8217 162.258 30.8332C162.608 30.7088 162.929 30.5014 163.266 30.3427C163.391 30.2828 163.517 30.2263 163.646 30.1756C163.452 30.1587 163.258 30.1714 163.068 30.2037C163.149 30.128 163.222 30.0451 163.278 29.9486C163.505 29.8983 163.734 29.8572 163.965 29.8277C164.593 29.7647 165.268 29.8545 165.836 29.5212C167.614 29.4889 170.016 29.3871 171.191 27.8496C171.654 27.1544 171.728 26.0029 170.957 25.4971C170.621 24.9674 169.927 24.8591 169.353 24.7673C168.446 24.6751 167.532 24.5795 166.619 24.6244C165.813 24.6866 165.014 24.7162 164.2 24.6924C162.407 24.6379 160.599 24.0813 159.059 23.1987C158.23 22.7071 157.695 22.2527 156.975 21.6846C157.01 21.8144 157.065 21.9454 157.137 22.0679C157.127 22.0964 157.12 22.1263 157.115 22.1574C156.822 21.6312 156.632 21.0624 156.429 20.4982C156.75 20.8865 157.144 20.7152 157.48 20.4548C156.716 20.5708 156.786 20.4313 156.464 19.7995C156.3 19.4281 156.125 19.059 156.007 18.6699C155.863 19.13 155.949 19.642 156.152 20.0718C156.067 20.8104 156.36 21.5329 156.769 22.1344C156.819 22.2031 156.872 22.2692 156.928 22.333C157.031 22.4555 157.161 22.5361 157.208 22.6963C157.713 23.5655 158.582 24.0364 159.471 24.4842C160.635 25.0561 161.945 25.3696 163.25 25.2071C163.718 25.2612 164.196 25.161 164.654 25.0504C165.137 25.2075 165.649 25.1322 166.141 25.0665C166.548 25.0173 166.958 24.9835 167.369 24.9839C167.321 25.171 167.432 25.3561 167.525 25.5113C167.392 25.2655 167.082 25.1418 166.874 25.3761C166.62 25.7095 166.857 26.1335 166.938 26.4857C167.076 26.2334 167.02 25.9223 167.129 25.6615C167.584 26.0098 167.523 25.9803 168.104 25.908C167.911 25.7844 167.64 25.774 167.542 25.537C167.609 25.6234 167.604 25.093 167.611 25.0335C167.906 24.9586 168.217 25.0442 168.517 25.0481C169.286 25.128 170.303 25.1034 170.795 25.8017C170.812 26.2334 170.553 26.594 170.32 26.9336C169.942 27.4717 169.982 27.3449 169.405 27.4536C169.258 27.4993 169.141 27.6034 169.034 27.7098C168.739 27.9798 168.31 27.7978 167.959 27.8949C168.274 27.6664 168.66 27.5389 168.917 27.2331C169.203 27.1156 169.5 26.9459 169.65 26.6639C169.746 26.4177 169.81 26.1281 169.78 25.8685C169.702 25.981 169.622 26.1082 169.546 26.2268C169.573 26.1377 169.724 25.769 169.589 25.7433C169.554 25.7348 169.515 25.7563 169.504 25.7901C169.505 25.789 169.505 25.7878 169.505 25.7867C168.879 27.0135 167.483 27.4306 166.291 27.9076C165.74 27.9241 165.313 28.3482 164.943 28.7115C164.987 28.5218 164.972 28.145 164.686 28.2441C164.659 28.0789 164.457 28.0424 164.342 28.145C164.319 28.1108 164.286 28.0839 164.248 28.0682C164.796 27.8619 165.158 27.3545 165.401 26.8429C164.992 27.1114 164.624 27.4463 164.193 27.6818C163.961 27.7908 163.712 27.8504 163.472 27.9391C162.558 28.2686 161.935 29.0925 161.507 29.931C161.32 30.3074 161.198 30.7737 160.784 30.9638C161.086 31.0103 161.38 30.8459 161.567 30.6147C161.571 30.6177 161.576 30.6204 161.581 30.6227Z" fill="#A167C9"/>
<path d="M174.901 36.0439C174.323 34.6601 173.212 33.5793 172.167 32.5353C171.555 31.9814 170.169 30.6187 169.302 30.9548C169.18 31.0074 169.086 31.1234 169.073 31.2559C169.159 31.1507 169.298 31.1084 169.43 31.1361C170.495 31.5006 171.391 32.2534 172.208 33.0097C173.221 33.9161 174.022 35.0154 174.901 36.0439Z" fill="#A167C9"/>
<path d="M173.168 35.5615C172.992 34.9127 172.673 34.2682 172.146 33.8354C172.044 33.752 171.931 33.6771 171.813 33.6184C172.037 34.027 172.245 34.4449 172.479 34.8482C172.755 35.3675 173.023 35.8956 173.242 36.4414C173.27 36.1468 173.237 35.8484 173.168 35.5615Z" fill="#A167C9"/>
<path d="M173.211 37.0777C173.273 36.8953 173.26 36.6959 173.212 36.5124C173.068 36.6917 172.995 36.926 173.029 37.1545C173.037 37.2252 173.051 37.2963 173.069 37.3643C173.127 37.2748 173.177 37.1791 173.211 37.0777Z" fill="#A167C9"/>
<path d="M174.839 32.5333C174.6 31.8923 174.183 31.1759 173.461 31.0281C173.359 31.01 173.255 31.0039 173.153 31.0181C173.277 31.0807 173.392 31.1594 173.499 31.2478C173.655 31.3795 173.791 31.5316 173.92 31.6891C174.368 32.2264 174.685 32.8571 175.059 33.4463C175.015 33.1371 174.941 32.8291 174.839 32.5333Z" fill="#A167C9"/>
<path d="M175.295 32.6092C175.171 32.3768 175.003 32.1694 174.817 31.9835C174.814 32.1848 174.848 32.3891 174.91 32.5812C175.012 32.9418 175.261 33.2299 175.475 33.5283C175.475 33.5283 175.475 33.5276 175.474 33.5268C175.522 33.314 175.428 32.8654 175.295 32.6092Z" fill="#A167C9"/>
<path d="M175.904 33.3329C175.789 33.1074 175.606 32.9112 175.379 32.7963C175.464 33.074 175.542 33.3567 175.667 33.6198C175.773 33.8303 175.904 34.0281 176.02 34.2324C176.045 33.9301 176.042 33.6098 175.904 33.3329Z" fill="#A167C9"/>
<path d="M171.561 28.7623C171.226 28.808 170.909 28.9809 170.701 29.2486C170.656 29.305 170.615 29.3661 170.581 29.4287C170.702 29.3803 170.825 29.3354 170.95 29.2958C171.372 29.1648 171.815 29.1214 172.253 29.0673C172.422 29.0446 172.594 29.0354 172.762 29.0028C172.655 28.9482 172.536 28.9117 172.422 28.8729C172.145 28.7842 171.852 28.7262 171.561 28.7623Z" fill="#A167C9"/>
<path d="M169.544 29.7821C169.261 29.8205 168.994 29.9557 168.787 30.15C169.08 30.162 169.378 30.1616 169.671 30.1293C169.923 30.0947 170.173 30.0367 170.428 30.0229C170.175 29.8439 169.855 29.7456 169.544 29.7821Z" fill="#A167C9"/>
</g>
</g>
</g>
<defs>
<clipPath id="clip0_2596_216590">
<rect width="280" height="48.3951" fill="white"/>
</clipPath>
</defs>
</svg>
