<svg width="144" height="26" viewBox="0 0 144 26" fill="none" xmlns="http://www.w3.org/2000/svg">
<g clip-path="url(#clip0_2596_212640)">
<mask id="mask0_2596_212640" style="mask-type:alpha" maskUnits="userSpaceOnUse" x="0" y="0" width="144" height="26">
<rect y="0.554688" width="144" height="24.8889" fill="#D9D9D9"/>
</mask>
<g mask="url(#mask0_2596_212640)">
<mask id="mask1_2596_212640" style="mask-type:luminance" maskUnits="userSpaceOnUse" x="-210" y="-43" width="380" height="215">
<path d="M-209.778 -42.1126H169.482V171.221H-209.778V-42.1126Z" fill="white"/>
</mask>
<g mask="url(#mask1_2596_212640)">
<path d="M14.7861 5.01397C14.8096 5.43511 14.5755 5.92637 14.2713 6.23056C13.944 6.55807 13.5462 6.67501 13.0782 6.72182C12.1188 6.83876 11.1596 6.90888 10.1769 6.97921V7.00251C10.0835 11.799 10.0132 16.5954 9.91973 21.3917C9.89622 22.3509 9.17089 23.0762 8.21168 23.0997C7.32259 23.1465 6.50383 22.304 6.52714 21.3917C6.59726 16.6655 6.66758 11.9627 6.78452 7.21328C5.61474 7.2834 4.46827 7.30671 3.3218 7.33022C2.36259 7.35353 1.66057 6.53476 1.61375 5.64568C1.56694 4.68627 2.43272 3.93763 3.3218 3.91412C6.57395 3.8675 9.8261 3.65693 13.0782 3.32943C14.0375 3.2358 14.7628 4.1717 14.7861 5.01397Z" fill="#A167C9"/>
<path d="M17.7325 5.99682C17.709 5.06091 18.5512 4.28896 19.417 4.28896C20.3762 4.28896 21.0783 5.06091 21.1016 5.99682C21.1484 6.90921 20.3061 7.68136 19.417 7.68136C18.4811 7.68136 17.7791 6.90921 17.7325 5.99682ZM19.0427 20.9708C18.1303 21.0177 17.3113 20.1519 17.3347 19.2628C17.4281 16.5021 17.5452 13.7179 17.6153 10.9335C17.6389 9.9743 18.3642 9.27247 19.3001 9.24896C20.1892 9.20215 21.0079 10.0444 20.9846 10.9335C20.891 13.7179 20.8207 16.5021 20.7272 19.2628C20.7037 20.222 19.9786 20.9007 19.0427 20.9708Z" fill="#A167C9"/>
<path d="M24.4002 20.5737C23.8153 16.994 23.441 13.3909 23.3473 9.74089C23.3238 8.73486 24.4703 7.70533 25.4998 8.10316C27.1143 8.78168 28.3308 9.95146 29.8751 11.4958C31.4659 13.0165 33.1741 14.3969 35.0224 15.9177C35.0925 14.7947 35.1628 13.6951 35.2095 12.3848C35.3031 10.6302 35.3499 8.8518 35.3967 7.07383C35.3967 6.13793 36.1454 5.4361 37.0578 5.38928C37.9937 5.36578 38.7891 6.20805 38.7658 7.07383C38.7423 9.22632 38.6254 11.3788 38.5319 13.5313C38.4851 14.4672 38.4383 15.4031 38.3682 16.3856C38.3214 17.4152 38.2979 18.5381 37.5024 19.3103C36.4729 20.3398 35.0224 20.0356 33.9461 19.2868C31.4894 17.5556 29.1263 15.5669 26.9037 13.2972C27.0907 15.4031 27.278 17.4853 27.6758 19.6846C27.8396 20.6205 27.4418 21.4395 26.4825 21.767C25.6871 22.0243 24.5639 21.4395 24.4002 20.5737Z" fill="#A167C9"/>
<path d="M49.69 13.4128C49.9006 12.4769 49.7368 11.4942 48.8711 10.8392C47.7246 9.99672 45.7358 9.64591 44.7298 9.71623C44.8234 12.2664 44.8001 14.8167 44.6597 17.3901C46.7889 16.9224 49.1051 15.7994 49.69 13.4128ZM42.9516 6.30013C46.0869 6.30013 50.8365 6.62784 52.4975 10.0435C53.2697 11.5878 53.34 13.4128 52.7081 15.0739C52.0298 16.8287 50.813 18.1858 49.1986 19.1685C47.7246 20.0576 46.04 20.5956 44.3555 20.9466C43.1387 21.1805 41.0097 20.9466 41.2203 18.8175C41.4309 15.5653 41.4777 12.3132 41.3372 9.08433C40.7525 7.98468 41.6181 6.34695 42.9516 6.30013Z" fill="#A167C9"/>
<path d="M60.0534 18.4899C60.0769 18.5132 60.1237 18.5132 60.1002 18.5132C60.1002 18.5132 60.0769 18.5132 60.0534 18.4899ZM59.8896 18.4664C59.9129 18.4664 59.9365 18.4899 59.9598 18.4899C59.9598 18.4899 59.9365 18.4664 59.8896 18.4664ZM59.8428 18.3962C59.796 18.3962 59.7727 18.3727 59.7727 18.3727C59.7727 18.3727 59.796 18.3727 59.8428 18.3962ZM59.5153 17.2731C59.5854 17.4368 59.5619 17.5305 59.5386 17.4368C59.5386 17.39 59.5153 17.3199 59.5153 17.2731ZM55.959 15.1206C55.8653 13.1554 55.9122 11.2134 56.1462 9.248C56.2399 8.24197 56.2632 7.02538 56.8481 6.13629C57.4798 5.10676 58.6495 4.66232 59.8428 4.77925C60.8255 4.84938 61.7847 5.08345 62.744 5.29402C63.7267 5.48128 64.6626 5.66834 65.622 5.83209C66.5344 6.04266 66.9788 7.0955 66.8151 7.93777C66.6047 8.85017 65.5752 9.2715 64.7327 9.10775C63.7735 8.92049 62.8376 8.73323 61.8549 8.54617C61.4104 8.45254 60.966 8.38242 60.4978 8.28879C59.5153 8.12503 59.6323 8.00809 59.5153 9.10775C59.4685 9.50558 59.4452 9.94982 59.3984 10.3477C59.3516 11.073 59.3047 11.8216 59.3047 12.5705C60.0534 12.5003 60.7787 12.4535 61.5276 12.43C62.4635 12.3832 63.1653 13.2255 63.2121 14.1146C63.2589 15.0505 62.3931 15.7758 61.5276 15.8226C60.8255 15.8461 60.1002 15.8694 59.3984 15.9396C59.4217 16.1969 59.4452 16.4776 59.4685 16.7117C59.4685 16.899 59.4918 17.0625 59.5153 17.2731V17.39C59.5153 17.4135 59.5386 17.4368 59.5386 17.4368V17.4603C59.5854 17.7412 59.6791 18.0452 59.7492 18.3026C59.7727 18.3494 59.796 18.3727 59.8428 18.4196C59.8663 18.4196 59.8663 18.4431 59.8896 18.4431V18.4664C59.9129 18.4664 59.9598 18.4899 60.0066 18.4899H60.4745C60.4978 18.4899 60.7319 18.4431 60.7319 18.4431C61.5509 18.3026 62.3698 18.1389 63.1886 17.9518C64.101 17.7412 64.9433 18.209 65.271 19.1216C65.5284 19.9638 64.9433 21.0402 64.0777 21.2037C61.9252 21.6484 59.1643 22.6311 57.3861 20.7593C56.7311 20.0575 56.4034 19.1216 56.2632 18.209C56.1229 17.1561 56.0058 16.1501 55.959 15.1206Z" fill="#A167C9"/>
<path d="M74.9561 9.06138C74.3244 8.68686 73.4821 8.54661 72.593 8.40617H72.5695C72.6631 10.4652 72.7568 12.5008 72.8269 14.5597C73.6458 14.3023 74.4415 13.8576 75.0262 13.2026C76.0089 12.1263 76.547 9.99708 74.9561 9.06138ZM72.9673 20.1278C72.9908 21.0873 72.1719 21.7893 71.2828 21.8126C70.3702 21.8594 69.6215 21.0171 69.5982 20.1278C69.5279 15.5422 69.3174 10.9565 69.0602 6.37081C69.0134 5.43491 69.8789 4.73289 70.7447 4.68607C71.1894 4.66276 71.5402 4.82652 71.8209 5.06039C73.061 4.96696 74.5116 5.17753 75.7748 5.6921C77.9976 6.58118 79.4951 8.75718 79.4015 11.1671C79.3314 13.3196 78.0445 15.1912 76.2898 16.5249C76.7575 16.6653 77.2255 16.7823 77.7168 16.8992C78.6294 17.1566 79.0738 18.1158 78.8867 18.9816C78.6995 19.8942 77.6934 20.3852 76.8044 20.1747C75.5176 19.8238 74.2307 19.4495 72.944 18.9583C72.944 19.3324 72.9673 19.7302 72.9673 20.1278Z" fill="#A167C9"/>
<path d="M95.7011 13.7997C95.9291 18.2256 91.0428 22.4131 89.536 21.729C88.3095 21.1724 89.0203 17.2502 87.4305 16.6906C86.8482 16.4855 86.2392 16.5353 86.2392 16.5353C85.5437 16.5922 85.4528 16.8682 84.7352 16.9146C84.1719 16.9511 83.7104 16.814 83.3736 16.7149C82.8897 16.5723 82.6477 16.501 82.5892 16.3743C82.2645 15.6711 85.2053 13.8276 84.9772 13.4382C84.9006 13.3073 84.5517 13.4878 83.9573 13.5173C82.8524 13.5718 81.7065 13.0647 80.992 12.2661C80.8358 12.0915 79.8645 11.006 80.2325 10.1553C80.4798 9.58323 81.2231 9.37068 81.5866 9.26678C82.4715 9.01375 82.8273 9.32821 83.4681 9.05858C83.9801 8.84328 84.0235 8.50747 84.6015 7.85602C84.8755 7.54708 85.5726 6.7613 86.4895 6.36584C87.6871 5.8493 88.93 6.14066 90.2339 6.44644C90.9721 6.61967 91.3869 6.66431 91.7906 6.93809C92.052 7.11528 92.161 7.25888 92.8589 7.98579C93.4011 8.55054 93.6608 8.80318 93.764 8.91222C94.4601 9.64821 95.5988 11.8132 95.7011 13.7997Z" fill="#EDB506"/>
<path d="M125.828 22.1366C124.19 22.8619 122.482 22.8619 120.868 22.1133C118.201 20.8965 116.703 17.8784 116.61 15.0709C116.516 12.1931 117.873 9.45553 120.26 7.8413C122.506 6.32032 125.547 6.06313 128.098 7.2094C128.963 7.58392 129.104 8.77721 128.729 9.50234C128.542 9.87686 128.098 10.1809 127.723 10.2978C127.232 10.4147 126.834 10.3681 126.413 10.1107C125.922 9.80654 125.127 9.71291 124.261 9.83005C120.728 10.3446 118.973 14.4625 120.798 17.5976C121.921 19.5863 124.495 20.1246 125.688 17.738C125.851 17.4105 125.945 16.9894 125.969 16.5682C125.969 15.2114 124.728 15.9833 123.793 15.8897C122.833 15.8196 122.132 15.1879 122.085 14.1818C122.038 13.5499 122.506 13.0119 123.138 12.7312C124.892 11.959 127.56 12.2399 128.706 13.9946C129.572 15.3516 129.525 17.2234 128.963 18.6739C128.379 20.1714 127.326 21.4816 125.828 22.1366Z" fill="#A167C9"/>
<path d="M131.91 18.5095C132.144 17.5969 133.15 17.129 133.992 17.3395C134.881 17.5736 136.496 17.9714 137.221 17.1525C137.829 16.3803 136.94 15.6785 136.379 15.2574C134.951 14.2043 132.869 12.9409 132.308 11.2799C130.88 7.09182 136.098 4.33113 139.561 4.42456C140.496 4.44807 141.198 5.22002 141.245 6.13261C141.269 7.04501 140.426 7.74683 139.561 7.81715C136.94 8.02772 133.805 9.57202 136.612 11.2095C137.852 12.0986 140.192 13.5493 140.847 15.304C141.222 16.2634 141.105 17.2927 140.684 18.2053C139.397 20.9895 136.051 21.2702 133.103 20.5917C132.191 20.3811 131.723 19.3518 131.91 18.5095Z" fill="#A167C9"/>
<path d="M110.641 14.3096C110.164 16.5431 108.696 21.0857 106.687 21.6619C104.676 22.2387 100.934 19.1821 101.041 16.0157C101.08 14.8605 102.971 13.3644 106.687 10.3694C107.441 9.76222 108.482 8.9559 109.893 8.88143C110.584 8.84509 111.293 8.98751 111.905 9.11077C112.841 9.29862 113.35 9.40114 113.883 9.7642C114.759 10.3613 115.421 11.4752 115.154 11.8302C114.803 12.2985 113.198 10.9664 111.952 11.5854C111.042 12.0376 110.866 13.2556 110.641 14.3096Z" fill="#EDB506"/>
<path fill-rule="evenodd" clip-rule="evenodd" d="M108.231 21.8323C111.565 20.3329 112.239 16.6612 112.348 16.0664C112.715 14.0693 112.252 12.4178 111.953 11.5862C112.157 11.5828 112.448 11.5868 112.793 11.6219C114.258 11.7717 114.861 12.2955 115.186 12.0213C115.496 11.7586 115.386 10.9211 115.062 10.5175C113.278 8.30125 110.383 8.12999 108 9.42066C107.686 9.26421 107.221 9.07004 106.635 8.95804C104.071 8.46816 101.98 10.0857 101.688 10.3184C99.2549 12.2602 99.1763 15.2571 99.1838 15.9763C99.2028 17.8114 99.9322 19.1194 100.08 19.3772C100.3 19.7588 100.893 20.7664 102.028 21.5105C103.902 22.7392 106.378 22.6651 108.231 21.8323ZM109.17 15.6672C109.12 15.986 108.797 17.7784 107.191 18.5424C106.184 19.0216 104.769 19.0509 103.759 18.2333C102.93 17.5613 102.748 16.6193 102.704 16.3745C102.478 15.1013 103.119 14.0994 103.481 13.5338C104.121 12.5343 104.94 12.0247 105.305 11.8025C106.074 11.3357 106.437 11.5366 107.16 11.0606C107.933 10.5521 107.957 10.115 108.459 9.66915C109.998 8.30244 113.536 9.0736 114.731 10.784C114.843 10.945 115.077 11.2873 114.957 11.4973C114.698 11.9524 113.212 11.0244 111.489 11.4315C111.402 11.4519 109.549 11.9153 109.06 13.2808C108.744 14.1604 109.354 14.4921 109.17 15.6672Z" fill="#A167C9"/>
<path d="M84.9771 13.438C84.7273 13.6977 84.3192 14.0539 83.7317 14.2838C83.1917 14.4952 82.9011 14.4442 82.5874 14.6864C82.3269 14.8877 82.0418 15.3013 82.0365 16.2546C82.1001 16.4094 82.1635 16.5645 82.2271 16.7194C82.3164 16.7275 82.4493 16.7255 82.5752 16.6552C82.7103 16.5797 82.7739 16.4612 82.8015 16.4138C82.8879 16.2656 83.2734 16.0195 84.041 15.5332C84.2818 15.3805 84.4355 15.2863 84.6115 15.3246C84.703 15.3448 84.7674 15.3935 84.8707 15.3726C84.9995 15.3463 85.0571 15.2385 85.133 15.1579C85.3372 14.9408 85.6561 14.9432 85.8244 14.9197C86.5317 14.8205 87.5885 13.7317 87.4259 13.4058C87.3605 13.2748 86.9175 13.2981 86.0341 13.3505C85.5869 13.3771 85.2207 13.4121 84.9771 13.438Z" fill="#EA86B4"/>
<path d="M92.9571 3.86793C90.7347 2.88343 88.3236 2.69815 85.9387 2.8378C85.7095 2.85124 85.3376 2.86763 85.0351 3.12442C84.0104 3.99474 84.9674 6.5579 85.1438 7.01697C85.4816 6.7661 85.975 6.45203 86.6205 6.20255C86.6205 6.20255 87.3044 5.93845 88.0175 5.84146C89.1578 5.6864 91.0383 5.9023 92.3485 6.94487C95.2667 9.26684 94.0779 13.8428 93.9525 14.2976C92.9109 18.0763 89.4723 19.6751 88.9312 19.9161C88.9297 19.7052 88.9117 19.4565 88.8597 19.1817C88.7837 18.7787 88.6585 18.4469 88.5417 18.1974C88.4925 17.9841 88.377 17.6202 88.0846 17.2676C87.959 17.1163 87.6724 16.7795 87.1839 16.6213C86.8765 16.522 86.6041 16.5302 86.3999 16.5366C86.1468 16.5445 85.9365 16.5838 85.7854 16.6213C85.655 18.3501 85.5793 19.6775 85.5618 20.3112C85.557 20.4846 85.5523 20.758 85.5809 21.1096C85.6036 21.3903 85.6473 21.7137 85.7275 22.0704C86.1012 23.7306 86.5235 24.0817 88.5348 23.7079C92.5575 22.5382 95.7644 19.2858 97.0511 15.3541C98.455 11.143 97.3079 5.81104 92.9571 3.86793Z" fill="#A167C9"/>
<path d="M91.365 10.1979C91.2767 10.3443 91.2117 10.5057 91.2176 10.6797C91.3659 10.5671 91.4092 10.3727 91.365 10.1979Z" fill="#A167C9"/>
<path d="M91.5996 10.1819C91.5966 10.1349 91.5526 10.2722 91.5441 10.29C91.491 10.4322 91.507 10.5914 91.5678 10.7285C91.6559 10.558 91.6551 10.3623 91.5996 10.1819Z" fill="#A167C9"/>
<path d="M91.9703 10.6273C91.9474 10.5515 91.9106 10.4808 91.8771 10.4096C91.8423 10.5517 91.832 10.705 91.8992 10.8393C91.9211 10.8881 91.9495 10.9345 91.9823 10.9766C92.0025 10.8616 92.0062 10.7395 91.9703 10.6273Z" fill="#A167C9"/>
<path d="M92.1122 10.434C92.0982 10.4121 92.0917 10.3643 92.0869 10.4172C92.0869 10.4164 92.0871 10.4158 92.0873 10.415C92.0863 10.4208 92.0854 10.4265 92.0844 10.4322C92.0844 10.4318 92.0844 10.4314 92.0844 10.4314C92.0391 10.6218 92.0646 10.8227 92.1681 10.9902C92.2327 10.8057 92.2043 10.6041 92.1122 10.434Z" fill="#A167C9"/>
<path d="M84.2508 8.38051C84.2769 8.39355 84.3079 8.34752 84.313 8.33389C84.4712 8.14565 84.4993 7.88254 84.4238 7.6534C84.3415 7.88313 84.2506 8.11266 84.2395 8.35997C84.2397 8.35898 84.2397 8.35819 84.2399 8.3572C84.2391 8.36668 84.2417 8.37538 84.2508 8.38051Z" fill="#A167C9"/>
<path d="M84.6015 7.85547C84.6266 7.76421 84.7056 7.7012 84.7562 7.62416C84.845 7.50327 84.8583 7.34821 84.877 7.2046C84.7759 7.37744 84.4996 7.64451 84.6015 7.85547Z" fill="#A167C9"/>
<path d="M87.4354 6.27978C87.541 6.25785 87.6335 6.19603 87.7022 6.11385C87.7153 6.09114 87.8148 5.99711 87.7506 6.02911L87.7498 6.02931H87.75C87.6426 6.06052 87.532 6.08975 87.4403 6.15672C87.3836 6.19504 87.3317 6.23968 87.2825 6.28729C87.3328 6.2944 87.3856 6.29104 87.4354 6.27978Z" fill="#A167C9"/>
<path d="M87.695 6.17245C87.6532 6.19991 87.6152 6.23645 87.5868 6.27734C87.6688 6.27438 87.7519 6.26233 87.828 6.23053C87.9003 6.19873 87.9617 6.14855 88.0227 6.09937C87.9101 6.09858 87.7895 6.10273 87.695 6.17245Z" fill="#A167C9"/>
<path d="M87.8326 6.26289C88.0209 6.31326 88.1998 6.22319 88.3571 6.12798C88.171 6.0865 87.9762 6.13746 87.8326 6.26289Z" fill="#A167C9"/>
<path d="M88.1971 6.26836C88.2131 6.26697 88.2291 6.26618 88.2453 6.26559C88.2447 6.26559 88.2441 6.26579 88.2433 6.26579C88.2447 6.26559 88.2459 6.26559 88.2471 6.26559C88.2465 6.26559 88.2459 6.26559 88.2453 6.26559C88.6328 6.27172 89.0218 6.3288 89.4089 6.27784C89.5719 6.25374 89.7335 6.2093 89.8802 6.13325C89.7214 6.14451 89.5608 6.1449 89.4012 6.14174C89.0046 6.16702 88.5441 6.01927 88.1971 6.26836Z" fill="#A167C9"/>
<path d="M89.8165 6.21631C89.729 6.22718 89.6395 6.25858 89.5767 6.32179C89.6599 6.32337 89.7426 6.33878 89.8242 6.35439C90.0045 6.3933 90.2355 6.40416 90.3945 6.34688H90.3949C90.2062 6.28782 90.0207 6.18471 89.8165 6.21631Z" fill="#A167C9"/>
<path d="M90.1486 6.47029C90.0925 6.46733 90.0351 6.47049 89.9815 6.48728C90.059 6.53884 90.1394 6.59079 90.2286 6.61923C90.5103 6.82447 90.7734 6.94061 91.1432 6.86891C91.3046 6.84541 91.4709 6.81933 91.6305 6.86733C91.8008 6.91691 91.9381 7.03484 92.0817 7.13281C91.7846 6.55622 91.4832 6.66545 90.9364 6.70022C90.776 6.70042 90.6194 6.66447 90.4621 6.63741C90.4827 6.63385 90.5822 6.61291 90.5641 6.60264L90.5648 6.60284C90.4266 6.55721 90.2988 6.47227 90.1486 6.47029Z" fill="#A167C9"/>
<path d="M89.0372 11.6429C89.0348 11.1546 89.1584 10.6774 89.2819 10.2085C89.3396 9.97893 89.4123 9.75355 89.4974 9.53271C89.7392 8.80974 90.2891 8.02594 90.0858 7.24293C90.0416 7.37626 90.0005 7.51157 89.963 7.64727C89.8235 8.33172 89.5551 8.97468 89.3194 9.6291C89.1055 10.3495 88.8714 11.0938 88.9014 11.8529C88.9161 12.1144 89.0154 12.3854 89.2264 12.5508C89.0948 12.2689 89.0449 11.9525 89.0372 11.6429Z" fill="#A167C9"/>
<path d="M89.6975 7.43023C89.7204 7.50154 89.7471 7.57206 89.7714 7.64258C89.8107 7.49206 89.849 7.32692 89.7885 7.1766C89.7504 7.07586 89.6767 6.98203 89.5742 6.94273C89.6343 7.10016 89.641 7.27162 89.6975 7.43023Z" fill="#A167C9"/>
<path d="M87.7433 9.34497C87.6459 9.28373 87.5233 9.26991 87.4176 9.31771C87.5128 9.38665 87.6373 9.38566 87.7433 9.34497Z" fill="#A167C9"/>
<path d="M92.0602 7.17951C92.1753 7.92183 92.9644 8.22543 93.4804 8.66079C93.7182 8.85101 93.9197 8.96637 93.8302 9.30968C93.8144 9.41496 93.802 9.52479 93.834 9.6283C93.8496 9.68025 93.8772 9.72825 93.9122 9.76953C93.9063 9.73141 93.9031 9.6923 93.9049 9.65338C93.9132 9.52203 93.9788 9.40469 94.0167 9.28064C94.1273 8.96677 93.8782 8.7242 93.6469 8.55373C93.3714 8.32874 93.0729 8.13319 92.8003 7.90425C92.5398 7.67768 92.3015 7.42622 92.0602 7.17951Z" fill="#A167C9"/>
<path d="M93.9162 10.05C93.9318 10.0275 93.889 9.94315 93.8943 9.99075C93.8902 10.0974 93.6762 10.0222 93.603 10.0625C93.0722 10.2505 92.7042 10.7161 92.2671 11.0509C91.9162 11.3249 91.537 11.5613 91.166 11.807C90.7565 12.0472 90.1926 12.4613 89.7116 12.4348C89.5642 12.4253 89.4212 12.3828 89.2834 12.3331C89.5445 12.6637 89.9451 12.6766 90.2997 12.4927C90.7214 12.2934 91.119 12.0478 91.5083 11.792C91.7553 11.6265 92.0067 11.4671 92.2489 11.2948C92.5849 11.0473 92.8834 10.7526 93.2203 10.5065C93.3717 10.3985 93.5283 10.2979 93.683 10.195C93.7626 10.1533 93.8797 10.1436 93.9162 10.05Z" fill="#A167C9"/>
<path d="M86.148 8.64895L86.151 8.64796C85.9355 8.74554 85.8355 8.64994 85.9469 8.4368C85.9387 8.43858 85.9302 8.44115 85.9219 8.44431C85.9402 8.42416 85.9675 8.43048 85.99 8.44055C85.9892 8.43739 85.9882 8.43443 85.987 8.43147C86.0627 8.49883 86.1206 8.56599 86.1883 8.63552C86.1749 8.63828 86.1615 8.64342 86.148 8.64895ZM86.697 9.00688C86.7234 8.98811 86.7464 8.96954 86.7669 8.95038C86.8352 8.95295 86.9056 8.94011 86.9678 8.91325C86.7855 8.88342 86.6381 8.74811 86.49 8.62999C86.339 8.51838 86.1567 8.41053 85.9728 8.40678C85.8547 8.30248 85.7127 8.49171 85.7087 8.60944C85.6692 8.65488 85.6597 8.72658 85.673 8.78386C85.0717 8.7888 85.4158 9.14278 85.7968 8.99759C85.7862 8.99384 85.7759 8.99009 85.7658 8.98653C85.7759 8.99009 85.7862 8.99384 85.7966 8.99739C85.7194 8.97013 85.637 8.93912 85.5663 8.90475C85.61 8.87947 85.6512 8.85142 85.6866 8.82416C85.7097 8.87907 85.7619 8.92273 85.8189 8.94426C85.7968 8.95729 85.8118 8.97863 85.8156 8.99641C85.8207 8.99068 85.8217 8.98416 85.8241 8.97744C86.0532 9.19848 86.4433 9.1969 86.697 9.00688Z" fill="#A167C9"/>
<path d="M85.9383 8.1066C86.1803 8.48388 86.6 8.75114 87.0524 8.77148C86.6755 8.55973 86.3496 8.25553 85.9383 8.1066Z" fill="#A167C9"/>
<path d="M85.5701 8.47381C85.5435 8.54651 85.546 8.62947 85.5747 8.70117C85.6434 8.56804 85.712 8.43431 85.7738 8.29742C85.6809 8.31243 85.6029 8.3871 85.5701 8.47381Z" fill="#A167C9"/>
<path d="M86.7716 9.04918C86.8736 9.048 86.9611 9.10963 87.0563 9.13768C87.1282 9.16079 87.2024 9.18054 87.2773 9.19141C87.2155 9.10825 87.1394 9.02746 87.0401 8.99012C86.9463 8.95674 86.8179 8.96069 86.7562 9.04997C86.7612 9.04997 86.7665 9.04918 86.7716 9.04918Z" fill="#A167C9"/>
<path d="M84.8968 7.47461C85.088 7.46454 85.1249 7.23461 85.1789 7.09081C85.0218 7.17476 84.9932 7.34503 84.8968 7.47461Z" fill="#A167C9"/>
<path d="M85.13 7.27029C85.1256 7.28787 85.1223 7.30624 85.1223 7.32422C85.1614 7.29834 85.1997 7.27089 85.2335 7.23829C85.2831 7.19049 85.3151 7.12906 85.3421 7.06644C85.2485 7.10338 85.1537 7.1656 85.13 7.27029Z" fill="#A167C9"/>
<path d="M85.3261 7.20703C85.6684 7.02985 85.9564 6.76713 86.2975 6.58896C86.3756 6.54767 86.456 6.51034 86.5401 6.48328C86.7197 6.43113 86.9196 6.4333 87.0796 6.32604C87.1301 6.29345 87.1765 6.25256 87.218 6.2095C86.9946 6.34362 86.7299 6.29404 86.4895 6.36496C86.0435 6.53464 85.5546 6.76417 85.3261 7.20703Z" fill="#A167C9"/>
<path d="M86.1155 10.3223C86.06 10.2897 86.0023 10.2595 85.9482 10.225C85.9563 10.3221 86.0252 10.4083 86.1117 10.4493C86.1755 10.48 86.2482 10.4875 86.318 10.4833C86.2538 10.4264 86.1898 10.3664 86.1155 10.3223Z" fill="#A167C9"/>
<path d="M86.5353 10.3576C86.5322 10.3555 86.528 10.3537 86.5247 10.3515L86.5251 10.3517C86.3949 10.2692 86.2651 10.1568 86.1012 10.1662C86.2005 10.2994 86.3629 10.4159 86.5353 10.3576Z" fill="#A167C9"/>
<path d="M86.6278 10.2942C86.5358 10.1889 86.4054 10.1144 86.2624 10.1212C86.344 10.2403 86.4852 10.3025 86.6278 10.2942Z" fill="#A167C9"/>
<path d="M85.8963 7.38457C85.7653 7.542 85.6717 7.7336 85.6691 7.94141C85.8497 7.8221 85.9476 7.59691 85.8963 7.38457Z" fill="#A167C9"/>
<path d="M86.2436 7.35429C86.0218 7.49928 85.8733 7.73415 85.8446 7.99805C86.0416 7.83094 86.2192 7.62136 86.2436 7.35429Z" fill="#A167C9"/>
<path d="M81.3586 10.5069C81.2487 10.6825 81.12 10.8463 80.9671 10.9863C81.1385 10.9464 81.2958 10.8469 81.424 10.7278C81.609 10.5452 81.7481 10.2849 81.7222 10.0192C81.709 9.86949 81.6266 9.72667 81.5014 9.64351C81.5656 9.80154 81.5717 9.9803 81.5245 10.1437C81.2827 10.2312 80.9497 10.5946 80.7318 10.2892C80.7101 10.1998 80.6994 10.1038 80.6631 10.0165C80.638 9.90504 80.4638 9.92223 80.4592 10.036C80.4541 10.1559 80.4805 10.2788 80.541 10.3829C80.5627 10.4986 80.6245 10.6246 80.7512 10.6489C80.8432 10.6695 80.9388 10.6551 81.0291 10.6324C81.0137 10.6274 80.9969 10.6233 80.9811 10.6181C81.1932 10.6057 81.3552 10.4449 81.4771 10.2847C81.4482 10.3641 81.4038 10.436 81.3586 10.5069Z" fill="#A167C9"/>
<path d="M83.5443 9.02681C83.5429 9.0274 83.5415 9.02799 83.5403 9.02858C83.5417 9.02799 83.5429 9.0274 83.5443 9.02681ZM81.7916 9.38493C82.1009 9.36834 82.4045 9.2996 82.7125 9.26918C83.0394 9.23816 83.3641 9.18997 83.6766 9.08508C83.8576 9.0509 84.0166 8.94444 84.146 8.81703C84.4006 8.57466 84.6082 8.2829 84.7395 7.95639C84.319 8.32399 83.997 8.83974 83.468 9.05881C82.9975 9.01831 82.5264 9.09772 82.0587 9.14394C81.8129 9.17397 81.5735 9.25535 81.3578 9.37663C81.5016 9.38888 81.6472 9.39204 81.7916 9.38493Z" fill="#A167C9"/>
<path d="M85.2692 14.584C85.2897 14.4862 85.331 14.393 85.3687 14.3005C85.4027 14.2361 85.441 14.0783 85.5364 14.1583C85.5868 14.1943 85.6289 14.2407 85.6806 14.275C85.6725 14.247 85.666 14.218 85.6581 14.1897C85.6066 13.9446 85.3519 13.9072 85.248 14.1389C85.1911 14.2784 85.1896 14.453 85.2692 14.584Z" fill="#A167C9"/>
<path d="M82.1643 16.2657C82.2394 15.7597 82.38 15.081 82.7468 14.7047C82.8997 14.5715 83.103 14.5291 83.2893 14.4633C83.5289 14.3718 83.7618 14.2638 83.9984 14.1648C83.5312 14.4212 83.0145 14.6774 82.7587 15.1708C82.9515 15.015 83.1632 14.883 83.3669 14.7412C83.6897 14.5257 84.0466 14.3702 84.3915 14.1948C84.5811 14.0895 84.7532 13.9509 84.8914 13.7836C84.781 13.8154 84.6708 13.8511 84.5629 13.8914C84.7251 13.7865 84.8492 13.6362 84.9876 13.5041C84.6261 13.5825 84.3235 13.8217 83.9889 13.9708C83.725 14.0935 83.4635 14.2258 83.1877 14.3203C82.8083 14.4212 82.5317 14.5186 82.3585 14.9012C82.1546 15.2969 82.0424 15.7338 81.9842 16.1731C81.9342 16.3807 81.9358 16.6347 82.1985 16.6742C82.337 16.6908 82.4731 16.6448 82.6054 16.6118C82.384 16.5449 82.0681 16.6067 82.1643 16.2657Z" fill="#A167C9"/>
<path d="M86.3738 16.3824C85.964 16.3739 85.5803 16.545 85.195 16.6617C84.6948 16.8188 84.1332 16.8496 83.6442 16.639C83.462 16.5715 83.2754 16.5047 83.0802 16.4924C83.2475 16.6238 83.4126 16.7652 83.61 16.8502C84.0592 17.0254 84.5658 16.9792 85.0255 16.8685C85.4324 16.7666 85.8172 16.5713 86.2393 16.5355C86.4649 16.5132 86.6948 16.5252 86.9182 16.4841C86.7389 16.4407 86.5591 16.3905 86.3738 16.3824Z" fill="#A167C9"/>
<path d="M83.7544 15.3141C83.9179 15.1644 84.1279 15.0915 84.3383 15.0354C84.3292 15.0522 84.3221 15.0696 84.3151 15.087C84.2071 15.0494 84.0945 15.1857 84.2531 15.213C84.2089 15.2515 84.1668 15.2932 84.1344 15.3426C83.9979 15.3459 83.6082 15.3676 83.5985 15.5462C83.5527 15.5741 83.5096 15.6059 83.4685 15.6402C83.5513 15.5213 83.6455 15.4101 83.7544 15.3141ZM86.4949 15.4791C86.5267 15.4654 86.5581 15.4508 86.5893 15.4356C86.5994 15.4421 86.6087 15.4486 86.6189 15.4542C86.5779 15.4636 86.5364 15.4714 86.4949 15.4791ZM84.071 15.4911C84.0688 15.5006 84.067 15.5099 84.0657 15.5194C84.0493 15.5225 84.0329 15.5257 84.0167 15.5294C84.035 15.5172 84.0532 15.5043 84.071 15.4911ZM86.0331 14.8687C85.9959 14.8859 85.9574 14.9003 85.9175 14.909C85.9637 14.8914 86.0098 14.874 86.056 14.8564C86.0483 14.8606 86.0408 14.8647 86.0331 14.8687ZM86.0949 15.1271C85.9977 15.1853 85.8778 15.1298 85.7753 15.1124C85.9082 15.1306 86.0435 15.1065 86.1601 15.0392C86.1387 15.0686 86.12 15.1004 86.0949 15.1271ZM84.1779 15.5154C84.1814 15.5115 84.185 15.5075 84.1887 15.5036C84.1958 15.5055 84.2031 15.5077 84.2105 15.5099C84.2022 15.5128 84.1941 15.516 84.186 15.5192C84.1834 15.5178 84.1806 15.5166 84.1779 15.5154ZM83.0989 16.303C83.1999 16.3316 83.3198 16.2455 83.414 16.2129C83.3326 16.2759 83.3202 16.4053 83.4468 16.4112C83.6269 16.3472 83.7919 16.2405 83.9653 16.159C84.0295 16.1281 84.0943 16.0991 84.1607 16.073C84.0613 16.0643 83.9614 16.0709 83.8634 16.0875C83.9051 16.0485 83.9426 16.0059 83.9718 15.9563C84.0884 15.9304 84.2063 15.9093 84.3248 15.8941C84.6478 15.8617 84.9948 15.9079 85.287 15.7364C86.2014 15.7198 87.4367 15.6675 88.0414 14.8768C88.2794 14.5193 88.3173 13.9271 87.9207 13.6669C87.7482 13.3945 87.3909 13.3388 87.096 13.2916C86.6292 13.2442 86.1595 13.195 85.69 13.2181C85.2755 13.2501 84.8643 13.2653 84.4459 13.2531C83.5236 13.225 82.5939 12.9388 81.8016 12.4849C81.3753 12.232 81.1003 11.9984 80.73 11.7062C80.7481 11.773 80.7766 11.8403 80.8131 11.9034C80.8084 11.918 80.8048 11.9334 80.8023 11.9494C80.6515 11.6788 80.5538 11.3862 80.4495 11.096C80.6142 11.2957 80.8171 11.2076 80.9899 11.0737C80.5968 11.1334 80.633 11.0617 80.4674 10.7367C80.3831 10.5457 80.293 10.3559 80.2324 10.1558C80.1583 10.3924 80.2022 10.6557 80.3066 10.8768C80.263 11.2566 80.4139 11.6282 80.6239 11.9375C80.6496 11.9729 80.677 12.0069 80.7061 12.0396C80.7586 12.1027 80.8258 12.1441 80.8501 12.2265C81.1096 12.6735 81.5564 12.9157 82.0135 13.146C82.6122 13.4401 83.2858 13.6013 83.9572 13.5178C84.1978 13.5456 84.4435 13.4941 84.6794 13.4372C84.9279 13.518 85.1908 13.4793 85.4438 13.4455C85.6534 13.4202 85.8642 13.4028 86.0753 13.403C86.0506 13.4992 86.1077 13.5944 86.1559 13.6742C86.0874 13.5478 85.9278 13.4842 85.8211 13.6047C85.6904 13.7761 85.812 13.9942 85.8541 14.1754C85.9246 14.0456 85.8962 13.8856 85.9519 13.7515C86.186 13.9306 86.1547 13.9154 86.4534 13.8783C86.3545 13.8147 86.215 13.8093 86.1646 13.6875C86.1992 13.7319 86.1966 13.4591 86.2 13.4285C86.3519 13.39 86.5115 13.434 86.6662 13.436C87.0614 13.4771 87.5845 13.4644 87.8373 13.8236C87.846 14.0456 87.7129 14.2311 87.593 14.4057C87.3988 14.6824 87.4195 14.6172 87.1228 14.6731C87.047 14.6966 86.9869 14.7502 86.9316 14.8049C86.7801 14.9437 86.5595 14.8501 86.3787 14.9001C86.5409 14.7826 86.7396 14.717 86.8716 14.5597C87.0187 14.4993 87.1714 14.412 87.2485 14.267C87.2979 14.1404 87.3308 13.9915 87.3152 13.8579C87.2755 13.9158 87.2345 13.9812 87.1949 14.0422C87.209 13.9964 87.2868 13.8068 87.2171 13.7935C87.1991 13.7892 87.1791 13.8002 87.1736 13.8176C87.1738 13.817 87.174 13.8164 87.1742 13.8158C86.852 14.4468 86.134 14.6613 85.5213 14.9066C85.2376 14.9151 85.0182 15.1332 84.8277 15.32C84.8506 15.2225 84.8429 15.0287 84.6956 15.0796C84.682 14.9947 84.5781 14.9759 84.519 15.0287C84.5071 15.0111 84.4902 14.9973 84.4702 14.9892C84.7523 14.8831 84.9384 14.6222 85.0632 14.3591C84.853 14.4971 84.6636 14.6694 84.4422 14.7905C84.323 14.8466 84.1946 14.8772 84.0716 14.9228C83.6015 15.0923 83.2807 15.516 83.0606 15.9472C82.9648 16.1408 82.9018 16.3806 82.6889 16.4784C82.8445 16.5023 82.9956 16.4177 83.0914 16.2988C83.0938 16.3004 83.0964 16.3018 83.0989 16.303Z" fill="#A167C9"/>
<path d="M89.9493 19.0918C89.652 18.3801 89.0808 17.8242 88.5429 17.2874C88.2284 17.0025 87.5155 16.3017 87.0695 16.4745C87.0071 16.5016 86.9587 16.5612 86.9518 16.6294C86.9962 16.5753 87.0675 16.5535 87.1353 16.5677C87.6834 16.7552 88.1439 17.1424 88.564 17.5313C89.0851 17.9975 89.497 18.5628 89.9493 19.0918Z" fill="#A167C9"/>
<path d="M89.0583 18.8424C88.9678 18.5087 88.8039 18.1773 88.5327 17.9547C88.4799 17.9118 88.4222 17.8733 88.3616 17.8431C88.4768 18.0532 88.5834 18.2682 88.7041 18.4756C88.8458 18.7426 88.9836 19.0142 89.096 19.2949C89.1108 19.1434 89.0937 18.9899 89.0583 18.8424Z" fill="#A167C9"/>
<path d="M89.0799 19.6222C89.1119 19.5283 89.1048 19.4258 89.0801 19.3314C89.0064 19.4237 88.9689 19.5441 88.9863 19.6617C88.9902 19.698 88.9973 19.7346 89.0066 19.7695C89.0368 19.7235 89.0621 19.6743 89.0799 19.6222Z" fill="#A167C9"/>
<path d="M89.9171 17.2844C89.7941 16.9547 89.5796 16.5863 89.2082 16.5103C89.156 16.501 89.1025 16.4978 89.0502 16.5051C89.1138 16.5373 89.173 16.5778 89.2281 16.6232C89.3079 16.691 89.3781 16.7692 89.4442 16.8502C89.675 17.1265 89.8379 17.4509 90.0301 17.7539C90.0078 17.5949 89.9695 17.4365 89.9171 17.2844Z" fill="#A167C9"/>
<path d="M90.1517 17.3242C90.0877 17.2047 90.0013 17.098 89.9055 17.0024C89.9041 17.1059 89.9217 17.211 89.9535 17.3098C90.0063 17.4952 90.1339 17.6434 90.2443 17.7969C90.2443 17.7969 90.2441 17.7965 90.2439 17.7961C90.2684 17.6867 90.2198 17.4559 90.1517 17.3242Z" fill="#A167C9"/>
<path d="M90.4648 17.6975C90.4057 17.5816 90.3115 17.4807 90.1949 17.4216C90.2384 17.5644 90.2785 17.7098 90.3429 17.8451C90.3974 17.9533 90.4648 18.0551 90.5242 18.1602C90.5371 18.0047 90.5359 17.84 90.4648 17.6975Z" fill="#A167C9"/>
<path d="M88.2313 15.3467C88.0589 15.3702 87.8963 15.4591 87.789 15.5968C87.7661 15.6258 87.745 15.6573 87.7274 15.6895C87.7898 15.6646 87.8528 15.6415 87.917 15.6211C88.1343 15.5537 88.3621 15.5314 88.5873 15.5036C88.6744 15.4919 88.7629 15.4872 88.8492 15.4704C88.7939 15.4423 88.733 15.4236 88.6742 15.4036C88.5318 15.358 88.381 15.3282 88.2313 15.3467Z" fill="#A167C9"/>
<path d="M87.1942 15.8696C87.049 15.8893 86.9113 15.9589 86.8048 16.0588C86.956 16.0649 87.1088 16.0647 87.2596 16.0481C87.3893 16.0304 87.5179 16.0005 87.6491 15.9934C87.5189 15.9014 87.3542 15.8508 87.1942 15.8696Z" fill="#A167C9"/>
</g>
</g>
</g>
<defs>
<clipPath id="clip0_2596_212640">
<rect width="144" height="24.8889" fill="white" transform="translate(0 0.554688)"/>
</clipPath>
</defs>
</svg>
