<svg width="126" height="28" viewBox="0 0 126 28" fill="none" xmlns="http://www.w3.org/2000/svg">
<g clip-path="url(#clip0_2557_105895)">
<mask id="mask0_2557_105895" style="mask-type:alpha" maskUnits="userSpaceOnUse" x="0" y="0" width="126" height="28">
<rect x="0.6875" y="0.84375" width="124.625" height="26.3097" fill="#D9D9D9"/>
</mask>
<g mask="url(#mask0_2557_105895)">
<mask id="mask1_2557_105895" style="mask-type:luminance" maskUnits="userSpaceOnUse" x="-21" y="-133" width="337" height="224">
<path d="M-20.7407 -132.558H315.799V90.3008H-20.7407V-132.558Z" fill="white"/>
</mask>
<g mask="url(#mask1_2557_105895)">
<path d="M147.529 90.3008H-20.7407V-132.558H147.529V90.3008Z" fill="#A167C9"/>
<path d="M12.903 5.55791C12.9238 5.99785 12.7161 6.51105 12.4462 6.82883C12.1557 7.17096 11.8027 7.29312 11.3875 7.34202C10.5361 7.46418 9.68497 7.53744 8.81295 7.6109V7.63524C8.72986 12.6459 8.66764 17.6565 8.58473 22.6669C8.56387 23.6689 7.92024 24.4266 7.06907 24.4512C6.28013 24.5001 5.55359 23.62 5.57427 22.6669C5.6365 17.7297 5.6989 12.8169 5.80267 7.85542C4.76465 7.92867 3.74732 7.95303 2.72998 7.97758C1.87882 8.00193 1.25587 7.14661 1.2145 6.21782C1.17296 5.21558 1.94104 4.43351 2.72998 4.40895C5.61582 4.36025 8.50165 4.14008 11.3875 3.79815C12.2386 3.70034 12.8823 4.67803 12.903 5.55791Z" fill="white"/>
<path d="M15.518 6.58204C15.4971 5.60435 16.2445 4.79793 17.0128 4.79793C17.864 4.79793 18.4869 5.60435 18.5076 6.58204C18.5491 7.53517 17.8017 8.3418 17.0128 8.3418C16.1823 8.3418 15.5594 7.53517 15.518 6.58204ZM16.6806 22.2247C15.871 22.2736 15.1443 21.3691 15.165 20.4403C15.2479 17.5564 15.3518 14.6477 15.4141 11.7392C15.4349 10.7371 16.0785 10.004 16.909 9.9794C17.698 9.93049 18.4245 10.8104 18.4038 11.7392C18.3207 14.6477 18.2583 17.5564 18.1754 20.4403C18.1546 21.4424 17.5111 22.1514 16.6806 22.2247Z" fill="white"/>
<path d="M21.4346 21.8106C20.9156 18.0711 20.5834 14.3071 20.5003 10.4942C20.4795 9.44321 21.4968 8.36771 22.4104 8.7833C23.8428 9.49212 24.9225 10.7141 26.2928 12.3274C27.7044 13.9161 29.2202 15.358 30.8603 16.9467C30.9225 15.7736 30.9849 14.6249 31.0263 13.2562C31.1094 11.4231 31.1509 9.56537 31.1923 7.70801C31.1923 6.73032 31.8568 5.99715 32.6664 5.94825C33.4969 5.92369 34.2028 6.80357 34.1821 7.70801C34.1612 9.95661 34.0574 12.2052 33.9744 14.4538C33.9328 15.4315 33.8915 16.4092 33.8292 17.4356C33.7877 18.5111 33.7668 19.6842 33.0608 20.4908C32.1474 21.5663 30.8603 21.2485 29.9052 20.4663C27.7252 18.6578 25.6283 16.5803 23.6561 14.2093C23.8221 16.4092 23.9882 18.5843 24.3413 20.8819C24.4866 21.8595 24.1335 22.7151 23.2824 23.0572C22.5765 23.3261 21.5799 22.7151 21.4346 21.8106Z" fill="white"/>
<path d="M43.8756 14.331C44.0625 13.3533 43.9172 12.3267 43.1489 11.6424C42.1316 10.7624 40.3669 10.3959 39.4742 10.4693C39.5572 13.1333 39.5366 15.7975 39.4119 18.4859C41.3013 17.9972 43.3566 16.8241 43.8756 14.331ZM37.8964 6.90071C40.6783 6.90071 44.893 7.24305 46.3669 10.8113C47.0521 12.4245 47.1145 14.331 46.5538 16.0662C45.9518 17.8994 44.8721 19.317 43.4397 20.3436C42.1316 21.2724 40.6368 21.8345 39.142 22.2012C38.0623 22.4455 36.1731 22.2012 36.3599 19.977C36.5468 16.5796 36.5883 13.1822 36.4637 9.80923C35.9449 8.66047 36.7129 6.94962 37.8964 6.90071Z" fill="white"/>
<path d="M53.0718 19.6343C53.0926 19.6586 53.1342 19.6586 53.1133 19.6586C53.1133 19.6586 53.0926 19.6586 53.0718 19.6343ZM52.9265 19.6097C52.9472 19.6097 52.968 19.6343 52.9887 19.6343C52.9887 19.6343 52.968 19.6097 52.9265 19.6097ZM52.8849 19.5364C52.8434 19.5364 52.8227 19.5119 52.8227 19.5119C52.8227 19.5119 52.8434 19.5119 52.8849 19.5364ZM52.5943 18.3631C52.6565 18.5342 52.6359 18.632 52.615 18.5342C52.615 18.4853 52.5943 18.412 52.5943 18.3631ZM49.4386 16.1145C49.3555 14.0615 49.397 12.0329 49.6047 9.97972C49.6878 8.92878 49.7085 7.65786 50.2275 6.72908C50.788 5.65358 51.8261 5.18929 52.8849 5.31145C53.757 5.3847 54.6081 5.62923 55.4593 5.8492C56.3313 6.04482 57.1618 6.24023 58.0131 6.4113C58.8228 6.63127 59.2171 7.73112 59.0718 8.611C58.8852 9.56413 57.9716 10.0043 57.224 9.83321C56.3729 9.63759 55.5424 9.44218 54.6704 9.24656C54.276 9.14875 53.8816 9.07549 53.4663 8.97768C52.5943 8.80662 52.6981 8.68446 52.5943 9.83321C52.5528 10.2488 52.5321 10.7129 52.4906 11.1285C52.449 11.8862 52.4075 12.6683 52.4075 13.4505C53.0718 13.3773 53.7154 13.3284 54.3797 13.3038C55.2104 13.2549 55.8332 14.1348 55.8747 15.0636C55.9163 16.0413 55.148 16.799 54.3797 16.8479C53.757 16.8725 53.1133 16.8968 52.4906 16.9701C52.5112 17.2389 52.5321 17.5322 52.5528 17.7767C52.5528 17.9723 52.5736 18.1432 52.5943 18.3631V18.4853C52.5943 18.5099 52.615 18.5342 52.615 18.5342V18.5588C52.6565 18.8522 52.7396 19.1698 52.8019 19.4386C52.8227 19.4875 52.8434 19.5119 52.8849 19.5608C52.9058 19.5608 52.9058 19.5854 52.9265 19.5854V19.6097C52.9472 19.6097 52.9887 19.6343 53.0302 19.6343H53.4455C53.4663 19.6343 53.6739 19.5854 53.6739 19.5854C54.4006 19.4386 55.1273 19.2676 55.8539 19.0722C56.6635 18.8522 57.4109 19.3408 57.7017 20.2942C57.9301 21.174 57.4109 22.2985 56.6428 22.4693C54.7328 22.9338 52.2828 23.9604 50.705 22.005C50.1237 21.2719 49.8329 20.2942 49.7085 19.3408C49.584 18.241 49.4801 17.19 49.4386 16.1145Z" fill="white"/>
<path d="M66.2959 9.78687C65.7354 9.39563 64.988 9.24912 64.199 9.1024H64.1782C64.2612 11.2534 64.3443 13.3798 64.4066 15.5306C65.1333 15.2618 65.8391 14.7973 66.3581 14.113C67.2302 12.9886 67.7076 10.7644 66.2959 9.78687ZM64.5312 21.3475C64.552 22.3497 63.8253 23.0831 63.0364 23.1074C62.2266 23.1563 61.5623 22.2765 61.5416 21.3475C61.4792 16.557 61.2923 11.7666 61.0641 6.97616C61.0226 5.99847 61.7907 5.2651 62.5589 5.2162C62.9535 5.19185 63.2648 5.36292 63.5138 5.60723C64.6143 5.50963 65.9014 5.7296 67.0224 6.26714C68.9949 7.19593 70.3237 9.46909 70.2406 11.9866C70.1784 14.2352 69.0364 16.1903 67.4794 17.5836C67.8945 17.7303 68.3097 17.8525 68.7456 17.9747C69.5554 18.2435 69.9498 19.2456 69.7838 20.15C69.6177 21.1033 68.725 21.6163 67.936 21.3964C66.7941 21.0299 65.6523 20.6389 64.5105 20.1257C64.5105 20.5165 64.5312 20.9321 64.5312 21.3475Z" fill="white"/>
<path d="M84.7044 14.7373C84.9067 19.3608 80.5707 23.7352 79.2337 23.0206C78.1454 22.4391 78.776 18.3418 77.3654 17.7572C76.8486 17.5431 76.3082 17.5951 76.3082 17.5951C75.6911 17.6545 75.6104 17.9428 74.9736 17.9912C74.4737 18.0294 74.0643 17.8862 73.7654 17.7826C73.336 17.6336 73.1213 17.5591 73.0694 17.4269C72.7812 16.6923 75.3908 14.7664 75.1884 14.3597C75.1204 14.2229 74.8108 14.4115 74.2834 14.4422C73.3029 14.4992 72.2861 13.9695 71.6521 13.1352C71.5134 12.9528 70.6516 11.8189 70.9781 10.9301C71.1976 10.3325 71.8571 10.1105 72.1797 10.002C72.9649 9.73763 73.2806 10.0661 73.8492 9.78447C74.3035 9.55955 74.3421 9.20875 74.855 8.52821C75.0981 8.20548 75.7167 7.38461 76.5303 6.9715C77.593 6.43189 78.6959 6.73626 79.8529 7.05569C80.508 7.23666 80.8761 7.28329 81.2343 7.5693C81.4661 7.75439 81.563 7.90441 82.1823 8.66378C82.6634 9.25374 82.8939 9.51766 82.9854 9.63157C83.6031 10.4004 84.6136 12.662 84.7044 14.7373Z" fill="#EDB506"/>
<path d="M111.041 22.13C109.587 22.8878 108.072 22.8878 106.639 22.1057C104.272 20.8346 102.944 17.6817 102.86 14.7489C102.778 11.7425 103.982 8.88273 106.099 7.19643C108.092 5.60753 110.791 5.33865 113.054 6.53631C113.823 6.92755 113.947 8.17412 113.615 8.93163C113.449 9.32287 113.054 9.64045 112.722 9.76261C112.286 9.88477 111.933 9.83607 111.56 9.56719C111.124 9.24941 110.418 9.1516 109.649 9.27397C106.515 9.81151 104.958 14.1133 106.577 17.3883C107.573 19.4658 109.857 20.0281 110.916 17.535C111.061 17.1929 111.144 16.7529 111.165 16.313C111.165 14.8956 110.065 15.702 109.234 15.6042C108.383 15.5309 107.76 14.871 107.719 13.8201C107.677 13.16 108.092 12.5979 108.653 12.3046C110.21 11.498 112.577 11.7912 113.594 13.6245C114.362 15.0421 114.321 16.9975 113.823 18.5127C113.304 20.077 112.369 21.4458 111.041 22.13Z" fill="white"/>
<path d="M116.438 18.3402C116.645 17.3868 117.538 16.898 118.285 17.1179C119.074 17.3625 120.507 17.7781 121.151 16.9223C121.69 16.1159 120.901 15.3827 120.403 14.9428C119.136 13.8427 117.289 12.5229 116.79 10.7877C115.524 6.41267 120.154 3.52871 123.227 3.62632C124.057 3.65087 124.68 4.45729 124.721 5.41063C124.742 6.36377 123.995 7.09693 123.227 7.17019C120.901 7.39036 118.119 9.00361 120.61 10.7143C121.711 11.643 123.787 13.1585 124.368 14.9915C124.7 15.9937 124.597 17.069 124.223 18.0224C123.081 20.9309 120.112 21.2241 117.496 20.5153C116.687 20.2953 116.271 19.22 116.438 18.3402Z" fill="white"/>
<path d="M97.9611 13.5387C97.5378 15.8719 96.2358 20.6173 94.4532 21.2193C92.6686 21.8218 89.3477 18.6287 89.4429 15.3209C89.4776 14.1142 91.1552 12.5513 94.4532 9.42262C95.1217 8.78829 96.0456 7.94597 97.2978 7.86817C97.9104 7.83021 98.5395 7.97898 99.0832 8.10775C99.9132 8.30399 100.365 8.41108 100.838 8.79036C101.615 9.41416 102.203 10.5778 101.966 10.9486C101.655 11.4378 100.231 10.0462 99.1251 10.6929C98.3171 11.1652 98.1609 12.4376 97.9611 13.5387Z" fill="#EDB506"/>
<path fill-rule="evenodd" clip-rule="evenodd" d="M95.822 21.3967C98.7813 19.8302 99.3793 15.9946 99.4761 15.3733C99.8014 13.2871 99.3909 11.5618 99.1248 10.693C99.3066 10.6895 99.5642 10.6937 99.8703 10.7304C101.171 10.8868 101.706 11.434 101.994 11.1476C102.27 10.8732 102.172 9.99825 101.884 9.57667C100.301 7.26142 97.7317 7.08251 95.6171 8.43081C95.3384 8.26738 94.9258 8.06453 94.4061 7.94753C92.1314 7.43578 90.2752 9.12559 90.0165 9.36867C87.8574 11.3971 87.7876 14.5279 87.7943 15.2792C87.8111 17.1962 88.4584 18.5626 88.5899 18.8319C88.7844 19.2306 89.3112 20.2832 90.3182 21.0605C91.9812 22.344 94.1786 22.2666 95.822 21.3967ZM96.6556 14.9562C96.6113 15.2893 96.3247 17.1617 94.8998 17.9599C94.0061 18.4605 92.75 18.491 91.8545 17.6369C91.1185 16.9349 90.9569 15.9508 90.9183 15.6952C90.7173 14.3652 91.2864 13.3184 91.6077 12.7276C92.1754 11.6835 92.9018 11.1511 93.2263 10.919C93.9083 10.4314 94.2301 10.6412 94.8723 10.1439C95.5584 9.61279 95.5794 9.15613 96.0246 8.6904C97.3902 7.26266 100.53 8.06825 101.59 9.85504C101.69 10.0232 101.897 10.3808 101.791 10.6002C101.561 11.0756 100.243 10.1062 98.7133 10.5315C98.6367 10.5527 96.9923 11.0368 96.5576 12.4633C96.2777 13.3822 96.8192 13.7287 96.6556 14.9562Z" fill="white"/>
<path d="M75.188 14.3577C74.9663 14.6291 74.6042 15.0011 74.0829 15.2413C73.6037 15.4621 73.3458 15.4089 73.0675 15.6619C72.8363 15.8721 72.5833 16.3042 72.5786 17.3001C72.6351 17.4619 72.6915 17.6239 72.7478 17.7856C72.827 17.7941 72.945 17.792 73.0566 17.7186C73.1765 17.6397 73.2329 17.5159 73.2575 17.4664C73.3341 17.3116 73.6762 17.0545 74.3574 16.5465C74.571 16.387 74.7074 16.2886 74.8636 16.3286C74.9447 16.3496 75.0019 16.4006 75.0935 16.3787C75.2078 16.3513 75.259 16.2386 75.3263 16.1544C75.5077 15.9276 75.7905 15.9301 75.9398 15.9056C76.5675 15.802 77.5052 14.6646 77.361 14.3241C77.303 14.1873 76.9098 14.2116 76.126 14.2663C75.7291 14.2942 75.4041 14.3307 75.188 14.3577Z" fill="#EA86B4"/>
<path d="M82.2694 4.35881C80.2973 3.33035 78.1578 3.1368 76.0415 3.28269C75.8382 3.29672 75.5081 3.31385 75.2397 3.5821C74.3304 4.49128 75.1794 7.16889 75.3361 7.64845C75.6359 7.38638 76.0737 7.05829 76.6466 6.79767C76.6466 6.79767 77.2534 6.52177 77.8861 6.42046C78.898 6.25847 80.5667 6.48401 81.7294 7.57313C84.3188 9.99878 83.2639 14.7791 83.1526 15.2541C82.2284 19.2016 79.1771 20.8718 78.697 21.1236C78.6956 20.9032 78.6796 20.6434 78.6335 20.3564C78.5661 19.9354 78.4549 19.5887 78.3513 19.3281C78.3077 19.1052 78.2052 18.7252 77.9456 18.3568C77.8343 18.1988 77.5799 17.8469 77.1465 17.6816C76.8737 17.5778 76.632 17.5865 76.4508 17.5931C76.2262 17.6014 76.0396 17.6424 75.9055 17.6816C75.7898 19.4876 75.7226 20.8743 75.707 21.5363C75.7028 21.7174 75.6986 22.003 75.724 22.3703C75.7442 22.6636 75.7829 23.0014 75.8541 23.374C76.1857 25.1084 76.5605 25.4751 78.3452 25.0847C81.9148 23.8627 84.7605 20.4649 85.9023 16.3579C87.148 11.9587 86.1301 6.38868 82.2694 4.35881Z" fill="white"/>
<path d="M80.8562 10.9733C80.7778 11.1262 80.7202 11.2948 80.7254 11.4766C80.8571 11.3589 80.8955 11.1559 80.8562 10.9733Z" fill="#1C3A8C"/>
<path d="M81.0646 10.9564C81.062 10.9073 81.0229 11.0507 81.0154 11.0692C80.9682 11.2178 80.9824 11.3841 81.0364 11.5273C81.1146 11.3493 81.1139 11.1448 81.0646 10.9564Z" fill="#1C3A8C"/>
<path d="M81.3935 11.4203C81.3732 11.3411 81.3406 11.2672 81.3108 11.1929C81.2801 11.3413 81.2708 11.5014 81.3304 11.6417C81.3499 11.6927 81.3751 11.7412 81.4042 11.7852C81.4221 11.6651 81.4254 11.5375 81.3935 11.4203Z" fill="#1C3A8C"/>
<path d="M81.5195 11.2197C81.507 11.1968 81.5012 11.1469 81.497 11.2022C81.497 11.2013 81.4972 11.2007 81.4973 11.1999C81.4965 11.2059 81.4956 11.2119 81.4947 11.2178C81.4947 11.2174 81.4947 11.217 81.4947 11.217C81.4544 11.4157 81.4771 11.6258 81.5693 11.8008C81.6268 11.608 81.6015 11.3974 81.5195 11.2197Z" fill="#1C3A8C"/>
<path d="M74.5432 9.07572C74.5663 9.08934 74.5939 9.04126 74.5984 9.02702C74.7388 8.83037 74.7637 8.55551 74.6967 8.31614C74.6236 8.55613 74.543 8.79591 74.5332 9.05426C74.5334 9.05344 74.5334 9.0524 74.5336 9.05137C74.5329 9.06128 74.5351 9.07036 74.5432 9.07572Z" fill="#1C3A8C"/>
<path d="M74.8547 8.52734C74.8769 8.43201 74.947 8.36618 74.9919 8.28571C75.0708 8.15942 75.0825 7.99744 75.099 7.84742C75.0094 8.02797 74.7642 8.30696 74.8547 8.52734Z" fill="#1C3A8C"/>
<path d="M77.3696 6.87889C77.4633 6.85598 77.5454 6.79139 77.6064 6.70555C77.6179 6.68182 77.7063 6.5836 77.6493 6.61703C77.649 6.61723 77.6486 6.61723 77.6486 6.61723C77.5534 6.64984 77.4553 6.68038 77.3739 6.75033C77.3236 6.79036 77.2775 6.837 77.2339 6.88673C77.2786 6.89416 77.3254 6.89065 77.3696 6.87889Z" fill="#1C3A8C"/>
<path d="M77.6 6.76933C77.5628 6.79802 77.5291 6.83619 77.5039 6.87891C77.5766 6.87581 77.6504 6.86322 77.7179 6.83C77.7821 6.79678 77.8366 6.74437 77.8908 6.69298C77.7908 6.69216 77.6837 6.69649 77.6 6.76933Z" fill="#1C3A8C"/>
<path d="M77.7217 6.86381C77.8887 6.91643 78.0475 6.82233 78.1871 6.72287C78.0219 6.67954 77.8491 6.73278 77.7217 6.86381Z" fill="#1C3A8C"/>
<path d="M78.0454 6.86661C78.0596 6.86516 78.0738 6.86434 78.0882 6.86372C78.0877 6.86372 78.0871 6.86372 78.0866 6.86392C78.0877 6.86372 78.0887 6.86372 78.0898 6.86372C78.0892 6.86372 78.0887 6.86372 78.0882 6.86372C78.4321 6.87011 78.7772 6.92975 79.1208 6.87651C79.2654 6.85134 79.4089 6.80491 79.539 6.72546C79.3981 6.73722 79.2556 6.73764 79.1139 6.73434C78.762 6.76075 78.3534 6.6064 78.0454 6.86661Z" fill="#1C3A8C"/>
<path d="M79.4823 6.81417C79.4047 6.82552 79.3253 6.85833 79.2695 6.92436C79.3433 6.92601 79.4168 6.94211 79.4892 6.95841C79.6492 6.99906 79.8541 7.01041 79.9952 6.95057H79.9955C79.8282 6.88887 79.6636 6.78116 79.4823 6.81417Z" fill="#1C3A8C"/>
<path d="M79.7772 7.07743C79.7274 7.07434 79.6764 7.07764 79.6289 7.09518C79.6976 7.14903 79.769 7.2033 79.8482 7.23302C80.0981 7.44742 80.3316 7.56875 80.6597 7.49385C80.8029 7.46929 80.9505 7.44205 81.0922 7.49199C81.2432 7.54399 81.3651 7.66718 81.4925 7.76953C81.229 7.16719 80.9616 7.28131 80.4762 7.31762C80.3339 7.31783 80.1949 7.28027 80.0554 7.252C80.0736 7.24829 80.1619 7.22642 80.1458 7.21569L80.1465 7.21589C80.0238 7.16823 79.9104 7.07949 79.7772 7.07743Z" fill="#1C3A8C"/>
<path d="M78.7909 12.4813C78.7888 11.9712 78.8985 11.4727 79.008 10.9828C79.0592 10.743 79.1237 10.5076 79.1993 10.2769C79.4138 9.52161 79.9018 8.70281 79.7214 7.88484C79.6822 8.02412 79.6457 8.16547 79.6124 8.30724C79.4886 9.02224 79.2504 9.69391 79.0413 10.3776C78.8515 11.1301 78.6438 11.9076 78.6703 12.7007C78.6834 12.9739 78.7716 13.257 78.9588 13.4297C78.842 13.1352 78.7977 12.8047 78.7909 12.4813Z" fill="#1C3A8C"/>
<path d="M79.3765 8.07895C79.3968 8.15345 79.4205 8.22711 79.442 8.30078C79.4769 8.14354 79.5109 7.97103 79.4573 7.814C79.4234 7.70876 79.3581 7.61074 79.2671 7.56968C79.3204 7.73414 79.3263 7.91325 79.3765 8.07895Z" fill="#1C3A8C"/>
<path d="M77.6429 10.08C77.5565 10.0163 77.4476 10.0016 77.354 10.0516C77.4383 10.1236 77.5487 10.1226 77.6429 10.08Z" fill="#1C3A8C"/>
<path d="M81.4731 7.82167C81.5753 8.59714 82.2756 8.9143 82.7334 9.3691C82.9445 9.56781 83.1232 9.68832 83.0438 10.047C83.0298 10.1569 83.0188 10.2717 83.0472 10.3798C83.061 10.4341 83.0857 10.4842 83.1166 10.5273C83.1113 10.4875 83.1085 10.4467 83.1101 10.406C83.1175 10.2688 83.1757 10.1462 83.2093 10.0166C83.3075 9.68873 83.0864 9.43534 82.8812 9.25725C82.6367 9.02222 82.3718 8.81793 82.1299 8.57877C81.8987 8.34209 81.6872 8.0794 81.4731 7.82167Z" fill="#1C3A8C"/>
<path d="M83.1205 10.8204C83.1343 10.7969 83.0963 10.7088 83.101 10.7585C83.0974 10.8699 82.9075 10.7913 82.8425 10.8334C82.3715 11.0299 82.045 11.5162 81.6571 11.866C81.3458 12.1522 81.0092 12.3992 80.6801 12.6559C80.3167 12.9068 79.8163 13.3393 79.3895 13.3117C79.2587 13.3018 79.1318 13.2574 79.0093 13.2054C79.2412 13.5508 79.5966 13.5643 79.9113 13.3721C80.2855 13.1639 80.6383 12.9074 80.9838 12.6402C81.2029 12.4673 81.4261 12.3008 81.641 12.1208C81.9391 11.8623 82.204 11.5544 82.503 11.2973C82.6372 11.1844 82.7762 11.0794 82.9135 10.9719C82.9841 10.9283 83.0881 10.9182 83.1205 10.8204Z" fill="#1C3A8C"/>
<path d="M76.227 9.35525L76.2296 9.35422C76.0384 9.45616 75.9497 9.35628 76.0485 9.13363C76.0412 9.13549 76.0336 9.13817 76.0263 9.14147C76.0426 9.12042 76.0668 9.12703 76.0867 9.13755C76.086 9.13425 76.0852 9.13115 76.0841 9.12806C76.1512 9.19842 76.2026 9.26858 76.2627 9.34122C76.2508 9.34411 76.2389 9.34947 76.227 9.35525ZM76.7141 9.72916C76.7376 9.70955 76.7579 9.69016 76.7761 9.67014C76.8368 9.67282 76.8992 9.65941 76.9544 9.63135C76.7926 9.60019 76.6618 9.45884 76.5304 9.33544C76.3965 9.21885 76.2347 9.10618 76.0715 9.10226C75.9665 8.99331 75.8407 9.19099 75.8371 9.31398C75.8021 9.36144 75.7937 9.43635 75.8054 9.49619C75.2719 9.50135 75.5772 9.87113 75.9151 9.71946C75.9059 9.71554 75.8967 9.71162 75.8878 9.7079C75.8967 9.71162 75.9059 9.71574 75.9151 9.71946C75.8466 9.69098 75.7735 9.65838 75.7108 9.62247C75.7495 9.59606 75.7861 9.56676 75.8175 9.53828C75.838 9.59565 75.8843 9.64125 75.935 9.66374C75.9153 9.67736 75.9286 9.69965 75.9318 9.71822C75.9365 9.71224 75.9374 9.70543 75.9395 9.69841C76.1428 9.92932 76.489 9.92767 76.7141 9.72916Z" fill="#1C3A8C"/>
<path d="M76.041 8.7898C76.2557 9.18393 76.6282 9.46291 77.0296 9.48438C76.6952 9.26317 76.406 8.94539 76.041 8.7898Z" fill="#1C3A8C"/>
<path d="M75.7142 9.17265C75.6906 9.24858 75.6928 9.33525 75.7183 9.41016C75.7792 9.27108 75.8401 9.13138 75.8949 8.98838C75.8124 9.00406 75.7433 9.08206 75.7142 9.17265Z" fill="#1C3A8C"/>
<path d="M76.7803 9.7733C76.8709 9.77206 76.9484 9.83645 77.0329 9.86575C77.0967 9.88989 77.1626 9.91053 77.229 9.92188C77.1741 9.835 77.1066 9.7506 77.0187 9.7116C76.9352 9.67673 76.8213 9.68086 76.7666 9.77413C76.771 9.77413 76.7757 9.7733 76.7803 9.7733Z" fill="#1C3A8C"/>
<path d="M75.1167 8.12891C75.2864 8.11838 75.3191 7.87819 75.367 7.72797C75.2277 7.81567 75.2022 7.99354 75.1167 8.12891Z" fill="#1C3A8C"/>
<path d="M75.3237 7.91632C75.3197 7.93469 75.3169 7.95388 75.3169 7.97266C75.3516 7.94562 75.3856 7.91694 75.4156 7.88289C75.4596 7.83296 75.488 7.76878 75.512 7.70337C75.4289 7.74196 75.3448 7.80696 75.3237 7.91632Z" fill="#1C3A8C"/>
<path d="M75.4976 7.85156C75.8013 7.66647 76.0569 7.39202 76.3596 7.20589C76.4288 7.16276 76.5002 7.12376 76.5748 7.09549C76.7342 7.04102 76.9116 7.04329 77.0535 6.93124C77.0984 6.89719 77.1396 6.85448 77.1764 6.80949C76.9782 6.9496 76.7433 6.89781 76.53 6.97189C76.1342 7.14914 75.7004 7.38892 75.4976 7.85156Z" fill="#1C3A8C"/>
<path d="M76.1983 11.104C76.149 11.07 76.0978 11.0386 76.0498 11.0023C76.057 11.1038 76.1182 11.1938 76.1949 11.2367C76.2514 11.2687 76.3161 11.2766 76.3778 11.2724C76.321 11.2128 76.2642 11.1501 76.1983 11.104Z" fill="#1C3A8C"/>
<path d="M76.5708 11.1402C76.568 11.1379 76.5643 11.136 76.5613 11.1338L76.5617 11.134C76.4462 11.0477 76.331 10.9303 76.1855 10.9402C76.2737 11.0793 76.4178 11.201 76.5708 11.1402Z" fill="#1C3A8C"/>
<path d="M76.6529 11.0735C76.5712 10.9635 76.4555 10.8857 76.3286 10.8927C76.401 11.0171 76.5263 11.0821 76.6529 11.0735Z" fill="#1C3A8C"/>
<path d="M76.0038 8.03158C75.8876 8.19604 75.8045 8.3962 75.8022 8.61328C75.9625 8.48865 76.0494 8.25341 76.0038 8.03158Z" fill="#1C3A8C"/>
<path d="M76.3121 8.00328C76.1152 8.15475 75.9834 8.4001 75.958 8.67578C76.1328 8.50121 76.2903 8.28248 76.3121 8.00328Z" fill="#1C3A8C"/>
<path d="M71.9773 11.2959C71.8799 11.4793 71.7656 11.6504 71.6299 11.7969C71.7821 11.755 71.9216 11.651 72.0353 11.5266C72.1996 11.3359 72.3228 11.0639 72.3 10.7864C72.2883 10.63 72.2152 10.4808 72.1039 10.3939C72.161 10.559 72.1664 10.7457 72.1246 10.9164C71.9098 11.0078 71.6145 11.3875 71.4212 11.0685C71.4019 10.975 71.3924 10.8747 71.3602 10.7835C71.3379 10.6671 71.1833 10.6851 71.1793 10.8039C71.1747 10.9292 71.1982 11.0575 71.2518 11.1663C71.2711 11.2872 71.326 11.4188 71.4382 11.4442C71.52 11.4657 71.6048 11.4506 71.685 11.4269C71.6713 11.4217 71.6564 11.4174 71.6424 11.412C71.8306 11.399 71.9743 11.2311 72.0825 11.0637C72.0569 11.1467 72.0175 11.2218 71.9773 11.2959Z" fill="#1C3A8C"/>
<path d="M72.3615 10.125C72.6358 10.1077 72.9054 10.0359 73.1786 10.0041C73.4687 9.97168 73.7569 9.92133 74.0342 9.81176C74.1947 9.77606 74.3357 9.66483 74.4507 9.53174C74.6766 9.27855 74.8608 8.97377 74.9774 8.63267C74.6042 9.01669 74.3183 9.55547 73.8491 9.78431C73.4316 9.74201 73.0135 9.82496 72.5985 9.87325C72.3804 9.90461 72.168 9.98963 71.9766 10.1163C72.1042 10.1291 72.2332 10.1324 72.3615 10.125Z" fill="#1C3A8C"/>
<path d="M75.4471 15.5547C75.4654 15.4525 75.502 15.3551 75.5355 15.2586C75.5656 15.1913 75.5996 15.0264 75.6843 15.11C75.729 15.1476 75.7663 15.196 75.8121 15.232C75.805 15.2027 75.7993 15.1723 75.7923 15.1428C75.7465 14.8867 75.5206 14.8477 75.4284 15.0898C75.3779 15.2355 75.3765 15.4179 75.4471 15.5547Z" fill="#1C3A8C"/>
<path d="M72.6922 17.3118C72.7588 16.7831 72.8836 16.0741 73.2091 15.681C73.3447 15.5419 73.5251 15.4976 73.6904 15.4288C73.903 15.3333 74.1097 15.2204 74.3196 15.1171C73.9049 15.3849 73.4466 15.6525 73.2196 16.168C73.3907 16.0052 73.5786 15.8673 73.7593 15.7192C74.0457 15.4941 74.3624 15.3317 74.6685 15.1484C74.8367 15.0384 74.9894 14.8936 75.1121 14.7188C75.0141 14.752 74.9163 14.7894 74.8206 14.8315C74.9643 14.7219 75.0746 14.5649 75.1975 14.4268C74.8767 14.5087 74.6082 14.7586 74.3112 14.9144C74.0771 15.0426 73.845 15.1808 73.6003 15.2795C73.2636 15.3849 73.0182 15.4866 72.8643 15.8863C72.6836 16.2996 72.584 16.7561 72.5323 17.215C72.488 17.4319 72.4894 17.6973 72.7225 17.7385C72.8454 17.7559 72.9661 17.7078 73.0836 17.6733C72.8871 17.6034 72.6068 17.668 72.6922 17.3118Z" fill="#1C3A8C"/>
<path d="M76.4275 17.4325C76.0638 17.4236 75.7234 17.6023 75.3814 17.7243C74.9376 17.8883 74.4393 17.9205 74.0053 17.7005C73.8437 17.63 73.6781 17.5602 73.5049 17.5474C73.6533 17.6847 73.7999 17.8324 73.975 17.9211C74.3736 18.1042 74.8232 18.0559 75.2311 17.9403C75.5921 17.8339 75.9334 17.6298 76.3082 17.5924C76.5083 17.5691 76.7124 17.5817 76.9106 17.5388C76.7514 17.4934 76.5919 17.441 76.4275 17.4325Z" fill="#1C3A8C"/>
<path d="M74.1033 16.3147C74.2483 16.1583 74.4348 16.0821 74.6215 16.0235C74.6134 16.0411 74.6071 16.0592 74.601 16.0774C74.5051 16.0382 74.4052 16.1806 74.5459 16.209C74.5067 16.2493 74.4693 16.2928 74.4406 16.3444C74.3195 16.3479 73.9736 16.3706 73.965 16.5571C73.9244 16.5862 73.8862 16.6195 73.8497 16.6554C73.9231 16.5311 74.0068 16.415 74.1033 16.3147ZM76.5352 16.487C76.5634 16.4728 76.5913 16.4575 76.619 16.4416C76.6279 16.4484 76.6361 16.4552 76.6453 16.461C76.6088 16.4709 76.572 16.4789 76.5352 16.487ZM74.3843 16.4996C74.3824 16.5095 74.3808 16.5192 74.3796 16.5291C74.365 16.5324 74.3505 16.5357 74.3361 16.5396C74.3524 16.5268 74.3685 16.5134 74.3843 16.4996ZM76.1254 15.8494C76.0924 15.8673 76.0582 15.8824 76.0228 15.8915C76.0639 15.8733 76.1047 15.8549 76.1457 15.8366C76.1389 15.8409 76.1322 15.8452 76.1254 15.8494ZM76.1802 16.1193C76.094 16.1801 75.9876 16.1222 75.8966 16.104C76.0146 16.123 76.1347 16.0978 76.2381 16.0274C76.2192 16.0582 76.2025 16.0914 76.1802 16.1193ZM74.4791 16.525C74.4823 16.5208 74.4854 16.5167 74.4888 16.5126C74.4953 16.5146 74.5016 16.5169 74.5081 16.5192C74.5007 16.5223 74.4935 16.5256 74.4863 16.5289C74.484 16.5274 74.4816 16.5262 74.4791 16.525ZM73.5217 17.3477C73.6113 17.3776 73.7177 17.2876 73.8013 17.2536C73.7291 17.3194 73.7181 17.4546 73.8304 17.4608C73.9903 17.3939 74.1366 17.2825 74.2905 17.1972C74.3475 17.1651 74.405 17.1347 74.4639 17.1075C74.3757 17.0984 74.287 17.1052 74.2001 17.1226C74.2371 17.0819 74.2704 17.0373 74.2963 16.9855C74.3997 16.9585 74.5044 16.9364 74.6095 16.9205C74.8961 16.8867 75.2039 16.935 75.4633 16.7559C76.2747 16.7385 77.3709 16.6838 77.9075 15.8578C78.1187 15.4843 78.1523 14.8657 77.8004 14.5939C77.6473 14.3094 77.3303 14.2512 77.0686 14.2019C76.6544 14.1523 76.2376 14.101 75.8209 14.1251C75.4532 14.1585 75.0882 14.1744 74.7172 14.1616C73.8986 14.1323 73.0736 13.8333 72.3705 13.3591C71.9922 13.095 71.7483 12.8509 71.4196 12.5457C71.4357 12.6154 71.461 12.6858 71.4934 12.7516C71.4892 12.7669 71.486 12.7832 71.4838 12.7997C71.35 12.517 71.2632 12.2114 71.1707 11.9083C71.3169 12.1169 71.4969 12.0249 71.6503 11.885C71.3015 11.9473 71.3335 11.8724 71.1867 11.5329C71.1118 11.3334 71.0319 11.1351 70.9781 10.926C70.9123 11.1733 70.9512 11.4483 71.044 11.6792C71.0052 12.076 71.1392 12.4642 71.3255 12.7873C71.3483 12.8243 71.3726 12.8598 71.3984 12.894C71.445 12.9598 71.5046 13.0032 71.5262 13.0892C71.7565 13.5562 72.153 13.8092 72.5586 14.0498C73.0899 14.357 73.6876 14.5254 74.2833 14.4381C74.4968 14.4672 74.7149 14.4132 74.9242 14.3539C75.1447 14.4383 75.378 14.3979 75.6025 14.3626C75.7885 14.3362 75.9755 14.318 76.1629 14.3182C76.141 14.4187 76.1916 14.5182 76.2344 14.6016C76.1736 14.4695 76.032 14.4031 75.9373 14.5289C75.8213 14.708 75.9292 14.9359 75.9666 15.1251C76.0291 14.9895 76.0039 14.8224 76.0533 14.6822C76.261 14.8694 76.2334 14.8535 76.4984 14.8147C76.4106 14.7483 76.2868 14.7427 76.2421 14.6154C76.2728 14.6618 76.2705 14.3768 76.2735 14.3449C76.4083 14.3046 76.5499 14.3506 76.6872 14.3527C77.0379 14.3956 77.502 14.3824 77.7264 14.7576C77.7341 14.9895 77.616 15.1833 77.5096 15.3657C77.3373 15.6548 77.3557 15.5867 77.0924 15.6451C77.0251 15.6696 76.9718 15.7256 76.9227 15.7827C76.7883 15.9278 76.5925 15.83 76.4321 15.8822C76.576 15.7594 76.7524 15.6909 76.8694 15.5266C77 15.4635 77.1355 15.3723 77.2039 15.2208C77.2477 15.0886 77.277 14.933 77.2631 14.7935C77.2279 14.8539 77.1914 14.9222 77.1564 14.986C77.1687 14.9381 77.2379 14.74 77.176 14.7262C77.1601 14.7217 77.1424 14.7332 77.1375 14.7514C77.1376 14.7508 77.1378 14.7501 77.138 14.7495C76.8521 15.4086 76.2149 15.6327 75.6712 15.889C75.4195 15.8979 75.2248 16.1257 75.056 16.3209C75.0761 16.2189 75.0693 16.0165 74.9385 16.0697C74.9265 15.981 74.8343 15.9614 74.7818 16.0165C74.7713 15.9981 74.7563 15.9837 74.7386 15.9752C74.9889 15.8644 75.154 15.5918 75.2647 15.317C75.0782 15.4612 74.9102 15.6412 74.7137 15.7677C74.608 15.8263 74.494 15.8582 74.3848 15.9059C73.9677 16.083 73.683 16.5256 73.4877 16.976C73.4027 17.1783 73.3468 17.4288 73.1579 17.5309C73.296 17.5559 73.4301 17.4676 73.5151 17.3433C73.5172 17.345 73.5195 17.3464 73.5217 17.3477Z" fill="#1C3A8C"/>
<path d="M79.6003 20.2617C79.3365 19.5182 78.8296 18.9376 78.3523 18.3767C78.0733 18.0791 77.4407 17.347 77.0449 17.5276C76.9895 17.5558 76.9466 17.6182 76.9404 17.6894C76.9799 17.6328 77.0431 17.6101 77.1033 17.625C77.5897 17.8208 77.9983 18.2252 78.3711 18.6315C78.8335 19.1185 79.1989 19.7091 79.6003 20.2617Z" fill="#1C3A8C"/>
<path d="M78.8096 20.0038C78.7293 19.6553 78.5839 19.309 78.3432 19.0765C78.2962 19.0317 78.2452 18.9917 78.1914 18.9599C78.2936 19.1794 78.3882 19.404 78.4953 19.6206C78.621 19.8996 78.7434 20.1833 78.8431 20.4766C78.8562 20.3183 78.841 20.158 78.8096 20.0038Z" fill="#1C3A8C"/>
<path d="M78.8285 20.8187C78.8569 20.7207 78.8506 20.6136 78.8287 20.515C78.7633 20.6113 78.73 20.7372 78.7454 20.86C78.7489 20.898 78.7552 20.9361 78.7635 20.9727C78.7903 20.9246 78.8127 20.8732 78.8285 20.8187Z" fill="#1C3A8C"/>
<path d="M79.5716 18.3767C79.4624 18.0325 79.272 17.6474 78.9425 17.568C78.8962 17.5583 78.8487 17.555 78.8022 17.5626C78.8587 17.5963 78.9113 17.6386 78.9602 17.686C79.031 17.7568 79.0932 17.8385 79.1519 17.9231C79.3567 18.2118 79.5013 18.5506 79.6718 18.8672C79.652 18.7011 79.618 18.5356 79.5716 18.3767Z" fill="#1C3A8C"/>
<path d="M79.78 18.4164C79.7232 18.2915 79.6466 18.1801 79.5616 18.0802C79.5604 18.1883 79.576 18.2981 79.6042 18.4013C79.651 18.5951 79.7642 18.7498 79.8622 18.9102C79.8622 18.9102 79.862 18.9097 79.8618 18.9093C79.8836 18.795 79.8403 18.554 79.78 18.4164Z" fill="#1C3A8C"/>
<path d="M80.0578 18.8058C80.0054 18.6847 79.9218 18.5792 79.8184 18.5175C79.8569 18.6667 79.8925 18.8186 79.9496 18.9599C79.998 19.073 80.0578 19.1793 80.1106 19.2891C80.1219 19.1267 80.1209 18.9546 80.0578 18.8058Z" fill="#1C3A8C"/>
<path d="M78.0756 16.3529C77.9225 16.3775 77.7783 16.4703 77.6831 16.6142C77.6626 16.6445 77.644 16.6773 77.6284 16.7109C77.6838 16.6849 77.7397 16.6608 77.7967 16.6395C77.9895 16.5692 78.1918 16.5459 78.3914 16.5168C78.4687 16.5046 78.5472 16.4996 78.6238 16.4821C78.5748 16.453 78.5208 16.4332 78.4685 16.4123C78.3422 16.3647 78.2084 16.3335 78.0756 16.3529Z" fill="#1C3A8C"/>
<path d="M77.1555 16.9C77.0267 16.9207 76.9045 16.9933 76.8101 17.0977C76.9441 17.1041 77.0798 17.1039 77.2136 17.0866C77.3287 17.068 77.4428 17.0368 77.5592 17.0294C77.4435 16.9332 77.2973 16.8804 77.1555 16.9Z" fill="#1C3A8C"/>
</g>
</g>
</g>
<defs>
<clipPath id="clip0_2557_105895">
<rect x="0.6875" y="0.84375" width="124.625" height="26.3097" rx="2.13034" fill="white"/>
</clipPath>
</defs>
</svg>
