<svg width="38" height="37" viewBox="0 0 38 37" fill="none" xmlns="http://www.w3.org/2000/svg">
<g filter="url(#filter0_d_1598_86757)">
<path fill-rule="evenodd" clip-rule="evenodd" d="M22.9565 2.10368C21.9674 2.38645 20.9733 3.28726 20.4865 4.34211C19.9891 5.41989 19.8998 5.88897 19.903 7.40562C19.9057 8.63793 19.9179 8.7651 20.0907 9.36135C21.055 12.6897 23.7314 13.871 25.7532 11.8606C26.4538 11.164 26.9044 10.368 27.2142 9.27985C27.374 8.71851 27.3935 8.53228 27.3987 7.51248C27.4023 6.79463 27.3711 6.21434 27.3144 5.94511C26.8958 3.9596 25.6225 2.39079 24.1688 2.06955C23.7085 1.96782 23.4014 1.97644 22.9565 2.10368ZM13.5497 2.13952C13.136 2.24318 12.4984 2.62205 12.1418 2.97621C10.6357 4.47177 10.1388 7.31457 10.9474 9.8109C11.5384 11.6355 12.8867 12.8406 14.337 12.8406C15.8606 12.8406 17.2599 11.4863 17.8911 9.40046C18.0439 8.8957 18.0799 8.62725 18.1072 7.78777C18.1541 6.34621 17.9864 5.45502 17.4518 4.30649C16.7515 2.80159 15.7104 2.05153 14.3467 2.06941C14.0464 2.0734 13.6878 2.10489 13.5497 2.13952ZM6.29458 9.42404C5.7668 9.56703 5.34398 9.82601 4.99165 10.222C3.24633 12.1838 3.91083 16.8474 6.15572 18.3912C7.67486 19.4358 9.35088 18.956 10.1545 17.2465C10.4967 16.5185 10.5838 16.0297 10.5812 14.8507C10.5787 13.6925 10.4984 13.2242 10.1468 12.3179C9.80662 11.4409 9.15405 10.4933 8.52802 9.96728C7.92504 9.46059 6.99481 9.23432 6.29458 9.42404ZM30.4568 9.43915C29.9542 9.58862 29.5608 9.84602 29.0546 10.357C27.8735 11.5491 27.3129 13.1866 27.3942 15.2069C27.4339 16.195 27.529 16.6734 27.8046 17.2723C28.401 18.5681 29.7432 19.2247 30.9959 18.8336C32.4512 18.3792 33.6658 16.5004 33.9454 14.2711C34.148 12.6553 33.7816 11.1933 32.9318 10.2276C32.2558 9.45938 31.3545 9.17234 30.4568 9.43915ZM18.0441 14.7444C16.6469 14.9806 15.4522 15.5886 14.404 16.5969C12.7434 18.1943 8.89401 22.1105 8.5246 22.5784C7.92236 23.3409 7.58646 24.4313 7.59095 25.6086C7.6006 28.1372 9.23387 30.3833 11.4551 30.9229C11.9351 31.0395 13.0923 31.0213 13.8343 30.8854C14.1845 30.8214 15.0289 30.612 15.7109 30.4202C17.8222 29.8265 18.5786 29.7195 19.7655 29.8468C20.5857 29.9347 21.7815 30.1819 22.7479 30.4632C24.1499 30.8712 24.4097 30.923 25.2612 30.9645C26.2638 31.0135 26.8769 30.8913 27.6564 30.4872C28.8419 29.8728 29.8139 28.553 30.2263 26.9978C30.4177 26.2757 30.4035 24.8485 30.1978 24.1481C29.9027 23.1432 29.7115 22.8483 28.5804 21.6545C26.9278 19.9102 23.4472 16.4529 22.9582 16.0698C22.3513 15.5943 21.4091 15.1286 20.6219 14.9149C19.8881 14.7158 18.6841 14.6361 18.0441 14.7444Z" fill="url(#paint0_linear_1598_86757)"/>
</g>
<defs>
<filter id="filter0_d_1598_86757" x="0" y="0" width="38" height="37" filterUnits="userSpaceOnUse" color-interpolation-filters="sRGB">
<feFlood flood-opacity="0" result="BackgroundImageFix"/>
<feColorMatrix in="SourceAlpha" type="matrix" values="0 0 0 0 0 0 0 0 0 0 0 0 0 0 0 0 0 0 127 0" result="hardAlpha"/>
<feOffset dy="2"/>
<feGaussianBlur stdDeviation="2"/>
<feComposite in2="hardAlpha" operator="out"/>
<feColorMatrix type="matrix" values="0 0 0 0 0 0 0 0 0 0 0 0 0 0 0 0 0 0 0.12 0"/>
<feBlend mode="normal" in2="BackgroundImageFix" result="effect1_dropShadow_1598_86757"/>
<feBlend mode="normal" in="SourceGraphic" in2="effect1_dropShadow_1598_86757" result="shape"/>
</filter>
<linearGradient id="paint0_linear_1598_86757" x1="19" y1="2" x2="19" y2="31" gradientUnits="userSpaceOnUse">
<stop stop-color="#A167C9"/>
<stop offset="1" stop-color="#6806AC"/>
</linearGradient>
</defs>
</svg>
