<svg width="51" height="49" viewBox="0 0 51 49" fill="none" xmlns="http://www.w3.org/2000/svg">
<g clip-path="url(#clip0_438_92407)">
<path d="M20.7195 17.1362H16.2195C15.4239 17.1362 14.6608 17.4347 14.0982 17.9661C13.5356 18.4974 13.2195 19.2181 13.2195 19.9695V32.7195C13.2195 33.471 13.5356 34.1916 14.0982 34.723C14.6608 35.2543 15.4239 35.5529 16.2195 35.5529H29.7195C30.5152 35.5529 31.2783 35.2543 31.8409 34.723C32.4035 34.1916 32.7195 33.471 32.7195 32.7195V28.4695" stroke="#FF3C76" stroke-width="2.41033" stroke-linecap="round" stroke-linejoin="round"/>
<path d="M20.7195 28.4695H25.2195L37.9695 16.4278C38.5662 15.8642 38.9015 15.0998 38.9015 14.3028C38.9015 13.5058 38.5662 12.7414 37.9695 12.1778C37.3727 11.6142 36.5634 11.2976 35.7195 11.2976C34.8756 11.2976 34.0662 11.6142 33.4695 12.1778L20.7195 24.2195V28.4695Z" stroke="#FF3C76" stroke-width="2.41033" stroke-linecap="round" stroke-linejoin="round"/>
<path d="M31.2195 14.3029L35.7195 18.5529" stroke="#FF3C76" stroke-width="2.2726" stroke-linecap="round" stroke-linejoin="round"/>
</g>
<defs>
<clipPath id="clip0_438_92407">
<rect width="36" height="34" fill="white" transform="translate(7.21948 7.21951)"/>
</clipPath>
</defs>
</svg>
