<svg width="72" height="72" viewBox="0 0 72 72" fill="none" xmlns="http://www.w3.org/2000/svg">
<g filter="url(#filter0_d_789_438967)">
<rect x="12" y="10" width="48" height="48" rx="24" fill="url(#paint0_linear_789_438967)"/>
<path d="M35.118 21.811L35.1181 21.811C35.1523 21.8048 35.2124 21.803 35.2673 21.8019C35.3311 21.8005 35.4148 21.7999 35.5122 21.8C35.7073 21.8002 35.9604 21.8031 36.2249 21.8088C37.0727 21.8271 37.7229 21.8993 41.1936 22.356L45.1829 22.8809L45.2564 22.8906L45.3058 22.9459L45.4892 23.1509C45.6833 23.3677 46.8313 24.7857 47.9311 26.1555C48.4825 26.8424 49.0239 27.5198 49.4311 28.033C49.6346 28.2895 49.8048 28.5054 49.9261 28.6609C49.9866 28.7386 50.0354 28.8019 50.0702 28.8479C50.0874 28.8708 50.102 28.8903 50.1129 28.9056L50.1141 28.9073C50.1206 28.9163 50.1378 28.9401 50.1484 28.9626L50.1484 28.9627C50.1775 29.0244 50.1918 29.095 50.1972 29.1563L35.118 21.811ZM35.118 21.811C35.0656 21.8204 34.6684 21.8701 34.2279 21.9217L35.118 21.811ZM41.2836 23.5701C40.8483 23.5111 40.3175 23.4402 39.7472 23.3651L39.7733 23.167L39.7472 23.3651C36.5418 22.9426 35.8833 22.9084 34.5591 23.0736C34.4977 23.0813 34.4396 23.0886 34.3847 23.0955C33.9604 23.1487 33.7258 23.1781 33.5857 23.1759C33.4976 23.1746 33.4178 23.1614 33.3428 23.1168C33.2924 23.087 33.2473 23.0417 33.2197 23.014L41.2836 23.5701ZM41.2836 23.5701C40.7213 23.6837 39.9892 23.8296 39.1901 23.9869L36.0017 24.6146L32.8059 23.9854L32.7673 24.1817L32.8059 23.9854C31.8987 23.8068 31.2136 23.669 30.7229 23.566C30.7664 23.5605 30.8104 23.555 30.8547 23.5495L30.8548 23.5495C31.2822 23.4965 31.5428 23.461 31.7102 23.4242L41.2836 23.5701ZM32.0031 22.3844L32.0031 22.3844C32.1457 22.487 32.236 22.6359 32.2522 22.7997C32.2685 22.9645 32.2079 23.128 32.0806 23.2508C32.0806 23.2508 32.0806 23.2508 32.0806 23.2508L32.0031 22.3844ZM32.0031 22.3844L31.8553 22.2782L31.7911 22.2321M32.0031 22.3844L31.7911 22.2321M31.7911 22.2321L31.7127 22.2423M31.7911 22.2321L31.7127 22.2423M31.7127 22.2423L29.269 22.5616M31.7127 22.2423L29.269 22.5616M29.269 22.5616C28.1317 22.7102 27.5134 22.7928 27.1654 22.8531M29.269 22.5616L27.1654 22.8531M27.1654 22.8531C26.8293 22.9112 26.6936 22.9541 26.5841 23.0632M27.1654 22.8531L26.5841 23.0632M26.5841 23.0632C26.5537 23.0935 26.4568 23.2095 26.3241 23.3706M26.5841 23.0632L26.3241 23.3706M26.3241 23.3706C26.1861 23.5381 25.9984 23.7679 25.7781 24.039M26.3241 23.3706L25.7781 24.039M25.7781 24.039C25.3374 24.5812 24.7652 25.2895 24.1961 25.9965M25.7781 24.039L24.1961 25.9965M24.1961 25.9965C23.627 26.7035 23.0609 27.4095 22.6322 27.9472M24.1961 25.9965L22.6322 27.9472M22.6322 27.9472C22.418 28.216 22.2378 28.4431 22.1089 28.6073M22.6322 27.9472L22.1089 28.6073M22.1089 28.6073C22.0444 28.6893 21.9924 28.7562 21.9551 28.8048M22.1089 28.6073L21.9551 28.8048M21.9551 28.8048C21.9365 28.8291 21.921 28.8495 21.9093 28.8654M21.9551 28.8048L21.9093 28.8654M21.9093 28.8654L21.9088 28.8662M21.9093 28.8654L21.9088 28.8662M21.9088 28.8662C21.9007 28.8771 21.8857 28.8975 21.876 28.9151L21.9088 28.8662ZM50.1515 29.4296C50.1574 29.4195 50.1751 29.3892 50.1839 29.3552L30.6357 40.7453C30.6357 40.7454 30.6357 40.7454 30.6357 40.7454C31.0024 41.1129 31.6595 40.896 31.6595 40.3449C31.6595 40.2895 31.6372 40.2422 31.6298 40.2264L31.6293 40.2254C31.6175 40.2002 31.602 40.1727 31.5847 40.1441C31.5498 40.0863 31.4985 40.0096 31.4304 39.9127C31.2936 39.7182 31.0808 39.4307 30.7749 39.0275C30.1626 38.2204 29.1717 36.9424 27.6567 35.0018L27.4991 35.1248L27.6567 35.0018C26.5677 33.6067 25.5791 32.3368 24.8637 31.4148C24.5374 30.9942 24.268 30.6461 24.0719 30.3916C24.1946 30.4279 24.3337 30.4694 24.4858 30.515C25.0765 30.692 25.8629 30.9307 26.65 31.1714C27.437 31.4122 28.2245 31.655 28.8173 31.8401C29.1138 31.9326 29.3612 32.0106 29.5354 32.0667C29.6177 32.0932 29.6829 32.1145 29.729 32.1301C29.7366 32.1485 29.7455 32.1701 29.7556 32.195C29.7932 32.2873 29.8471 32.4217 29.9152 32.5923C30.0512 32.9335 30.243 33.4183 30.4719 33.999C30.9298 35.1602 31.5356 36.7039 32.1394 38.2467C32.7433 39.7895 33.345 41.3311 33.7945 42.4882C33.901 42.7623 33.9989 43.0149 34.0863 43.2407C33.9818 43.1074 33.8709 42.9655 33.7563 42.8183L33.5985 42.9411C32.9886 42.1576 32.4528 41.5029 32.4079 41.4862L32.4775 41.2987C32.4775 41.2987 32.4775 41.2987 32.4774 41.2987C32.2839 41.2269 32.0802 41.2387 31.918 41.3308C31.7526 41.4248 31.6426 41.597 31.6426 41.8073C31.6426 41.96 31.7255 42.1102 31.893 42.3513C32.0698 42.6057 32.378 43.0082 32.9023 43.6824L33.0602 43.5596L32.9023 43.6824C33.6069 44.5883 34.0176 45.1078 34.3022 45.4265C34.5926 45.7518 34.7626 45.8805 34.9866 45.999C35.1201 46.0696 35.2294 46.1182 35.3704 46.1486C35.5049 46.1775 35.661 46.1881 35.8845 46.1967C36.4991 46.2205 36.9193 46.1163 37.3413 45.8115L37.3413 45.8115C37.3682 45.7921 37.3961 45.7618 37.4126 45.7438C37.435 45.7194 37.4632 45.6874 37.4963 45.6488C37.5627 45.5713 37.653 45.4629 37.7643 45.3271C37.9871 45.0552 38.2972 44.67 38.6759 44.1948C39.4334 43.2443 40.4672 41.9317 41.6307 40.4412C41.7739 40.2577 41.9123 40.0804 42.0459 39.9092C43.9367 37.4872 44.8882 36.2683 45.3342 35.6288C45.454 35.4569 45.5409 35.322 45.6004 35.214C45.6582 35.1091 45.6993 35.014 45.7122 34.9253C45.7274 34.8217 45.7032 34.7331 45.6488 34.6596C45.6259 34.6288 45.6007 34.6046 45.582 34.5876C45.5724 34.579 45.5626 34.5704 45.5546 34.5635C45.5461 34.556 45.5389 34.5497 45.5317 34.5432L45.5317 34.5432C45.3031 34.3356 44.9806 34.322 44.7475 34.532L44.7475 34.532C44.7311 34.5468 44.7106 34.5712 44.6984 34.5859L44.6969 34.5876C44.6792 34.6087 44.6556 34.6376 44.6266 34.6733C44.5685 34.7449 44.4871 34.8465 44.3852 34.9745C44.1813 35.2307 43.8943 35.594 43.5452 36.0377C42.847 36.9251 41.8999 38.1345 40.8726 39.452C39.8455 40.7691 38.9102 41.9647 38.2306 42.83C38.1221 42.9681 38.0202 43.0978 37.9254 43.2182C38.0106 42.9981 38.1057 42.7531 38.2087 42.4879C38.6583 41.3308 39.2601 39.7892 39.864 38.2464C40.4679 36.7036 41.0738 35.1599 41.5315 33.9988C41.7605 33.4182 41.9522 32.9334 42.0882 32.5923C42.1562 32.4217 42.2101 32.2874 42.2477 32.1951C42.2575 32.1709 42.2662 32.1497 42.2736 32.1317C42.3192 32.1166 42.3829 32.096 42.4629 32.0704C42.6355 32.0152 42.8811 31.9379 43.1757 31.846C43.7647 31.662 44.5485 31.4197 45.3338 31.1782C46.119 30.9368 46.9056 30.6964 47.5002 30.5163C47.6639 30.4668 47.8128 30.4219 47.9432 30.3828C47.942 30.3844 47.9408 30.386 47.9396 30.3875C47.7111 30.6857 47.3922 31.0972 47.038 31.5502C46.4957 32.244 46.1702 32.6672 45.9804 32.936C45.8859 33.0699 45.8202 33.1722 45.7778 33.2545C45.7357 33.3359 45.7069 33.4154 45.7069 33.4992C45.7069 33.8057 45.9419 34.0882 46.2635 34.0882C46.3526 34.0882 46.4409 34.0526 46.5084 34.0166C46.5816 33.9776 46.6561 33.9243 46.7224 33.8628L46.7224 33.8628C46.7692 33.8193 46.8574 33.7164 46.9652 33.586C47.0775 33.4502 47.222 33.271 47.3869 33.0638C47.7167 32.6491 48.1304 32.1195 48.5363 31.5934C48.9422 31.0674 49.341 30.5443 49.641 30.1426C49.7909 29.9419 49.9169 29.7707 50.0069 29.6442C50.0518 29.5812 50.0888 29.5278 50.1157 29.4869C50.129 29.4666 50.1411 29.4475 50.1508 29.4308L50.1515 29.4296ZM42.2059 32.155C42.2058 32.155 42.2058 32.155 42.206 32.1549L42.2059 32.155ZM31.4758 24.9332L31.5142 24.737L31.4758 24.9332C32.4612 25.126 33.3621 25.3056 34.0196 25.4396C34.3455 25.5061 34.6112 25.5613 34.7976 25.6013C34.6822 25.7387 34.518 25.9289 34.3156 26.16C33.8853 26.6513 33.2847 27.3242 32.618 28.0598C31.685 29.0892 31.078 29.7513 30.701 30.147C30.5712 30.2832 30.4705 30.386 30.394 30.4607C30.0983 29.7029 29.5213 28.2144 28.9935 26.8496C28.6971 26.0833 28.4162 25.3561 28.2095 24.8195C28.1214 24.5907 28.0467 24.3966 27.9901 24.249C28.52 24.3541 29.9039 24.6258 31.4758 24.9332ZM30.2348 30.603C30.2352 30.6027 30.2358 30.6024 30.2366 30.602L30.4898 30.7058C30.4898 30.7059 30.4898 30.7059 30.4898 30.7059L30.3679 30.7537C30.3285 30.7838 30.3083 30.7909 30.3036 30.7789C30.2833 30.727 30.2603 30.6682 30.2348 30.603ZM39.4049 28.0811L39.2567 28.2154L39.4049 28.0811C38.7433 27.351 38.1421 26.6815 37.7064 26.1912C37.4956 25.954 37.3239 25.7591 37.2031 25.6198C37.3867 25.5774 37.6477 25.5203 37.9685 25.4521C38.632 25.3111 39.5477 25.1238 40.5554 24.924C42.3766 24.5631 43.3262 24.3752 43.8207 24.2819C43.8965 24.2676 43.961 24.2556 44.016 24.2456C43.9563 24.4009 43.8761 24.609 43.7809 24.8556C43.567 25.4099 43.2775 26.1586 42.9753 26.9393C42.4461 28.3064 41.8782 29.7709 41.6092 30.4611C41.5338 30.3875 41.4347 30.2865 41.3074 30.1528C40.9337 29.7608 40.3316 29.1039 39.4049 28.0811ZM23.8799 29.0671C23.6779 29.0007 23.5253 28.9482 23.4161 28.908C23.424 28.8979 23.4321 28.8874 23.4406 28.8766C23.5457 28.742 23.6942 28.5542 23.8719 28.3309C24.2271 27.8845 24.6979 27.2977 25.1683 26.7143C25.6387 26.1309 26.1084 25.5511 26.4618 25.1186C26.6122 24.9346 26.7412 24.7776 26.8401 24.6584C26.9062 24.8263 26.9968 25.0578 27.1062 25.3384C27.3421 25.9434 27.6653 26.7758 28.0189 27.6895C28.3723 28.603 28.6908 29.4359 28.9192 30.0418C29.0153 30.2967 29.0953 30.5111 29.1552 30.6742C29.002 30.6304 28.8047 30.5729 28.5723 30.5044C27.9923 30.3334 27.1952 30.0941 26.3212 29.828C25.1719 29.4781 24.3808 29.2319 23.8799 29.0671ZM42.8483 30.6743C42.9087 30.5098 42.9895 30.2932 43.0867 30.0354C43.3166 29.4254 43.6372 28.587 43.993 27.6673C44.3487 26.7479 44.6764 25.9174 44.9178 25.32C45.0273 25.0488 45.1188 24.8265 45.1869 24.666C45.2815 24.7829 45.4064 24.9374 45.5548 25.1211C45.8958 25.5436 46.3608 26.1204 46.8673 26.7496C47.3736 27.3785 47.8368 27.958 48.1753 28.3848C48.3446 28.5983 48.4824 28.7733 48.5786 28.897C48.5815 28.9008 48.5844 28.9045 48.5872 28.9081C48.4803 28.9476 48.331 28.9991 48.133 29.0642C47.6354 29.228 46.8443 29.4742 45.6822 29.828C44.8081 30.0941 44.0111 30.3334 43.4311 30.5044C43.1987 30.5729 43.0015 30.6304 42.8483 30.6743ZM40.0153 30.5492C40.1847 30.7379 40.329 30.8993 40.4422 31.0264C40.1976 31.0294 39.8558 31.0321 39.4391 31.0344C38.5559 31.0392 37.3375 31.0422 35.9971 31.0422C34.6569 31.0422 33.4408 31.0373 32.5612 31.0295C32.1438 31.0258 31.8028 31.0214 31.5604 31.0166C31.6903 30.8702 31.8617 30.6788 32.0622 30.4563C32.5177 29.9505 33.1218 29.2851 33.726 28.6228C34.3301 27.9606 34.934 27.3018 35.3889 26.8095C35.6165 26.5633 35.8064 26.3592 35.9404 26.2171C35.9659 26.1901 35.9892 26.1654 36.0103 26.1432C36.029 26.1631 36.0494 26.185 36.0715 26.2088C36.1981 26.3449 36.3788 26.5411 36.6007 26.7832C37.0442 27.2671 37.6509 27.9331 38.3136 28.6641C38.9763 29.3952 39.5787 30.0627 40.0153 30.5492ZM34.2279 21.9217C33.8926 21.9609 33.6781 21.9897 33.5337 22.0231C33.3801 22.0588 33.2826 22.1048 33.1954 22.189C33.0817 22.2991 33.0132 22.4408 33.0164 22.5965C33.0195 22.7509 33.0924 22.8905 33.206 23.0004L34.2279 21.9217ZM40.9138 32.2496C40.881 32.3346 40.8406 32.4389 40.7934 32.5607C40.6529 32.9223 40.4522 33.4365 40.2112 34.0526C39.7293 35.2846 39.0863 36.9232 38.4424 38.5614C37.7985 40.1995 37.1536 41.8371 36.668 43.0668C36.4251 43.6817 36.2221 44.1945 36.0789 44.5544C36.0508 44.6251 36.025 44.6898 36.0017 44.7482C35.9784 44.6898 35.9526 44.6251 35.9245 44.5544C35.7813 44.1945 35.5783 43.6817 35.3354 43.0668C34.8497 41.8371 34.2049 40.1995 33.561 38.5614C32.9171 36.9232 32.2741 35.2846 31.7921 34.0526C31.5511 33.4365 31.3504 32.9223 31.21 32.5607C31.1627 32.4389 31.1223 32.3346 31.0895 32.2496C31.1276 32.2491 31.1695 32.2487 31.2148 32.2483C31.4783 32.2459 31.8597 32.2437 32.3307 32.2419C33.2727 32.2383 34.5722 32.236 36.0017 32.236C37.4312 32.236 38.7307 32.2383 39.6726 32.2419C40.1437 32.2437 40.525 32.2459 40.7885 32.2483C40.8339 32.2487 40.8757 32.2491 40.9138 32.2496Z" fill="white" stroke="white" stroke-width="0.4"/>
</g>
<defs>
<filter id="filter0_d_789_438967" x="0" y="0" width="72" height="72" filterUnits="userSpaceOnUse" color-interpolation-filters="sRGB">
<feFlood flood-opacity="0" result="BackgroundImageFix"/>
<feColorMatrix in="SourceAlpha" type="matrix" values="0 0 0 0 0 0 0 0 0 0 0 0 0 0 0 0 0 0 127 0" result="hardAlpha"/>
<feOffset dy="2"/>
<feGaussianBlur stdDeviation="6"/>
<feComposite in2="hardAlpha" operator="out"/>
<feColorMatrix type="matrix" values="0 0 0 0 0.337255 0 0 0 0 0.482353 0 0 0 0 1 0 0 0 0.36 0"/>
<feBlend mode="normal" in2="BackgroundImageFix" result="effect1_dropShadow_789_438967"/>
<feBlend mode="normal" in="SourceGraphic" in2="effect1_dropShadow_789_438967" result="shape"/>
</filter>
<linearGradient id="paint0_linear_789_438967" x1="18.5" y1="12.5" x2="55" y2="60" gradientUnits="userSpaceOnUse">
<stop stop-color="#567BFF"/>
<stop offset="1" stop-color="#4F95FF"/>
</linearGradient>
</defs>
</svg>
