<svg width="28" height="27" viewBox="0 0 28 27" fill="none" xmlns="http://www.w3.org/2000/svg">
<path fill-rule="evenodd" clip-rule="evenodd" d="M3.77228 0.552786C3.94168 0.214002 4.28794 0 4.66671 0H23.3334C23.7122 0 24.0584 0.214002 24.2278 0.552786L26.8945 5.88612C26.9639 6.02497 27 6.17809 27 6.33333V7.66667C27 8.99275 26.4733 10.2645 25.5356 11.2022C25.1782 11.5596 24.7723 11.8572 24.3334 12.0888V23.8214H26C26.651 23.8214 27.1786 24.3491 27.1786 25C27.1786 25.6509 26.651 26.1786 26 26.1786H2.00004C1.34914 26.1786 0.821472 25.6509 0.821472 25C0.821472 24.3491 1.34914 23.8214 2.00004 23.8214H3.66669V12.0888C3.22776 11.8572 2.82187 11.5596 2.46451 11.2022C1.52683 10.2645 1.00004 8.99275 1.00004 7.66667V6.33333C1.00004 6.17809 1.03619 6.02497 1.10562 5.88612L3.77228 0.552786ZM22 12.6667C22.1116 12.6667 22.2228 12.6629 22.3334 12.6556V23.8214H19V19.6667C19 18.6942 18.6137 17.7616 17.9261 17.0739C17.2385 16.3863 16.3058 16 15.3334 16H12.6667C11.6942 16 10.7616 16.3863 10.074 17.0739C9.38635 17.7616 9.00004 18.6942 9.00004 19.6667V23.8214H5.66669V12.6556C5.77731 12.6629 5.88848 12.6667 6.00004 12.6667C7.32613 12.6667 8.5979 12.1399 9.53558 11.2022C9.71562 11.0222 9.88052 10.8298 10.0294 10.6271C10.1515 10.8342 10.295 11.0327 10.4645 11.2022C11.4022 12.1399 12.674 12.6667 14 12.6667C15.3261 12.6667 16.5979 12.1399 17.5356 11.2022C17.7039 11.0339 17.8589 10.8549 18 10.6667C18.1412 10.8549 18.2962 11.0339 18.4645 11.2022C19.4022 12.1399 20.674 12.6667 22 12.6667ZM11 23.8214H17V19.6667C17 19.2246 16.8244 18.8007 16.5119 18.4882C16.1993 18.1756 15.7754 18 15.3334 18H12.6667C12.2247 18 11.8008 18.1756 11.4882 18.4882C11.1756 18.8007 11 19.2246 11 19.6667V23.8214ZM11.0886 7.33333C11.1337 7.63724 11.196 7.96673 11.2759 8.29313C11.367 8.66577 11.4749 9.00882 11.5929 9.28763C11.7178 9.58253 11.8242 9.73348 11.8787 9.78799C12.4413 10.3506 13.2044 10.6667 14 10.6667C14.7957 10.6667 15.5588 10.3506 16.1214 9.78799C16.684 9.22538 17 8.46232 17 7.66667V7.33333H11.0886ZM19 7.33333V7.66667C19 8.46232 19.3161 9.22538 19.8787 9.78799C20.4413 10.3506 21.2044 10.6667 22 10.6667C22.7957 10.6667 23.5588 10.3506 24.1214 9.78799C24.684 9.22538 25 8.46232 25 7.66667V7.33333H19ZM24.382 5.33333H18H10H3.61808L5.28474 2H22.7153L24.382 5.33333ZM3.00004 7.33333H9.00004V7.66667C9.00004 8.46232 8.68397 9.22538 8.12136 9.78799C7.55876 10.3506 6.79569 10.6667 6.00004 10.6667C5.20439 10.6667 4.44133 10.3506 3.87872 9.78799C3.31611 9.22538 3.00004 8.46232 3.00004 7.66667V7.33333Z" fill="#A167C9"/>
</svg>
