<svg width="40" height="40" viewBox="0 0 40 40" fill="none" xmlns="http://www.w3.org/2000/svg">
<g filter="url(#filter0_d_234_6467)">
<path fill-rule="evenodd" clip-rule="evenodd" d="M9.54863 7.44098C9.76037 7.0175 10.1932 6.75 10.6667 6.75H29.3333C29.8068 6.75 30.2396 7.0175 30.4514 7.44098L33.118 12.7743C33.2048 12.9479 33.25 13.1393 33.25 13.3333V14.6667C33.25 16.0591 32.6969 17.3944 31.7123 18.379C31.3735 18.7178 30.9932 19.0055 30.5833 19.2371V30.75H32C32.6904 30.75 33.25 31.3096 33.25 32C33.25 32.6904 32.6904 33.25 32 33.25H29.3377L29.3333 33.25L29.3289 33.25H24H16H10.6711L10.6667 33.25L10.6623 33.25H8C7.30964 33.25 6.75 32.6904 6.75 32C6.75 31.3096 7.30964 30.75 8 30.75H9.41667V19.2371C9.00679 19.0055 8.62647 18.7178 8.28769 18.379C7.30312 17.3944 6.75 16.0591 6.75 14.6667V13.3333C6.75 13.1393 6.79518 12.9479 6.88197 12.7743L9.54863 7.44098ZM17.25 30.75H22.75V26.6667C22.75 26.2909 22.6007 25.9306 22.3351 25.6649C22.0694 25.3993 21.7091 25.25 21.3333 25.25H18.6667C18.2909 25.25 17.9306 25.3993 17.6649 25.6649C17.3993 25.9306 17.25 26.2909 17.25 26.6667V30.75ZM25.25 30.75V26.6667C25.25 25.6279 24.8374 24.6317 24.1028 23.8972C23.3683 23.1626 22.3721 22.75 21.3333 22.75H18.6667C17.6279 22.75 16.6317 23.1626 15.8972 23.8972C15.1626 24.6317 14.75 25.6279 14.75 26.6667V30.75H11.9167V19.916C11.9444 19.9164 11.9722 19.9167 12 19.9167C13.3924 19.9167 14.7277 19.3635 15.7123 18.379C15.8168 18.2745 15.9163 18.1661 16.0109 18.0541C16.0947 18.1684 16.1867 18.278 16.2877 18.379C17.2723 19.3635 18.6076 19.9167 20 19.9167C21.3924 19.9167 22.7277 19.3635 23.7123 18.379C23.8127 18.2785 23.9087 18.1745 24 18.0671C24.0913 18.1745 24.1873 18.2785 24.2877 18.379C25.2723 19.3635 26.6076 19.9167 28 19.9167C28.0278 19.9167 28.0556 19.9164 28.0833 19.916V30.75H25.25ZM17.3824 14.5833C17.4198 14.795 17.4651 15.0148 17.5187 15.2337C17.6077 15.5978 17.7118 15.9272 17.8231 16.1902C17.8783 16.3206 17.9304 16.4228 17.9763 16.4988C17.9988 16.5362 18.0178 16.5639 18.0325 16.5833C18.0397 16.5929 18.0454 16.5999 18.0495 16.6046L18.0539 16.6096C18.0549 16.6107 18.0555 16.6112 18.0555 16.6112C18.5712 17.1269 19.2707 17.4167 20 17.4167C20.7293 17.4167 21.4288 17.1269 21.9445 16.6112C22.4603 16.0955 22.75 15.396 22.75 14.6667V14.5833H17.3824ZM25.25 14.5833V14.6667C25.25 15.396 25.5397 16.0955 26.0555 16.6112C26.5712 17.1269 27.2707 17.4167 28 17.4167C28.7293 17.4167 29.4288 17.1269 29.9445 16.6112C30.4603 16.0955 30.75 15.396 30.75 14.6667V14.5833H25.25ZM29.9775 12.0833H24H16H10.0225L11.4392 9.25H28.5608L29.9775 12.0833ZM9.25 14.5833H14.75V14.6667C14.75 15.396 14.4603 16.0955 13.9445 16.6112C13.4288 17.1269 12.7293 17.4167 12 17.4167C11.2707 17.4167 10.5712 17.1269 10.0555 16.6112C9.53973 16.0955 9.25 15.396 9.25 14.6667V14.5833Z" fill="#FF3C76"/>
</g>
<defs>
<filter id="filter0_d_234_6467" x="2.75" y="3.75" width="34.5" height="34.5" filterUnits="userSpaceOnUse" color-interpolation-filters="sRGB">
<feFlood flood-opacity="0" result="BackgroundImageFix"/>
<feColorMatrix in="SourceAlpha" type="matrix" values="0 0 0 0 0 0 0 0 0 0 0 0 0 0 0 0 0 0 127 0" result="hardAlpha"/>
<feOffset dy="1"/>
<feGaussianBlur stdDeviation="2"/>
<feComposite in2="hardAlpha" operator="out"/>
<feColorMatrix type="matrix" values="0 0 0 0 0.960784 0 0 0 0 0.180392 0 0 0 0 0.458824 0 0 0 0.24 0"/>
<feBlend mode="normal" in2="BackgroundImageFix" result="effect1_dropShadow_234_6467"/>
<feBlend mode="normal" in="SourceGraphic" in2="effect1_dropShadow_234_6467" result="shape"/>
</filter>
</defs>
</svg>
