<svg width="26" height="26" viewBox="0 0 26 26" fill="none" xmlns="http://www.w3.org/2000/svg">
<path fill-rule="evenodd" clip-rule="evenodd" d="M2.77227 0.552786C2.94166 0.214002 3.28793 0 3.6667 0H22.3334C22.7121 0 23.0584 0.214002 23.2278 0.552786L25.8945 5.88612C25.9639 6.02497 26 6.17809 26 6.33333V7.66667C26 8.99275 25.4732 10.2645 24.5356 11.2022C24.1782 11.5596 23.7723 11.8572 23.3334 12.0888V24H25C25.5523 24 26 24.4477 26 25C26 25.5523 25.5523 26 25 26H17H9.00003H1.00003C0.447746 26 3.05176e-05 25.5523 3.05176e-05 25C3.05176e-05 24.4477 0.447746 24 1.00003 24H2.66667V12.0888C2.22775 11.8572 1.82186 11.5596 1.4645 11.2022C0.526815 10.2645 3.05176e-05 8.99275 3.05176e-05 7.66667V6.33333C3.05176e-05 6.17809 0.0361756 6.02497 0.105603 5.88612L2.77227 0.552786ZM10 24H16V19.6667C16 19.2246 15.8244 18.8007 15.5119 18.4882C15.1993 18.1756 14.7754 18 14.3334 18H11.6667C11.2247 18 10.8007 18.1756 10.4882 18.4882C10.1756 18.8007 10 19.2246 10 19.6667V24ZM18 24V19.6667C18 18.6942 17.6137 17.7616 16.9261 17.0739C16.2385 16.3863 15.3058 16 14.3334 16H11.6667C10.6942 16 9.7616 16.3863 9.07397 17.0739C8.38634 17.7616 8.00003 18.6942 8.00003 19.6667V24H4.66667V12.6556C4.7773 12.6629 4.88847 12.6667 5.00003 12.6667C6.32611 12.6667 7.59788 12.1399 8.53556 11.2022C8.71561 11.0222 8.88051 10.8298 9.02944 10.6271C9.15146 10.8342 9.29498 11.0327 9.4645 11.2022C10.4022 12.1399 11.6739 12.6667 13 12.6667C14.3261 12.6667 15.5979 12.1399 16.5356 11.2022C16.7038 11.0339 16.8589 10.8549 17 10.6667C17.1412 10.8549 17.2962 11.0339 17.4645 11.2022C18.4022 12.1399 19.6739 12.6667 21 12.6667C21.1116 12.6667 21.2228 12.6629 21.3334 12.6556V24H18ZM10.0886 7.33333C10.1337 7.63724 10.196 7.96673 10.2759 8.29313C10.367 8.66577 10.4749 9.00882 10.5929 9.28763C10.7178 9.58253 10.8242 9.73348 10.8787 9.78799C11.4413 10.3506 12.2044 10.6667 13 10.6667C13.7957 10.6667 14.5587 10.3506 15.1214 9.78799C15.684 9.22538 16 8.46232 16 7.66667V7.33333H10.0886ZM18 7.33333V7.66667C18 8.46232 18.3161 9.22538 18.8787 9.78799C19.4413 10.3506 20.2044 10.6667 21 10.6667C21.7957 10.6667 22.5587 10.3506 23.1214 9.78799C23.684 9.22538 24 8.46232 24 7.66667V7.33333H18ZM23.382 5.33333H17H9.00003H2.61806L4.28473 2H21.7153L23.382 5.33333ZM2.00003 7.33333H8.00003V7.66667C8.00003 8.46232 7.68396 9.22538 7.12135 9.78799C6.55874 10.3506 5.79568 10.6667 5.00003 10.6667C4.20438 10.6667 3.44132 10.3506 2.87871 9.78799C2.3161 9.22538 2.00003 8.46232 2.00003 7.66667V7.33333Z" fill="#CCCCCC"/>
</svg>
