<svg width="24" height="24" viewBox="0 0 24 24" fill="none" xmlns="http://www.w3.org/2000/svg">
<g clip-path="url(#clip0_232_6360)">
<path fill-rule="evenodd" clip-rule="evenodd" d="M4.10557 2.55279C4.27496 2.214 4.62123 2 5 2H19C19.3788 2 19.725 2.214 19.8944 2.55279L21.8944 6.55279C21.9639 6.69164 22 6.84476 22 7V8C22 9.06087 21.5786 10.0783 20.8284 10.8284C20.5791 11.0778 20.3002 11.2908 20 11.4641V20H21C21.5523 20 22 20.4477 22 21C22 21.5523 21.5523 22 21 22H19.0034L19 22L18.9966 22H15H9H5.00342L5 22L4.99658 22H3C2.44772 22 2 21.5523 2 21C2 20.4477 2.44772 20 3 20H4V11.4641C3.69981 11.2908 3.42092 11.0778 3.17157 10.8284C2.42143 10.0783 2 9.06087 2 8V7C2 6.84476 2.03615 6.69164 2.10557 6.55279L4.10557 2.55279ZM10 20H14V17C14 16.7348 13.8946 16.4804 13.7071 16.2929C13.5196 16.1054 13.2652 16 13 16H11C10.7348 16 10.4804 16.1054 10.2929 16.2929C10.1054 16.4804 10 16.7348 10 17V20ZM16 20V17C16 16.2043 15.6839 15.4413 15.1213 14.8787C14.5587 14.3161 13.7957 14 13 14H11C10.2043 14 9.44129 14.3161 8.87868 14.8787C8.31607 15.4413 8 16.2043 8 17V20H6V12C7.06087 12 8.07828 11.5786 8.82843 10.8284C8.88952 10.7673 8.94843 10.7045 9.00511 10.64C9.05665 10.7056 9.11203 10.7689 9.17157 10.8284C9.92172 11.5786 10.9391 12 12 12C13.0609 12 14.0783 11.5786 14.8284 10.8284C14.8877 10.7692 14.9449 10.7082 15 10.6458C15.0551 10.7082 15.1123 10.7692 15.1716 10.8284C15.9217 11.5786 16.9391 12 18 12V20H16ZM10.1117 8C10.1367 8.13449 10.166 8.27269 10.1997 8.41045C10.266 8.68133 10.3431 8.92505 10.4249 9.11825C10.4654 9.21403 10.5032 9.28795 10.5357 9.34185C10.5654 9.3911 10.5835 9.41162 10.5858 9.41414L10.5858 9.41417C10.5861 9.41448 10.5861 9.41448 10.5858 9.41421C10.9609 9.78929 11.4696 10 12 10C12.5304 10 13.0391 9.78929 13.4142 9.41421C13.7893 9.03914 14 8.53043 14 8H10.1117ZM8 8H4C4 8.53043 4.21071 9.03914 4.58579 9.41421C4.96086 9.78929 5.46957 10 6 10C6.53043 10 7.03914 9.78929 7.41421 9.41421C7.78929 9.03914 8 8.53043 8 8ZM4.61803 6H9H15H19.382L18.382 4H5.61803L4.61803 6ZM20 8H16C16 8.53043 16.2107 9.03914 16.5858 9.41421C16.9609 9.78929 17.4696 10 18 10C18.5304 10 19.0391 9.78929 19.4142 9.41421C19.7893 9.03914 20 8.53043 20 8Z" fill="#2C3E50"/>
</g>
<defs>
<clipPath id="clip0_232_6360">
<rect width="24" height="24" fill="white"/>
</clipPath>
</defs>
</svg>
